<?xml version="1.0" encoding="UTF-8"?>
<svg xmlns="http://www.w3.org/2000/svg" version="1.1" width="100" height="100" viewBox="0 0 100 100"><rect x="0" y="0" width="100" height="100" fill="#ffffff"/><g transform="scale(4)"><g transform="translate(0,0)"><path fill-rule="evenodd" d="M8 0.25L8 0.75A0.25 0.25 0 0 0 8.25 1L9.75 1A0.25 0.25 0 0 1 10 1.25L10 3.75A0.25 0.25 0 0 1 9.75 4L9.25 4A0.25 0.25 0 0 1 9 3.75L9 2.25A0.25 0.25 0 0 0 8.75 2L8.25 2A0.25 0.25 0 0 0 8 2.25L8 4.75A0.25 0.25 0 0 0 8.25 5L8.75 5A0.25 0.25 0 0 1 9 5.25L9 5.75A0.25 0.25 0 0 1 8.75 6L8.25 6A0.25 0.25 0 0 0 8 6.25L8 6.75A0.25 0.25 0 0 0 8.25 7L8.75 7A0.25 0.25 0 0 0 9 6.75L9 6.25A0.25 0.25 0 0 1 9.25 6L9.75 6A0.25 0.25 0 0 1 10 6.25L10 8.75A0.25 0.25 0 0 0 10.25 9L10.75 9A0.25 0.25 0 0 1 11 9.25L11 9.75A0.25 0.25 0 0 1 10.75 10L8.25 10A0.25 0.25 0 0 0 8 10.25L8 10.75A0.25 0.25 0 0 1 7.75 11L7.25 11A0.25 0.25 0 0 1 7 10.75L7 10.25A0.25 0.25 0 0 0 6.75 10L6.25 10A0.25 0.25 0 0 1 6 9.75L6 9.25A0.25 0.25 0 0 1 6.25 9L6.75 9A0.25 0.25 0 0 0 7 8.75L7 8.25A0.25 0.25 0 0 0 6.75 8L6.25 8A0.25 0.25 0 0 0 6 8.25L6 8.75A0.25 0.25 0 0 1 5.75 9L5.25 9A0.25 0.25 0 0 0 5 9.25L5 9.75A0.25 0.25 0 0 1 4.75 10L4.25 10A0.25 0.25 0 0 1 4 9.75L4 8.25A0.25 0.25 0 0 0 3.75 8L0.25 8A0.25 0.25 0 0 0 0 8.25L0 8.75A0.25 0.25 0 0 0 0.25 9L1.75 9A0.25 0.25 0 0 1 2 9.25L2 10.75A0.25 0.25 0 0 0 2.25 11L4.75 11A0.25 0.25 0 0 1 5 11.25L5 11.75A0.25 0.25 0 0 1 4.75 12L4.25 12A0.25 0.25 0 0 0 4 12.25L4 12.75A0.25 0.25 0 0 1 3.75 13L3.25 13A0.25 0.25 0 0 0 3 13.25L3 14.75A0.25 0.25 0 0 1 2.75 15L2.25 15A0.25 0.25 0 0 1 2 14.75L2 14.25A0.25 0.25 0 0 0 1.75 14L1.25 14A0.25 0.25 0 0 0 1 14.25L1 14.75A0.25 0.25 0 0 1 0.75 15L0.25 15A0.25 0.25 0 0 0 0 15.25L0 15.75A0.25 0.25 0 0 0 0.25 16L0.75 16A0.25 0.25 0 0 0 1 15.75L1 15.25A0.25 0.25 0 0 1 1.25 15L1.75 15A0.25 0.25 0 0 1 2 15.25L2 15.75A0.25 0.25 0 0 0 2.25 16L2.75 16A0.25 0.25 0 0 0 3 15.75L3 15.25A0.25 0.25 0 0 1 3.25 15L3.75 15A0.25 0.25 0 0 1 4 15.25L4 15.75A0.25 0.25 0 0 0 4.25 16L4.75 16A0.25 0.25 0 0 1 5 16.25L5 16.75A0.25 0.25 0 0 0 5.25 17L6.75 17A0.25 0.25 0 0 0 7 16.75L7 16.25A0.25 0.25 0 0 0 6.75 16L6.25 16A0.25 0.25 0 0 1 6 15.75L6 15.25A0.25 0.25 0 0 1 6.25 15L6.75 15A0.25 0.25 0 0 0 7 14.75L7 14.25A0.25 0.25 0 0 0 6.75 14L6.25 14A0.25 0.25 0 0 0 6 14.25L6 14.75A0.25 0.25 0 0 1 5.75 15L5.25 15A0.25 0.25 0 0 1 5 14.75L5 14.25A0.25 0.25 0 0 0 4.75 14L4.25 14A0.25 0.25 0 0 1 4 13.75L4 13.25A0.25 0.25 0 0 1 4.25 13L4.75 13A0.25 0.25 0 0 0 5 12.75L5 12.25A0.25 0.25 0 0 1 5.25 12L5.75 12A0.25 0.25 0 0 1 6 12.25L6 12.75A0.25 0.25 0 0 0 6.25 13L7.75 13A0.25 0.25 0 0 1 8 13.25L8 13.75A0.25 0.25 0 0 0 8.25 14L9.75 14A0.25 0.25 0 0 0 10 13.75L10 13.25A0.25 0.25 0 0 1 10.25 13L10.75 13A0.25 0.25 0 0 0 11 12.75L11 12.25A0.25 0.25 0 0 1 11.25 12L11.75 12A0.25 0.25 0 0 0 12 11.75L12 11.25A0.25 0.25 0 0 1 12.25 11L12.75 11A0.25 0.25 0 0 1 13 11.25L13 12.75A0.25 0.25 0 0 1 12.75 13L12.25 13A0.25 0.25 0 0 0 12 13.25L12 14.75A0.25 0.25 0 0 0 12.25 15L13.75 15A0.25 0.25 0 0 1 14 15.25L14 15.75A0.25 0.25 0 0 1 13.75 16L13.25 16A0.25 0.25 0 0 0 13 16.25L13 16.75A0.25 0.25 0 0 1 12.75 17L12.25 17A0.25 0.25 0 0 1 12 16.75L12 16.25A0.25 0.25 0 0 0 11.75 16L11.25 16A0.25 0.25 0 0 1 11 15.75L11 15.25A0.25 0.25 0 0 0 10.75 15L10.25 15A0.25 0.25 0 0 0 10 15.25L10 15.75A0.25 0.25 0 0 1 9.75 16L9.25 16A0.25 0.25 0 0 0 9 16.25L9 16.75A0.25 0.25 0 0 1 8.75 17L8.25 17A0.25 0.25 0 0 0 8 17.25L8 17.75A0.25 0.25 0 0 0 8.25 18L8.75 18A0.25 0.25 0 0 1 9 18.25L9 19.75A0.25 0.25 0 0 0 9.25 20L9.75 20A0.25 0.25 0 0 1 10 20.25L10 20.75A0.25 0.25 0 0 0 10.25 21L10.75 21A0.25 0.25 0 0 1 11 21.25L11 22.75A0.25 0.25 0 0 1 10.75 23L10.25 23A0.25 0.25 0 0 0 10 23.25L10 23.75A0.25 0.25 0 0 1 9.75 24L9.25 24A0.25 0.25 0 0 1 9 23.75L9 21.25A0.25 0.25 0 0 0 8.75 21L8.25 21A0.25 0.25 0 0 0 8 21.25L8 24.75A0.25 0.25 0 0 0 8.25 25L10.75 25A0.25 0.25 0 0 0 11 24.75L11 24.25A0.25 0.25 0 0 1 11.25 24L12.75 24A0.25 0.25 0 0 1 13 24.25L13 24.75A0.25 0.25 0 0 0 13.25 25L13.75 25A0.25 0.25 0 0 0 14 24.75L14 24.25A0.25 0.25 0 0 1 14.25 24L15.75 24A0.25 0.25 0 0 0 16 23.75L16 21.25A0.25 0.25 0 0 1 16.25 21L17.75 21A0.25 0.25 0 0 1 18 21.25L18 21.75A0.25 0.25 0 0 1 17.75 22L17.25 22A0.25 0.25 0 0 0 17 22.25L17 23.75A0.25 0.25 0 0 0 17.25 24L18.75 24A0.25 0.25 0 0 1 19 24.25L19 24.75A0.25 0.25 0 0 0 19.25 25L24.75 25A0.25 0.25 0 0 0 25 24.75L25 24.25A0.25 0.25 0 0 0 24.75 24L23.25 24A0.25 0.25 0 0 1 23 23.75L23 23.25A0.25 0.25 0 0 1 23.25 23L23.75 23A0.25 0.25 0 0 0 24 22.75L24 22.25A0.25 0.25 0 0 1 24.25 22L24.75 22A0.25 0.25 0 0 0 25 21.75L25 15.25A0.25 0.25 0 0 0 24.75 15L24.25 15A0.25 0.25 0 0 1 24 14.75L24 14.25A0.25 0.25 0 0 1 24.25 14L24.75 14A0.25 0.25 0 0 0 25 13.75L25 12.25A0.25 0.25 0 0 0 24.75 12L23.25 12A0.25 0.25 0 0 1 23 11.75L23 11.25A0.25 0.25 0 0 0 22.75 11L21.25 11A0.25 0.25 0 0 1 21 10.75L21 10.25A0.25 0.25 0 0 0 20.75 10L20.25 10A0.25 0.25 0 0 1 20 9.75L20 9.25A0.25 0.25 0 0 1 20.25 9L22.75 9A0.25 0.25 0 0 1 23 9.25L23 9.75A0.25 0.25 0 0 0 23.25 10L23.75 10A0.25 0.25 0 0 0 24 9.75L24 9.25A0.25 0.25 0 0 1 24.25 9L24.75 9A0.25 0.25 0 0 0 25 8.75L25 8.25A0.25 0.25 0 0 0 24.75 8L24.25 8A0.25 0.25 0 0 0 24 8.25L24 8.75A0.25 0.25 0 0 1 23.75 9L23.25 9A0.25 0.25 0 0 1 23 8.75L23 8.25A0.25 0.25 0 0 0 22.75 8L20.25 8A0.25 0.25 0 0 0 20 8.25L20 8.75A0.25 0.25 0 0 1 19.75 9L19.25 9A0.25 0.25 0 0 0 19 9.25L19 10.75A0.25 0.25 0 0 1 18.75 11L18.25 11A0.25 0.25 0 0 1 18 10.75L18 8.25A0.25 0.25 0 0 0 17.75 8L17.25 8A0.25 0.25 0 0 1 17 7.75L17 5.25A0.25 0.25 0 0 0 16.75 5L16.25 5A0.25 0.25 0 0 1 16 4.75L16 4.25A0.25 0.25 0 0 0 15.75 4L15.25 4A0.25 0.25 0 0 1 15 3.75L15 3.25A0.25 0.25 0 0 1 15.25 3L15.75 3A0.25 0.25 0 0 0 16 2.75L16 2.25A0.25 0.25 0 0 1 16.25 2L16.75 2A0.25 0.25 0 0 0 17 1.75L17 0.25A0.25 0.25 0 0 0 16.75 0L16.25 0A0.25 0.25 0 0 0 16 0.25L16 1.75A0.25 0.25 0 0 1 15.75 2L14.25 2A0.25 0.25 0 0 1 14 1.75L14 0.25A0.25 0.25 0 0 0 13.75 0L13.25 0A0.25 0.25 0 0 0 13 0.25L13 0.75A0.25 0.25 0 0 1 12.75 1L12.25 1A0.25 0.25 0 0 1 12 0.75L12 0.25A0.25 0.25 0 0 0 11.75 0L11.25 0A0.25 0.25 0 0 0 11 0.25L11 0.75A0.25 0.25 0 0 1 10.75 1L10.25 1A0.25 0.25 0 0 1 10 0.75L10 0.25A0.25 0.25 0 0 0 9.75 0L8.25 0A0.25 0.25 0 0 0 8 0.25ZM11 2.25L11 3.75A0.25 0.25 0 0 1 10.75 4L10.25 4A0.25 0.25 0 0 0 10 4.25L10 5.75A0.25 0.25 0 0 0 10.25 6L10.75 6A0.25 0.25 0 0 1 11 6.25L11 6.75A0.25 0.25 0 0 0 11.25 7L11.75 7A0.25 0.25 0 0 0 12 6.75L12 6.25A0.25 0.25 0 0 1 12.25 6L12.75 6A0.25 0.25 0 0 1 13 6.25L13 8.75A0.25 0.25 0 0 1 12.75 9L12.25 9A0.25 0.25 0 0 1 12 8.75L12 8.25A0.25 0.25 0 0 0 11.75 8L11.25 8A0.25 0.25 0 0 0 11 8.25L11 8.75A0.25 0.25 0 0 0 11.25 9L11.75 9A0.25 0.25 0 0 1 12 9.25L12 9.75A0.25 0.25 0 0 0 12.25 10L12.75 10A0.25 0.25 0 0 1 13 10.25L13 10.75A0.25 0.25 0 0 0 13.25 11L13.75 11A0.25 0.25 0 0 1 14 11.25L14 11.75A0.25 0.25 0 0 0 14.25 12L14.75 12A0.25 0.25 0 0 0 15 11.75L15 11.25A0.25 0.25 0 0 1 15.25 11L15.75 11A0.25 0.25 0 0 0 16 10.75L16 9.25A0.25 0.25 0 0 1 16.25 9L16.75 9A0.25 0.25 0 0 0 17 8.75L17 8.25A0.25 0.25 0 0 0 16.75 8L16.25 8A0.25 0.25 0 0 1 16 7.75L16 5.25A0.25 0.25 0 0 0 15.75 5L15.25 5A0.25 0.25 0 0 1 15 4.75L15 4.25A0.25 0.25 0 0 0 14.75 4L13.25 4A0.25 0.25 0 0 0 13 4.25L13 4.75A0.25 0.25 0 0 1 12.75 5L12.25 5A0.25 0.25 0 0 1 12 4.75L12 3.25A0.25 0.25 0 0 1 12.25 3L12.75 3A0.25 0.25 0 0 0 13 2.75L13 2.25A0.25 0.25 0 0 0 12.75 2L11.25 2A0.25 0.25 0 0 0 11 2.25ZM14 6.25L14 8.75A0.25 0.25 0 0 0 14.25 9L14.75 9A0.25 0.25 0 0 0 15 8.75L15 6.25A0.25 0.25 0 0 0 14.75 6L14.25 6A0.25 0.25 0 0 0 14 6.25ZM8 8.25L8 8.75A0.25 0.25 0 0 0 8.25 9L8.75 9A0.25 0.25 0 0 0 9 8.75L9 8.25A0.25 0.25 0 0 0 8.75 8L8.25 8A0.25 0.25 0 0 0 8 8.25ZM0 10.25L0 10.75A0.25 0.25 0 0 0 0.25 11L0.75 11A0.25 0.25 0 0 0 1 10.75L1 10.25A0.25 0.25 0 0 0 0.75 10L0.25 10A0.25 0.25 0 0 0 0 10.25ZM6 11.25L6 11.75A0.25 0.25 0 0 0 6.25 12L6.75 12A0.25 0.25 0 0 0 7 11.75L7 11.25A0.25 0.25 0 0 0 6.75 11L6.25 11A0.25 0.25 0 0 0 6 11.25ZM19 11.25L19 12.75A0.25 0.25 0 0 0 19.25 13L19.75 13A0.25 0.25 0 0 0 20 12.75L20 12.25A0.25 0.25 0 0 1 20.25 12L20.75 12A0.25 0.25 0 0 1 21 12.25L21 13.75A0.25 0.25 0 0 1 20.75 14L20.25 14A0.25 0.25 0 0 0 20 14.25L20 14.75A0.25 0.25 0 0 0 20.25 15L21.75 15A0.25 0.25 0 0 1 22 15.25L22 15.75A0.25 0.25 0 0 0 22.25 16L23.75 16A0.25 0.25 0 0 0 24 15.75L24 15.25A0.25 0.25 0 0 0 23.75 15L22.25 15A0.25 0.25 0 0 1 22 14.75L22 14.25A0.25 0.25 0 0 1 22.25 14L23.75 14A0.25 0.25 0 0 0 24 13.75L24 13.25A0.25 0.25 0 0 0 23.75 13L22.25 13A0.25 0.25 0 0 1 22 12.75L22 12.25A0.25 0.25 0 0 0 21.75 12L21.25 12A0.25 0.25 0 0 1 21 11.75L21 11.25A0.25 0.25 0 0 0 20.75 11L19.25 11A0.25 0.25 0 0 0 19 11.25ZM1 12.25L1 12.75A0.25 0.25 0 0 0 1.25 13L1.75 13A0.25 0.25 0 0 0 2 12.75L2 12.25A0.25 0.25 0 0 0 1.75 12L1.25 12A0.25 0.25 0 0 0 1 12.25ZM13 13.25L13 13.75A0.25 0.25 0 0 0 13.25 14L13.75 14A0.25 0.25 0 0 0 14 13.75L14 13.25A0.25 0.25 0 0 0 13.75 13L13.25 13A0.25 0.25 0 0 0 13 13.25ZM15 14.25L15 14.75A0.25 0.25 0 0 0 15.25 15L16.75 15A0.25 0.25 0 0 0 17 14.75L17 14.25A0.25 0.25 0 0 0 16.75 14L15.25 14A0.25 0.25 0 0 0 15 14.25ZM18 14.25L18 14.75A0.25 0.25 0 0 0 18.25 15L18.75 15A0.25 0.25 0 0 0 19 14.75L19 14.25A0.25 0.25 0 0 0 18.75 14L18.25 14A0.25 0.25 0 0 0 18 14.25ZM14 16.25L14 16.75A0.25 0.25 0 0 1 13.75 17L13.25 17A0.25 0.25 0 0 0 13 17.25L13 17.75A0.25 0.25 0 0 1 12.75 18L11.25 18A0.25 0.25 0 0 0 11 18.25L11 19.75A0.25 0.25 0 0 0 11.25 20L11.75 20A0.25 0.25 0 0 1 12 20.25L12 20.75A0.25 0.25 0 0 0 12.25 21L13.75 21A0.25 0.25 0 0 1 14 21.25L14 22.75A0.25 0.25 0 0 0 14.25 23L14.75 23A0.25 0.25 0 0 0 15 22.75L15 21.25A0.25 0.25 0 0 1 15.25 21L15.75 21A0.25 0.25 0 0 0 16 20.75L16 20.25A0.25 0.25 0 0 0 15.75 20L14.25 20A0.25 0.25 0 0 1 14 19.75L14 19.25A0.25 0.25 0 0 0 13.75 19L13.25 19A0.25 0.25 0 0 1 13 18.75L13 18.25A0.25 0.25 0 0 1 13.25 18L14.75 18A0.25 0.25 0 0 1 15 18.25L15 18.75A0.25 0.25 0 0 0 15.25 19L15.75 19A0.25 0.25 0 0 0 16 18.75L16 16.25A0.25 0.25 0 0 0 15.75 16L14.25 16A0.25 0.25 0 0 0 14 16.25ZM17 17.25L17 19.75A0.25 0.25 0 0 0 17.25 20L19.75 20A0.25 0.25 0 0 0 20 19.75L20 17.25A0.25 0.25 0 0 0 19.75 17L17.25 17A0.25 0.25 0 0 0 17 17.25ZM21 17.25L21 17.75A0.25 0.25 0 0 0 21.25 18L23.75 18A0.25 0.25 0 0 0 24 17.75L24 17.25A0.25 0.25 0 0 0 23.75 17L21.25 17A0.25 0.25 0 0 0 21 17.25ZM18 18.25L18 18.75A0.25 0.25 0 0 0 18.25 19L18.75 19A0.25 0.25 0 0 0 19 18.75L19 18.25A0.25 0.25 0 0 0 18.75 18L18.25 18A0.25 0.25 0 0 0 18 18.25ZM12 19.25L12 19.75A0.25 0.25 0 0 0 12.25 20L12.75 20A0.25 0.25 0 0 0 13 19.75L13 19.25A0.25 0.25 0 0 0 12.75 19L12.25 19A0.25 0.25 0 0 0 12 19.25ZM21 19.25L21 21.75A0.25 0.25 0 0 0 21.25 22L21.75 22A0.25 0.25 0 0 0 22 21.75L22 21.25A0.25 0.25 0 0 1 22.25 21L22.75 21A0.25 0.25 0 0 0 23 20.75L23 20.25A0.25 0.25 0 0 1 23.25 20L23.75 20A0.25 0.25 0 0 0 24 19.75L24 19.25A0.25 0.25 0 0 0 23.75 19L21.25 19A0.25 0.25 0 0 0 21 19.25ZM19 21.25L19 21.75A0.25 0.25 0 0 0 19.25 22L19.75 22A0.25 0.25 0 0 0 20 21.75L20 21.25A0.25 0.25 0 0 0 19.75 21L19.25 21A0.25 0.25 0 0 0 19 21.25ZM12 22.25L12 22.75A0.25 0.25 0 0 0 12.25 23L12.75 23A0.25 0.25 0 0 0 13 22.75L13 22.25A0.25 0.25 0 0 0 12.75 22L12.25 22A0.25 0.25 0 0 0 12 22.25ZM19 23.25L19 23.75A0.25 0.25 0 0 0 19.25 24L19.75 24A0.25 0.25 0 0 0 20 23.75L20 23.25A0.25 0.25 0 0 0 19.75 23L19.25 23A0.25 0.25 0 0 0 19 23.25ZM21 23.25L21 23.75A0.25 0.25 0 0 0 21.25 24L21.75 24A0.25 0.25 0 0 0 22 23.75L22 23.25A0.25 0.25 0 0 0 21.75 23L21.25 23A0.25 0.25 0 0 0 21 23.25ZM0 0L7 0L7 7L0 7ZM1 1L1 6L6 6L6 1ZM5 3.5A1.5 1.5 0 0 1 3.5 5A1.5 1.5 0 0 1 2 3.5A1.5 1.5 0 0 1 3.5 2A1.5 1.5 0 0 1 5 3.5ZM18 0L25 0L25 7L18 7ZM19 1L19 6L24 6L24 1ZM23 3.5A1.5 1.5 0 0 1 21.5 5A1.5 1.5 0 0 1 20 3.5A1.5 1.5 0 0 1 21.5 2A1.5 1.5 0 0 1 23 3.5ZM0 18L7 18L7 25L0 25ZM1 19L1 24L6 24L6 19ZM5 21.5A1.5 1.5 0 0 1 3.5 23A1.5 1.5 0 0 1 2 21.5A1.5 1.5 0 0 1 3.5 20A1.5 1.5 0 0 1 5 21.5Z" fill="#000000"/></g></g></svg>
