<?xml version="1.0" encoding="UTF-8"?>
<svg xmlns="http://www.w3.org/2000/svg" version="1.1" width="100" height="100" viewBox="0 0 100 100"><rect x="0" y="0" width="100" height="100" fill="#ffffff"/><g transform="scale(4)"><g transform="translate(0,0)"><path fill-rule="evenodd" d="M8 0.25L8 0.75A0.25 0.25 0 0 0 8.25 1L9.75 1A0.25 0.25 0 0 1 10 1.25L10 3.75A0.25 0.25 0 0 1 9.75 4L9.25 4A0.25 0.25 0 0 1 9 3.75L9 2.25A0.25 0.25 0 0 0 8.75 2L8.25 2A0.25 0.25 0 0 0 8 2.25L8 4.75A0.25 0.25 0 0 0 8.25 5L8.75 5A0.25 0.25 0 0 1 9 5.25L9 5.75A0.25 0.25 0 0 1 8.75 6L8.25 6A0.25 0.25 0 0 0 8 6.25L8 6.75A0.25 0.25 0 0 0 8.25 7L8.75 7A0.25 0.25 0 0 0 9 6.75L9 6.25A0.25 0.25 0 0 1 9.25 6L9.75 6A0.25 0.25 0 0 1 10 6.25L10 8.75A0.25 0.25 0 0 0 10.25 9L10.75 9A0.25 0.25 0 0 1 11 9.25L11 9.75A0.25 0.25 0 0 1 10.75 10L9.25 10A0.25 0.25 0 0 0 9 10.25L9 11.75A0.25 0.25 0 0 1 8.75 12L8.25 12A0.25 0.25 0 0 1 8 11.75L8 9.25A0.25 0.25 0 0 1 8.25 9L8.75 9A0.25 0.25 0 0 0 9 8.75L9 8.25A0.25 0.25 0 0 0 8.75 8L8.25 8A0.25 0.25 0 0 0 8 8.25L8 8.75A0.25 0.25 0 0 1 7.75 9L7.25 9A0.25 0.25 0 0 1 7 8.75L7 8.25A0.25 0.25 0 0 0 6.75 8L6.25 8A0.25 0.25 0 0 0 6 8.25L6 8.75A0.25 0.25 0 0 0 6.25 9L6.75 9A0.25 0.25 0 0 1 7 9.25L7 9.75A0.25 0.25 0 0 1 6.75 10L6.25 10A0.25 0.25 0 0 0 6 10.25L6 10.75A0.25 0.25 0 0 1 5.75 11L5.25 11A0.25 0.25 0 0 1 5 10.75L5 10.25A0.25 0.25 0 0 0 4.75 10L4.25 10A0.25 0.25 0 0 1 4 9.75L4 8.25A0.25 0.25 0 0 0 3.75 8L0.25 8A0.25 0.25 0 0 0 0 8.25L0 9.75A0.25 0.25 0 0 0 0.25 10L0.75 10A0.25 0.25 0 0 1 1 10.25L1 10.75A0.25 0.25 0 0 1 0.75 11L0.25 11A0.25 0.25 0 0 0 0 11.25L0 11.75A0.25 0.25 0 0 0 0.25 12L0.75 12A0.25 0.25 0 0 1 1 12.25L1 14.75A0.25 0.25 0 0 1 0.75 15L0.25 15A0.25 0.25 0 0 0 0 15.25L0 15.75A0.25 0.25 0 0 0 0.25 16L0.75 16A0.25 0.25 0 0 0 1 15.75L1 15.25A0.25 0.25 0 0 1 1.25 15L3.75 15A0.25 0.25 0 0 1 4 15.25L4 15.75A0.25 0.25 0 0 1 3.75 16L2.25 16A0.25 0.25 0 0 0 2 16.25L2 16.75A0.25 0.25 0 0 0 2.25 17L4.75 17A0.25 0.25 0 0 0 5 16.75L5 15.25A0.25 0.25 0 0 0 4.75 15L4.25 15A0.25 0.25 0 0 1 4 14.75L4 14.25A0.25 0.25 0 0 1 4.25 14L5.75 14A0.25 0.25 0 0 1 6 14.25L6 14.75A0.25 0.25 0 0 0 6.25 15L6.75 15A0.25 0.25 0 0 1 7 15.25L7 15.75A0.25 0.25 0 0 1 6.75 16L6.25 16A0.25 0.25 0 0 0 6 16.25L6 16.75A0.25 0.25 0 0 0 6.25 17L7.75 17A0.25 0.25 0 0 1 8 17.25L8 17.75A0.25 0.25 0 0 0 8.25 18L9.75 18A0.25 0.25 0 0 0 10 17.75L10 17.25A0.25 0.25 0 0 0 9.75 17L8.25 17A0.25 0.25 0 0 1 8 16.75L8 15.25A0.25 0.25 0 0 1 8.25 15L9.75 15A0.25 0.25 0 0 1 10 15.25L10 15.75A0.25 0.25 0 0 0 10.25 16L10.75 16A0.25 0.25 0 0 1 11 16.25L11 17.75A0.25 0.25 0 0 0 11.25 18L12.75 18A0.25 0.25 0 0 1 13 18.25L13 18.75A0.25 0.25 0 0 1 12.75 19L12.25 19A0.25 0.25 0 0 0 12 19.25L12 19.75A0.25 0.25 0 0 1 11.75 20L11.25 20A0.25 0.25 0 0 1 11 19.75L11 19.25A0.25 0.25 0 0 0 10.75 19L10.25 19A0.25 0.25 0 0 0 10 19.25L10 19.75A0.25 0.25 0 0 0 10.25 20L10.75 20A0.25 0.25 0 0 1 11 20.25L11 20.75A0.25 0.25 0 0 1 10.75 21L8.25 21A0.25 0.25 0 0 0 8 21.25L8 24.75A0.25 0.25 0 0 0 8.25 25L9.75 25A0.25 0.25 0 0 0 10 24.75L10 23.25A0.25 0.25 0 0 0 9.75 23L9.25 23A0.25 0.25 0 0 1 9 22.75L9 22.25A0.25 0.25 0 0 1 9.25 22L10.75 22A0.25 0.25 0 0 1 11 22.25L11 22.75A0.25 0.25 0 0 0 11.25 23L12.75 23A0.25 0.25 0 0 1 13 23.25L13 24.75A0.25 0.25 0 0 0 13.25 25L13.75 25A0.25 0.25 0 0 0 14 24.75L14 24.25A0.25 0.25 0 0 1 14.25 24L14.75 24A0.25 0.25 0 0 1 15 24.25L15 24.75A0.25 0.25 0 0 0 15.25 25L15.75 25A0.25 0.25 0 0 0 16 24.75L16 24.25A0.25 0.25 0 0 0 15.75 24L15.25 24A0.25 0.25 0 0 1 15 23.75L15 23.25A0.25 0.25 0 0 1 15.25 23L16.75 23A0.25 0.25 0 0 0 17 22.75L17 21.25A0.25 0.25 0 0 1 17.25 21L17.75 21A0.25 0.25 0 0 1 18 21.25L18 22.75A0.25 0.25 0 0 0 18.25 23L18.75 23A0.25 0.25 0 0 0 19 22.75L19 22.25A0.25 0.25 0 0 1 19.25 22L19.75 22A0.25 0.25 0 0 1 20 22.25L20 23.75A0.25 0.25 0 0 1 19.75 24L18.25 24A0.25 0.25 0 0 0 18 24.25L18 24.75A0.25 0.25 0 0 0 18.25 25L24.75 25A0.25 0.25 0 0 0 25 24.75L25 24.25A0.25 0.25 0 0 0 24.75 24L23.25 24A0.25 0.25 0 0 1 23 23.75L23 23.25A0.25 0.25 0 0 1 23.25 23L23.75 23A0.25 0.25 0 0 0 24 22.75L24 22.25A0.25 0.25 0 0 1 24.25 22L24.75 22A0.25 0.25 0 0 0 25 21.75L25 15.25A0.25 0.25 0 0 0 24.75 15L24.25 15A0.25 0.25 0 0 1 24 14.75L24 14.25A0.25 0.25 0 0 1 24.25 14L24.75 14A0.25 0.25 0 0 0 25 13.75L25 12.25A0.25 0.25 0 0 0 24.75 12L23.25 12A0.25 0.25 0 0 1 23 11.75L23 11.25A0.25 0.25 0 0 0 22.75 11L21.25 11A0.25 0.25 0 0 0 21 11.25L21 11.75A0.25 0.25 0 0 1 20.75 12L20.25 12A0.25 0.25 0 0 1 20 11.75L20 11.25A0.25 0.25 0 0 0 19.75 11L17.25 11A0.25 0.25 0 0 0 17 11.25L17 11.75A0.25 0.25 0 0 0 17.25 12L17.75 12A0.25 0.25 0 0 1 18 12.25L18 12.75A0.25 0.25 0 0 1 17.75 13L17.25 13A0.25 0.25 0 0 0 17 13.25L17 13.75A0.25 0.25 0 0 1 16.75 14L16.25 14A0.25 0.25 0 0 1 16 13.75L16 13.25A0.25 0.25 0 0 0 15.75 13L15.25 13A0.25 0.25 0 0 1 15 12.75L15 12.25A0.25 0.25 0 0 1 15.25 12L15.75 12A0.25 0.25 0 0 0 16 11.75L16 11.25A0.25 0.25 0 0 0 15.75 11L15.25 11A0.25 0.25 0 0 0 15 11.25L15 11.75A0.25 0.25 0 0 1 14.75 12L14.25 12A0.25 0.25 0 0 1 14 11.75L14 11.25A0.25 0.25 0 0 0 13.75 11L13.25 11A0.25 0.25 0 0 1 13 10.75L13 10.25A0.25 0.25 0 0 0 12.75 10L12.25 10A0.25 0.25 0 0 1 12 9.75L12 9.25A0.25 0.25 0 0 1 12.25 9L12.75 9A0.25 0.25 0 0 0 13 8.75L13 6.25A0.25 0.25 0 0 0 12.75 6L12.25 6A0.25 0.25 0 0 0 12 6.25L12 6.75A0.25 0.25 0 0 1 11.75 7L11.25 7A0.25 0.25 0 0 1 11 6.75L11 6.25A0.25 0.25 0 0 0 10.75 6L10.25 6A0.25 0.25 0 0 1 10 5.75L10 4.25A0.25 0.25 0 0 1 10.25 4L10.75 4A0.25 0.25 0 0 0 11 3.75L11 2.25A0.25 0.25 0 0 1 11.25 2L12.75 2A0.25 0.25 0 0 1 13 2.25L13 2.75A0.25 0.25 0 0 1 12.75 3L12.25 3A0.25 0.25 0 0 0 12 3.25L12 4.75A0.25 0.25 0 0 0 12.25 5L12.75 5A0.25 0.25 0 0 0 13 4.75L13 4.25A0.25 0.25 0 0 1 13.25 4L14.75 4A0.25 0.25 0 0 1 15 4.25L15 4.75A0.25 0.25 0 0 0 15.25 5L15.75 5A0.25 0.25 0 0 0 16 4.75L16 4.25A0.25 0.25 0 0 0 15.75 4L15.25 4A0.25 0.25 0 0 1 15 3.75L15 3.25A0.25 0.25 0 0 1 15.25 3L15.75 3A0.25 0.25 0 0 0 16 2.75L16 2.25A0.25 0.25 0 0 1 16.25 2L16.75 2A0.25 0.25 0 0 0 17 1.75L17 0.25A0.25 0.25 0 0 0 16.75 0L16.25 0A0.25 0.25 0 0 0 16 0.25L16 1.75A0.25 0.25 0 0 1 15.75 2L14.25 2A0.25 0.25 0 0 1 14 1.75L14 0.25A0.25 0.25 0 0 0 13.75 0L13.25 0A0.25 0.25 0 0 0 13 0.25L13 0.75A0.25 0.25 0 0 1 12.75 1L12.25 1A0.25 0.25 0 0 1 12 0.75L12 0.25A0.25 0.25 0 0 0 11.75 0L11.25 0A0.25 0.25 0 0 0 11 0.25L11 0.75A0.25 0.25 0 0 1 10.75 1L10.25 1A0.25 0.25 0 0 1 10 0.75L10 0.25A0.25 0.25 0 0 0 9.75 0L8.25 0A0.25 0.25 0 0 0 8 0.25ZM14 6.25L14 8.75A0.25 0.25 0 0 0 14.25 9L14.75 9A0.25 0.25 0 0 0 15 8.75L15 6.25A0.25 0.25 0 0 0 14.75 6L14.25 6A0.25 0.25 0 0 0 14 6.25ZM16 6.25L16 6.75A0.25 0.25 0 0 0 16.25 7L16.75 7A0.25 0.25 0 0 0 17 6.75L17 6.25A0.25 0.25 0 0 0 16.75 6L16.25 6A0.25 0.25 0 0 0 16 6.25ZM11 8.25L11 8.75A0.25 0.25 0 0 0 11.25 9L11.75 9A0.25 0.25 0 0 0 12 8.75L12 8.25A0.25 0.25 0 0 0 11.75 8L11.25 8A0.25 0.25 0 0 0 11 8.25ZM17 8.25L17 9.75A0.25 0.25 0 0 0 17.25 10L17.75 10A0.25 0.25 0 0 0 18 9.75L18 8.25A0.25 0.25 0 0 0 17.75 8L17.25 8A0.25 0.25 0 0 0 17 8.25ZM20 8.25L20 8.75A0.25 0.25 0 0 0 20.25 9L22.75 9A0.25 0.25 0 0 1 23 9.25L23 9.75A0.25 0.25 0 0 0 23.25 10L23.75 10A0.25 0.25 0 0 0 24 9.75L24 9.25A0.25 0.25 0 0 1 24.25 9L24.75 9A0.25 0.25 0 0 0 25 8.75L25 8.25A0.25 0.25 0 0 0 24.75 8L24.25 8A0.25 0.25 0 0 0 24 8.25L24 8.75A0.25 0.25 0 0 1 23.75 9L23.25 9A0.25 0.25 0 0 1 23 8.75L23 8.25A0.25 0.25 0 0 0 22.75 8L20.25 8A0.25 0.25 0 0 0 20 8.25ZM2 10.25L2 10.75A0.25 0.25 0 0 1 1.75 11L1.25 11A0.25 0.25 0 0 0 1 11.25L1 11.75A0.25 0.25 0 0 0 1.25 12L1.75 12A0.25 0.25 0 0 0 2 11.75L2 11.25A0.25 0.25 0 0 1 2.25 11L3.75 11A0.25 0.25 0 0 0 4 10.75L4 10.25A0.25 0.25 0 0 0 3.75 10L2.25 10A0.25 0.25 0 0 0 2 10.25ZM6 11.25L6 11.75A0.25 0.25 0 0 0 6.25 12L6.75 12A0.25 0.25 0 0 0 7 11.75L7 11.25A0.25 0.25 0 0 0 6.75 11L6.25 11A0.25 0.25 0 0 0 6 11.25ZM12 11.25L12 11.75A0.25 0.25 0 0 1 11.75 12L11.25 12A0.25 0.25 0 0 0 11 12.25L11 12.75A0.25 0.25 0 0 1 10.75 13L6.25 13A0.25 0.25 0 0 0 6 13.25L6 13.75A0.25 0.25 0 0 0 6.25 14L10.75 14A0.25 0.25 0 0 1 11 14.25L11 15.75A0.25 0.25 0 0 0 11.25 16L11.75 16A0.25 0.25 0 0 1 12 16.25L12 16.75A0.25 0.25 0 0 0 12.25 17L12.75 17A0.25 0.25 0 0 1 13 17.25L13 17.75A0.25 0.25 0 0 0 13.25 18L14.75 18A0.25 0.25 0 0 1 15 18.25L15 19.75A0.25 0.25 0 0 1 14.75 20L14.25 20A0.25 0.25 0 0 1 14 19.75L14 19.25A0.25 0.25 0 0 0 13.75 19L13.25 19A0.25 0.25 0 0 0 13 19.25L13 19.75A0.25 0.25 0 0 1 12.75 20L12.25 20A0.25 0.25 0 0 0 12 20.25L12 20.75A0.25 0.25 0 0 0 12.25 21L13.75 21A0.25 0.25 0 0 1 14 21.25L14 22.75A0.25 0.25 0 0 0 14.25 23L14.75 23A0.25 0.25 0 0 0 15 22.75L15 21.25A0.25 0.25 0 0 1 15.25 21L15.75 21A0.25 0.25 0 0 0 16 20.75L16 18.25A0.25 0.25 0 0 0 15.75 18L15.25 18A0.25 0.25 0 0 1 15 17.75L15 17.25A0.25 0.25 0 0 1 15.25 17L15.75 17A0.25 0.25 0 0 0 16 16.75L16 16.25A0.25 0.25 0 0 1 16.25 16L20.75 16A0.25 0.25 0 0 0 21 15.75L21 15.25A0.25 0.25 0 0 1 21.25 15L21.75 15A0.25 0.25 0 0 1 22 15.25L22 15.75A0.25 0.25 0 0 0 22.25 16L23.75 16A0.25 0.25 0 0 0 24 15.75L24 15.25A0.25 0.25 0 0 0 23.75 15L22.25 15A0.25 0.25 0 0 1 22 14.75L22 14.25A0.25 0.25 0 0 1 22.25 14L23.75 14A0.25 0.25 0 0 0 24 13.75L24 13.25A0.25 0.25 0 0 0 23.75 13L22.25 13A0.25 0.25 0 0 1 22 12.75L22 12.25A0.25 0.25 0 0 0 21.75 12L21.25 12A0.25 0.25 0 0 0 21 12.25L21 13.75A0.25 0.25 0 0 1 20.75 14L20.25 14A0.25 0.25 0 0 1 20 13.75L20 13.25A0.25 0.25 0 0 0 19.75 13L19.25 13A0.25 0.25 0 0 0 19 13.25L19 14.75A0.25 0.25 0 0 1 18.75 15L16.25 15A0.25 0.25 0 0 1 16 14.75L16 14.25A0.25 0.25 0 0 0 15.75 14L15.25 14A0.25 0.25 0 0 0 15 14.25L15 14.75A0.25 0.25 0 0 0 15.25 15L15.75 15A0.25 0.25 0 0 1 16 15.25L16 15.75A0.25 0.25 0 0 1 15.75 16L14.25 16A0.25 0.25 0 0 1 14 15.75L14 15.25A0.25 0.25 0 0 0 13.75 15L12.25 15A0.25 0.25 0 0 1 12 14.75L12 13.25A0.25 0.25 0 0 1 12.25 13L12.75 13A0.25 0.25 0 0 1 13 13.25L13 13.75A0.25 0.25 0 0 0 13.25 14L13.75 14A0.25 0.25 0 0 0 14 13.75L14 13.25A0.25 0.25 0 0 0 13.75 13L13.25 13A0.25 0.25 0 0 1 13 12.75L13 11.25A0.25 0.25 0 0 0 12.75 11L12.25 11A0.25 0.25 0 0 0 12 11.25ZM4 12.25L4 12.75A0.25 0.25 0 0 0 4.25 13L4.75 13A0.25 0.25 0 0 0 5 12.75L5 12.25A0.25 0.25 0 0 0 4.75 12L4.25 12A0.25 0.25 0 0 0 4 12.25ZM2 13.25L2 13.75A0.25 0.25 0 0 0 2.25 14L2.75 14A0.25 0.25 0 0 0 3 13.75L3 13.25A0.25 0.25 0 0 0 2.75 13L2.25 13A0.25 0.25 0 0 0 2 13.25ZM13 16.25L13 16.75A0.25 0.25 0 0 0 13.25 17L13.75 17A0.25 0.25 0 0 0 14 16.75L14 16.25A0.25 0.25 0 0 0 13.75 16L13.25 16A0.25 0.25 0 0 0 13 16.25ZM17 17.25L17 19.75A0.25 0.25 0 0 0 17.25 20L19.75 20A0.25 0.25 0 0 0 20 19.75L20 17.25A0.25 0.25 0 0 0 19.75 17L17.25 17A0.25 0.25 0 0 0 17 17.25ZM21 17.25L21 17.75A0.25 0.25 0 0 0 21.25 18L23.75 18A0.25 0.25 0 0 0 24 17.75L24 17.25A0.25 0.25 0 0 0 23.75 17L21.25 17A0.25 0.25 0 0 0 21 17.25ZM18 18.25L18 18.75A0.25 0.25 0 0 0 18.25 19L18.75 19A0.25 0.25 0 0 0 19 18.75L19 18.25A0.25 0.25 0 0 0 18.75 18L18.25 18A0.25 0.25 0 0 0 18 18.25ZM21 19.25L21 21.75A0.25 0.25 0 0 0 21.25 22L21.75 22A0.25 0.25 0 0 0 22 21.75L22 21.25A0.25 0.25 0 0 1 22.25 21L22.75 21A0.25 0.25 0 0 0 23 20.75L23 20.25A0.25 0.25 0 0 1 23.25 20L23.75 20A0.25 0.25 0 0 0 24 19.75L24 19.25A0.25 0.25 0 0 0 23.75 19L21.25 19A0.25 0.25 0 0 0 21 19.25ZM21 23.25L21 23.75A0.25 0.25 0 0 0 21.25 24L21.75 24A0.25 0.25 0 0 0 22 23.75L22 23.25A0.25 0.25 0 0 0 21.75 23L21.25 23A0.25 0.25 0 0 0 21 23.25ZM0 0L7 0L7 7L0 7ZM1 1L1 6L6 6L6 1ZM5 3.5A1.5 1.5 0 0 1 3.5 5A1.5 1.5 0 0 1 2 3.5A1.5 1.5 0 0 1 3.5 2A1.5 1.5 0 0 1 5 3.5ZM18 0L25 0L25 7L18 7ZM19 1L19 6L24 6L24 1ZM23 3.5A1.5 1.5 0 0 1 21.5 5A1.5 1.5 0 0 1 20 3.5A1.5 1.5 0 0 1 21.5 2A1.5 1.5 0 0 1 23 3.5ZM0 18L7 18L7 25L0 25ZM1 19L1 24L6 24L6 19ZM5 21.5A1.5 1.5 0 0 1 3.5 23A1.5 1.5 0 0 1 2 21.5A1.5 1.5 0 0 1 3.5 20A1.5 1.5 0 0 1 5 21.5Z" fill="#000000"/></g></g></svg>
