<?xml version="1.0" encoding="utf-8"?>
<!-- Generator: Adobe Illustrator 28.3.0, SVG Export Plug-In . SVG Version: 6.00 Build 0)  -->
<svg version="1.1" id="Capa_1" xmlns="http://www.w3.org/2000/svg" xmlns:xlink="http://www.w3.org/1999/xlink" x="0px" y="0px"
	 viewBox="0 0 500 500" style="enable-background:new 0 0 500 500;" xml:space="preserve">
<style type="text/css">
	.st0{fill:#FFFFFF;}
</style>
<g>
	<path class="st0" d="M311.31,469.75c-0.44,1.14-0.7,2.41-1.36,3.41c-5.82,8.81-13.78,14.5-24.28,16.5c-2.69,0.51-5.27,0.39-7.96,0
		c-4.76-0.7-7.34-3.75-7.27-8.3c0.05-3.38,0.47-6.93,1.65-10.06c2.14-5.7,4.69-11.29,7.57-16.65c8.37-15.59,17.11-30.98,25.48-46.57
		c7.5-13.99,14.44-28.26,19.45-43.39c1.92-5.82,3.4-11.72,3.99-17.84c0.37-3.8,0.05-7.52-1.42-11.05c-1.96-4.71-5.4-7.2-10.67-7.28
		c-4.49-0.07-8.7,0.97-12.85,2.49c-10.23,3.73-19.7,8.99-28.98,14.57c-16.64,10-33.12,20.27-49.74,30.29
		c-15.16,9.14-30.6,17.77-46.96,24.62c-8.51,3.56-17.19,6.65-26.29,8.3c-8.49,1.55-17.03,1.96-25.49-0.33
		c-6.7-1.82-12.37-5.49-17.15-10.36c-6.01-6.13-7.93-13.84-7.22-22.22c0.69-8.11,3.3-15.7,6.69-23.04
		c6.66-14.4,15.59-27.38,25.09-39.99c14.23-18.86,29.92-36.5,45.62-54.14c16.12-18.11,32.26-36.21,48.08-54.59
		c5.44-6.32,10.08-13.34,14.79-20.25c2.83-4.15,5.1-8.68,5.84-13.81c0.58-4.06-0.84-7.15-4.23-9.35c-4.34-2.83-9.22-3.23-14.21-2.93
		c-12.03,0.72-23.27,4.59-34.39,8.8c-19.17,7.26-37.51,16.38-55.89,25.39c-9.24,4.53-18.53,8.95-27.88,13.24
		c-5.49,2.52-11.26,4.09-17.42,3.75c-5.25-0.29-8.03-2.96-8.45-8.17c-0.39-4.93,0.44-9.62,2.56-14.07
		c3.12-6.54,7.71-11.84,13.74-15.85c1.55-1.03,3.18-2.07,5.79-2.07c-1.02,1.11-1.64,1.8-2.28,2.48c-4.92,5.24-8.62,11.2-10.68,18.12
		c-0.36,1.23-0.64,2.5-0.76,3.77c-0.36,4.02,1.88,5.65,5.54,4c1.56-0.7,3.05-1.58,4.49-2.5c9.23-5.88,18.44-11.77,27.65-17.69
		c24.19-15.54,48.66-30.62,74.08-44.08c19.63-10.39,39.62-19.96,60.84-26.76c9-2.88,18.14-5.18,27.53-6.05
		c7.04-0.65,14.14-0.61,21,1.71c11.07,3.75,17.53,11.59,19.94,22.82c1.91,8.89,0.07,17.47-2.9,25.86
		c-3.57,10.08-8.85,19.28-14.73,28.15c-10.06,15.15-21.73,29.02-33.98,42.41c-22.19,24.25-46.09,46.76-70.16,69.11
		c-16.43,15.26-32.91,30.48-49.13,45.97c-7.05,6.73-13.64,13.97-20.18,21.21c-2.78,3.08-5.04,6.67-7.29,10.18
		c-0.95,1.48-1.4,3.34-1.86,5.08c-0.41,1.54,0.47,2.5,1.98,2.67c0.94,0.11,1.93,0,2.86-0.19c4.38-0.89,8.23-3,11.99-5.29
		c10.11-6.16,19.35-13.51,28.48-20.98c18.35-15.02,36.51-30.27,54.93-45.2c18.6-15.07,37.74-29.42,58.36-41.67
		c11.82-7.03,24.04-13.19,37.24-17.29c6.69-2.08,13.54-3.5,20.5-3.58c11.94-0.15,22.6,3.48,30.98,12.42
		c4.91,5.24,7.13,11.64,7.67,18.67c0.94,12.1-1.74,23.66-5.52,35.01c-5.75,17.26-13.76,33.5-22.55,49.38
		c-16.87,30.46-36.47,59.14-56.69,87.43c-6.61,9.25-13.25,18.48-19.83,27.76c-1.17,1.65-2.27,3.41-3.1,5.25
		c-1.03,2.28-0.05,4.12,2.4,4.52c1.44,0.23,3.02,0.16,4.46-0.15c7.61-1.61,14.26-5.18,20.11-10.27c0.62-0.54,1.23-1.08,1.84-1.62
		C310.96,469.55,311.13,469.65,311.31,469.75z"/>
	<path class="st0" d="M370.89,98.84c-24.57,0.37-44.79-20.27-44.64-44.77c0.17-26.56,22.78-44.72,45.02-44.5
		c23.73,0.24,44.47,20.23,44.31,44.88C415.42,79.63,394.34,99.39,370.89,98.84z"/>
</g>
</svg>
