<?xml version="1.0" encoding="utf-8"?>
<!-- Generator: Adobe Illustrator 28.3.0, SVG Export Plug-In . SVG Version: 6.00 Build 0)  -->
<svg version="1.1" id="Capa_1" xmlns="http://www.w3.org/2000/svg" xmlns:xlink="http://www.w3.org/1999/xlink" x="0px" y="0px"
	 viewBox="0 0 884 279" style="enable-background:new 0 0 884 279;" xml:space="preserve">
<style type="text/css">
	.st0{fill:#ED7422;}
</style>
<g>
	<path class="st0" d="M144.56,261.03c-0.21,0.55-0.34,1.16-0.66,1.65c-2.82,4.26-6.67,7.02-11.75,7.98c-1.3,0.25-2.55,0.19-3.85,0
		c-2.3-0.34-3.55-1.81-3.52-4.02c0.03-1.63,0.23-3.35,0.8-4.87c1.04-2.76,2.27-5.46,3.66-8.06c4.05-7.54,8.28-14.99,12.32-22.53
		c3.63-6.77,6.99-13.67,9.41-20.99c0.93-2.81,1.65-5.67,1.93-8.63c0.18-1.84,0.02-3.64-0.69-5.34c-0.95-2.28-2.61-3.48-5.16-3.52
		c-2.17-0.03-4.21,0.47-6.22,1.2c-4.95,1.81-9.53,4.35-14.02,7.05c-8.05,4.84-16.02,9.8-24.06,14.65
		c-7.33,4.42-14.8,8.6-22.72,11.91c-4.12,1.72-8.32,3.22-12.72,4.02c-4.11,0.75-8.24,0.95-12.33-0.16c-3.24-0.88-5.99-2.65-8.3-5.01
		c-2.91-2.97-3.84-6.69-3.49-10.75c0.33-3.92,1.6-7.59,3.24-11.15c3.22-6.97,7.54-13.25,12.14-19.35
		c6.88-9.13,14.47-17.66,22.07-26.19c7.8-8.76,15.61-17.52,23.26-26.41c2.63-3.06,4.88-6.45,7.15-9.79c1.37-2.01,2.47-4.2,2.82-6.68
		c0.28-1.96-0.41-3.46-2.04-4.52c-2.1-1.37-4.46-1.56-6.87-1.42c-5.82,0.35-11.26,2.22-16.64,4.26
		c-9.28,3.51-18.14,7.92-27.04,12.28c-4.47,2.19-8.97,4.33-13.49,6.41c-2.66,1.22-5.44,1.98-8.43,1.81
		c-2.54-0.14-3.89-1.43-4.09-3.95c-0.19-2.38,0.21-4.65,1.24-6.81c1.51-3.17,3.73-5.73,6.65-7.67c0.75-0.5,1.54-1,2.8-1
		c-0.49,0.54-0.79,0.87-1.1,1.2c-2.38,2.54-4.17,5.42-5.16,8.77c-0.18,0.59-0.31,1.21-0.37,1.82c-0.18,1.95,0.91,2.73,2.68,1.94
		c0.75-0.34,1.47-0.76,2.17-1.21c4.46-2.84,8.92-5.7,13.38-8.56c11.7-7.52,23.54-14.81,35.84-21.32
		c9.49-5.03,19.17-9.66,29.43-12.94c4.35-1.39,8.77-2.51,13.32-2.93c3.4-0.31,6.84-0.3,10.16,0.83c5.35,1.81,8.48,5.61,9.65,11.04
		c0.92,4.3,0.03,8.45-1.4,12.51c-1.73,4.88-4.28,9.33-7.13,13.62c-4.86,7.33-10.51,14.04-16.44,20.52
		c-10.73,11.73-22.3,22.62-33.94,33.43c-7.95,7.38-15.92,14.75-23.77,22.24c-3.41,3.26-6.6,6.76-9.76,10.26
		c-1.35,1.49-2.44,3.22-3.53,4.92c-0.46,0.72-0.68,1.61-0.9,2.46c-0.2,0.74,0.23,1.21,0.96,1.29c0.45,0.05,0.93,0,1.38-0.09
		c2.12-0.43,3.98-1.45,5.8-2.56c4.89-2.98,9.36-6.53,13.78-10.15c8.87-7.27,17.66-14.64,26.57-21.86c9-7.29,18.26-14.23,28.23-20.16
		c5.72-3.4,11.63-6.38,18.01-8.37c3.24-1.01,6.55-1.69,9.91-1.73c5.77-0.07,10.93,1.68,14.99,6.01c2.38,2.53,3.45,5.63,3.71,9.03
		c0.45,5.85-0.84,11.44-2.67,16.94c-2.78,8.35-6.66,16.21-10.91,23.89c-8.16,14.73-17.64,28.61-27.42,42.3
		c-3.2,4.48-6.41,8.94-9.59,13.43c-0.57,0.8-1.1,1.65-1.5,2.54c-0.5,1.1-0.02,1.99,1.16,2.19c0.7,0.11,1.46,0.08,2.16-0.07
		c3.68-0.78,6.9-2.51,9.73-4.97c0.3-0.26,0.59-0.52,0.89-0.79C144.39,260.94,144.47,260.98,144.56,261.03z"/>
	<path class="st0" d="M173.38,81.6c-11.89,0.18-21.67-9.8-21.59-21.66c0.08-12.85,11.02-21.64,21.78-21.53
		c11.48,0.12,21.51,9.79,21.44,21.71C194.92,72.31,184.72,81.87,173.38,81.6z"/>
</g>
<g>
	<path class="st0" d="M532.98,153.65c-8.62,14.43-17.25,28.87-26.07,43.64c-8.81-14.71-17.45-29.12-26.37-44.02
		c-0.42,1.02-0.75,1.52-0.84,2.07c-1.97,12.45-3.9,24.9-5.85,37.35c-0.1,0.63-0.26,1.25-0.36,1.88c-0.47,2.99-0.47,3-3.38,3.01
		c-3.12,0.01-6.23,0.02-9.35-0.01c-0.85-0.01-1.7-0.11-2.82-0.19c4.31-28.15,8.58-56.03,12.93-84.43c0.65,0.89,1.07,1.39,1.41,1.93
		c10.87,17.32,21.72,34.65,32.59,51.97c0.58,0.92,1.23,1.8,2.13,3.1c11.96-19.13,23.69-37.91,35.43-56.69
		c0.15,0.03,0.3,0.07,0.46,0.1c4.28,27.93,8.56,55.86,12.85,83.91c-0.78,0.14-1.23,0.29-1.68,0.29c-3.76,0.02-7.51,0.04-11.27,0
		c-2.02-0.02-2.12-0.13-2.43-2.11c-1.61-10.32-3.2-20.65-4.79-30.97c-0.49-3.15-0.96-6.31-1.48-9.46c-0.07-0.44-0.33-0.85-0.5-1.27
		C533.39,153.71,533.18,153.68,532.98,153.65z"/>
	<path class="st0" d="M714.2,127.77c0,1.19,0,2.21,0,3.24c0,21.1,0,42.19,0,63.29c0,3.26,0,3.27-3.3,3.27c-3.2,0-6.4,0.03-9.59-0.02
		c-2-0.03-2.16-0.24-2.24-2.22c-0.02-0.56-0.01-1.12-0.01-1.68c0-25.81,0-51.62,0-77.43c0-4.28-0.22-3.96,3.84-3.96
		c10.47,0,20.95-0.1,31.42,0.06c9.49,0.14,16.68,4.63,21.43,12.72c7.21,12.29,2.92,28.22-9.71,34.6c-0.56,0.28-1.07,0.65-1.88,1.15
		c6.99,12.1,13.92,24.1,21.08,36.49c-1.08,0.13-1.81,0.28-2.55,0.29c-4.08,0.02-8.16-0.06-12.23,0.04
		c-1.75,0.04-2.74-0.62-3.59-2.13c-6.19-11-12.45-21.95-18.69-32.92c-2.21-3.89-4.42-7.78-6.62-11.67
		c-0.39-0.69-0.75-1.39-1.32-2.46c1.09-0.11,1.91-0.25,2.72-0.27c3.83-0.09,7.67-0.16,11.5-0.23c4.87-0.08,9.64-4.7,9.41-10.42
		c-0.21-5.27-4.26-9.83-9.7-10.03c-6.23-0.23-12.47-0.05-18.7-0.03C715.17,127.44,714.87,127.59,714.2,127.77z"/>
	<path class="st0" d="M851.87,112.27c0.66,2.71,0.59,13.1-0.09,15.12c-6.12,0-12.34,0-18.55,0c-6.14,0-12.28,0-18.62,0
		c-0.15,1.1-0.35,1.94-0.36,2.78c-0.03,4.79-0.02,9.59-0.01,14.38c0,0.48,0.05,0.96,0.09,1.43c0.08,0.84,0.52,1.31,1.39,1.33
		c0.72,0.02,1.44,0.04,2.16,0.04c10.39,0,20.78,0,31.17,0c0.94,0,1.88,0,3.16,0c0.2,5.08,0.14,9.89,0.04,14.94
		c-1.2,0.06-2.12,0.15-3.05,0.15c-10.55,0.01-21.1,0-31.65,0.01c-3.2,0-3.29,0.08-3.31,3.15c-0.02,4.55-0.02,9.11,0.01,13.66
		c0.01,0.94,0.17,1.88,0.29,3.14c1.09,0,2.02,0,2.96,0c10.55,0,21.1,0,31.65,0c0.56,0,1.12,0.02,1.68,0
		c1.01-0.03,1.48,0.47,1.48,1.44c0.01,1.36,0.02,2.72,0.02,4.07c0,2.56,0.03,5.11-0.01,7.67c-0.03,1.7-0.27,1.89-1.96,1.98
		c-0.32,0.02-0.64,0.01-0.96,0.01c-15.66,0-31.33,0-46.99,0c-3.1,0-3.15-0.07-3.16-3.28c-0.01-6.47,0-12.94,0-19.41
		c0-19.65,0-39.3,0-58.95c0-3.66,0.01-3.66,3.7-3.66c15.34,0,30.69,0,46.03,0C849.92,112.27,850.86,112.27,851.87,112.27z"/>
	<path class="st0" d="M611.02,170.22c0,4.79,0,9.26,0,13.72c0,4.44,0.02,8.89-0.01,13.35c-0.97,0.13-1.51,0.27-2.06,0.28
		c-3.6,0.02-7.19,0.04-10.79,0c-2.01-0.02-2.19-0.25-2.28-2.2c-0.03-0.56-0.01-1.12-0.01-1.68c0-25.88,0-51.77,0-77.65
		c0-4.09-0.05-3.76,3.82-3.76c10.47,0,20.94,0.07,31.41,0.01c10.89-0.06,23.2,7.66,26.89,21.1c4.39,15.98-5.16,32.07-21.3,35.94
		c-1.92,0.46-3.94,0.68-5.91,0.71c-5.59,0.09-11.19,0.03-16.78,0.04C613.15,170.07,612.29,170.15,611.02,170.22z M611.2,127.53
		c0,9.18,0,18.06,0,27.12c1.1,0.1,2.04,0.24,2.97,0.25c4.39,0.03,8.78,0.04,13.17,0c1.75-0.02,3.52-0.05,5.24-0.34
		c7.64-1.29,12.07-8.36,11.22-14.89c-0.96-7.4-6.62-12.24-14.14-12.27c-5.27-0.03-10.54-0.01-15.8,0
		C613.08,127.4,612.3,127.47,611.2,127.53z"/>
	<path class="st0" d="M252.16,182.4c1.62,0,2.56,0,3.49,0c10.87,0,21.75,0,32.62,0c0.56,0,1.12,0.03,1.68,0
		c1.15-0.05,1.56,0.56,1.56,1.62c-0.01,3.92,0.03,7.83-0.02,11.75c-0.02,1.54-0.27,1.7-1.89,1.8c-0.4,0.03-0.8,0.01-1.2,0.01
		c-19.59,0-39.17,0-58.76,0c-0.79,0-1.57,0-2.83,0c0.45-1.02,0.7-1.71,1.05-2.35c6.92-12.69,13.85-25.38,20.78-38.07
		c4.9-8.97,9.81-17.94,14.69-26.92c0.4-0.74,0.7-1.55,1.21-2.7c-1.3-0.06-2.22-0.14-3.14-0.14c-10.47-0.01-20.95-0.01-31.42-0.01
		c-0.56,0-1.12-0.03-1.68,0c-1.17,0.07-1.82-0.39-1.82-1.63c0.01-3.92,0.01-7.83,0-11.75c0-1.19,0.55-1.77,1.76-1.73
		c0.64,0.02,1.28-0.01,1.92-0.01c19.11,0,38.21,0,57.32,0c0.85,0,1.7,0,3.03,0c-6.54,11.97-12.85,23.5-19.16,35.04
		C265.03,158.82,258.67,170.31,252.16,182.4z"/>
	<path class="st0" d="M374.81,111.63c14.22,28.5,28.37,56.88,42.71,85.61c-1.11,0.15-1.78,0.31-2.45,0.32c-4,0.02-8-0.05-11.99,0.04
		c-1.62,0.04-2.46-0.62-3.11-2.02c-1.48-3.19-3.12-6.3-4.63-9.47c-0.58-1.22-1.33-1.76-2.76-1.75c-11.99,0.05-23.98,0.06-35.97,0
		c-1.52-0.01-2.3,0.59-2.92,1.89c-1.47,3.1-3.12,6.12-4.59,9.22c-0.69,1.47-1.57,2.19-3.29,2.14c-3.99-0.12-7.99-0.03-11.99-0.04
		c-0.54,0-1.08-0.11-1.63-0.18C332.49,195.6,373.05,113.93,374.81,111.63z M362.13,169.61c0.44,0.08,0.9,0.24,1.35,0.25
		c7.35,0.02,14.69,0.02,22.04,0c0.58,0,1.16-0.23,1.74-0.35c-0.64-2.62-11.35-23.92-12.64-25.26
		C373.03,145.94,362.3,167.66,362.13,169.61z"/>
</g>
</svg>
