<?xml version="1.0" encoding="utf-8"?>
<!-- Generator: Adobe Illustrator 26.0.3, SVG Export Plug-In . SVG Version: 6.00 Build 0)  -->
<svg version="1.0" id="Capa_1" xmlns="http://www.w3.org/2000/svg" xmlns:xlink="http://www.w3.org/1999/xlink" x="0px" y="0px"
	 viewBox="0 0 10.24 10.45" style="enable-background:new 0 0 10.24 10.45;" xml:space="preserve">
<path style="fill:#FFFFFF;" d="M8.83,0.15H1.41c-0.76,0-1.37,0.61-1.37,1.37v7.41c0,0.76,0.61,1.37,1.37,1.37h3.66l0.01-3.63H4.13
	c-0.12,0-0.22-0.1-0.22-0.22l0-1.17c0-0.12,0.1-0.22,0.22-0.22h0.94V3.93c0-1.31,0.8-2.02,1.97-2.02H8c0.12,0,0.22,0.1,0.22,0.22
	v0.99c0,0.12-0.1,0.22-0.22,0.22l-0.59,0c-0.64,0-0.76,0.3-0.76,0.75v0.98h1.4c0.13,0,0.24,0.12,0.22,0.25L8.13,6.47
	c-0.01,0.11-0.11,0.2-0.22,0.2H6.66L6.65,10.3h2.18c0.76,0,1.37-0.61,1.37-1.37V1.52C10.19,0.76,9.58,0.15,8.83,0.15z"/>
<g>
</g>
<g>
</g>
<g>
</g>
<g>
</g>
<g>
</g>
<g>
</g>
<g>
</g>
<g>
</g>
<g>
</g>
<g>
</g>
<g>
</g>
<g>
</g>
<g>
</g>
<g>
</g>
<g>
</g>
</svg>
