<?xml version="1.0" encoding="utf-8"?>
<!-- Generator: Adobe Illustrator 26.0.3, SVG Export Plug-In . SVG Version: 6.00 Build 0)  -->
<svg version="1.0" id="Capa_1" xmlns="http://www.w3.org/2000/svg" xmlns:xlink="http://www.w3.org/1999/xlink" x="0px" y="0px"
	 viewBox="0 0 10.24 10.45" style="enable-background:new 0 0 10.24 10.45;" xml:space="preserve">
<g>
	<path style="fill:#FFFFFF;" d="M10.25,3.09c-0.03-0.55-0.11-0.92-0.24-1.25C9.88,1.5,9.68,1.18,9.42,0.93
		C9.16,0.66,8.85,0.46,8.5,0.33C8.17,0.2,7.8,0.12,7.25,0.09C6.7,0.07,6.52,0.06,5.12,0.06S3.54,0.07,2.99,0.09
		C2.44,0.12,2.07,0.2,1.74,0.33c-0.34,0.13-0.66,0.33-0.91,0.6C0.56,1.18,0.36,1.5,0.23,1.84C0.1,2.17,0.01,2.55-0.01,3.09
		c-0.03,0.55-0.03,0.73-0.03,2.13c0,1.4,0.01,1.58,0.03,2.13C0.01,7.9,0.1,8.28,0.23,8.61c0.13,0.34,0.33,0.66,0.6,0.91
		c0.26,0.26,0.57,0.47,0.91,0.6c0.33,0.13,0.7,0.21,1.25,0.24c0.55,0.03,0.73,0.03,2.13,0.03s1.58-0.01,2.13-0.03
		c0.55-0.03,0.92-0.11,1.25-0.24C9.2,9.85,9.74,9.3,10.01,8.61c0.13-0.33,0.21-0.7,0.24-1.25c0.03-0.55,0.03-0.73,0.03-2.13
		C10.28,3.82,10.28,3.65,10.25,3.09z M9.32,7.31C9.3,7.81,9.22,8.09,9.15,8.27C8.97,8.72,8.62,9.07,8.17,9.25
		C7.98,9.32,7.71,9.4,7.21,9.43C6.66,9.45,6.5,9.46,5.12,9.46c-1.38,0-1.54-0.01-2.09-0.03C2.53,9.4,2.26,9.32,2.08,9.25
		C1.85,9.17,1.65,9.03,1.48,8.86C1.31,8.7,1.18,8.49,1.1,8.27C1.02,8.09,0.94,7.81,0.92,7.31C0.89,6.77,0.89,6.6,0.89,5.22
		c0-1.38,0.01-1.54,0.03-2.09c0.02-0.5,0.11-0.78,0.18-0.96c0.08-0.22,0.21-0.43,0.39-0.59c0.17-0.17,0.37-0.3,0.59-0.39
		c0.18-0.07,0.46-0.15,0.96-0.18C3.58,1,3.74,0.99,5.12,0.99h0C6.5,0.99,6.66,1,7.21,1.02c0.5,0.02,0.78,0.11,0.96,0.18
		c0.22,0.08,0.43,0.21,0.59,0.39c0.17,0.17,0.3,0.37,0.39,0.59C9.22,2.36,9.3,2.63,9.32,3.14c0.02,0.54,0.03,0.71,0.03,2.09
		C9.35,6.6,9.35,6.77,9.32,7.31z"/>
	<path style="fill:#FFFFFF;" d="M5.12,2.57c-1.46,0-2.65,1.19-2.65,2.65s1.19,2.65,2.65,2.65c1.46,0,2.65-1.19,2.65-2.65
		S6.58,2.57,5.12,2.57z M5.12,6.94c-0.95,0-1.72-0.77-1.72-1.72c0-0.95,0.77-1.72,1.72-1.72c0.95,0,1.72,0.77,1.72,1.72
		C6.84,6.17,6.07,6.94,5.12,6.94z"/>
	<path style="fill:#FFFFFF;" d="M8.5,2.47c0,0.34-0.28,0.62-0.62,0.62c-0.34,0-0.62-0.28-0.62-0.62c0-0.34,0.28-0.62,0.62-0.62
		C8.22,1.85,8.5,2.13,8.5,2.47z"/>
</g>
<g>
</g>
<g>
</g>
<g>
</g>
<g>
</g>
<g>
</g>
<g>
</g>
<g>
</g>
<g>
</g>
<g>
</g>
<g>
</g>
<g>
</g>
<g>
</g>
<g>
</g>
<g>
</g>
<g>
</g>
</svg>
