<?xml version="1.0" encoding="utf-8"?>
<!-- Generator: Adobe Illustrator 26.0.3, SVG Export Plug-In . SVG Version: 6.00 Build 0)  -->
<svg version="1.0" id="Capa_1" xmlns="http://www.w3.org/2000/svg" xmlns:xlink="http://www.w3.org/1999/xlink" x="0px" y="0px"
	 viewBox="0 0 10.24 10.45" style="enable-background:new 0 0 10.24 10.45;" xml:space="preserve">
<path style="fill-rule:evenodd;clip-rule:evenodd;fill:#FFFFFF;" d="M8.06,0H2.18C0.98,0,0,1,0,2.23v5.99
	c0,1.23,0.98,2.23,2.18,2.23h5.87c1.21,0,2.18-1,2.18-2.23V2.23C10.24,1,9.26,0,8.06,0z M7.78,6.85c0,0.3-0.24,0.54-0.53,0.54H3
	c-0.29,0-0.53-0.25-0.53-0.54V4.47l2.35,1.26c0.1,0.05,0.2,0.08,0.31,0.08c0.1,0,0.21-0.03,0.31-0.08l2.35-1.26V6.85z M7.78,3.92
	L5.31,5.24C5.25,5.27,5.18,5.29,5.12,5.29c-0.06,0-0.13-0.01-0.19-0.05L2.46,3.92V3.6C2.46,3.3,2.7,3.05,3,3.05h4.25
	c0.29,0,0.53,0.25,0.53,0.54V3.92z"/>
<g>
</g>
<g>
</g>
<g>
</g>
<g>
</g>
<g>
</g>
<g>
</g>
<g>
</g>
<g>
</g>
<g>
</g>
<g>
</g>
<g>
</g>
<g>
</g>
<g>
</g>
<g>
</g>
<g>
</g>
</svg>
