<?xml version="1.0" encoding="utf-8"?>
<!-- Generator: Adobe Illustrator 26.0.3, SVG Export Plug-In . SVG Version: 6.00 Build 0)  -->
<svg version="1.0" id="Capa_1" xmlns="http://www.w3.org/2000/svg" xmlns:xlink="http://www.w3.org/1999/xlink" x="0px" y="0px"
	 viewBox="0 0 10.24 10.45" style="enable-background:new 0 0 10.24 10.45;" xml:space="preserve">
<path style="fill-rule:evenodd;clip-rule:evenodd;fill:#FFFFFF;" d="M8.06,0H2.18C0.98,0,0,1,0,2.23v5.99
	c0,1.23,0.98,2.23,2.18,2.23h5.87c1.21,0,2.18-1,2.18-2.23V2.23C10.24,1,9.26,0,8.06,0z M5.12,2.54c-1.45,0-2.63,1.2-2.63,2.69
	c0,0.62,0.21,1.2,0.56,1.65L2.87,7.8l0.86-0.3c0.4,0.26,0.88,0.41,1.39,0.41c1.45,0,2.63-1.2,2.63-2.69
	C7.75,3.74,6.57,2.54,5.12,2.54z M5.12,8.13c-0.5,0-0.99-0.13-1.42-0.39L2.59,8.13l0.23-1.2c-0.36-0.5-0.55-1.09-0.55-1.7
	c0-1.6,1.28-2.9,2.84-2.9c1.57,0,2.84,1.3,2.84,2.9C7.96,6.82,6.69,8.13,5.12,8.13z M3.75,7.26l0.09,0.05
	c0.39,0.25,0.83,0.38,1.28,0.38c1.34,0,2.42-1.11,2.42-2.47c0-1.36-1.09-2.47-2.42-2.47c-1.34,0-2.42,1.11-2.42,2.47
	c0,0.55,0.18,1.08,0.51,1.52l0.06,0.08L3.15,7.47L3.75,7.26z M3.68,4.11c0,0,0.17-0.3,0.3-0.31C4.12,3.78,4.3,3.78,4.35,3.87
	C4.39,3.96,4.6,4.49,4.6,4.49s0.04,0.09-0.02,0.18C4.53,4.75,4.4,4.88,4.4,4.88s-0.07,0.09,0,0.19c0.07,0.1,0.18,0.27,0.4,0.5
	c0.22,0.23,0.65,0.39,0.65,0.39s0.06,0.01,0.1-0.03C5.59,5.89,5.8,5.62,5.8,5.62s0.07-0.09,0.18-0.04c0.11,0.05,0.6,0.3,0.6,0.3
	S6.64,5.9,6.64,5.99c0,0.09-0.03,0.3-0.11,0.38c-0.07,0.07-0.28,0.3-0.59,0.3C5.63,6.66,4.88,6.4,4.49,6
	c-0.4-0.41-0.75-0.82-0.83-1.19C3.57,4.43,3.58,4.26,3.68,4.11z"/>
<g>
</g>
<g>
</g>
<g>
</g>
<g>
</g>
<g>
</g>
<g>
</g>
<g>
</g>
<g>
</g>
<g>
</g>
<g>
</g>
<g>
</g>
<g>
</g>
<g>
</g>
<g>
</g>
<g>
</g>
</svg>
