<?xml version="1.0" encoding="utf-8"?>
<!-- Generator: Adobe Illustrator 26.0.2, SVG Export Plug-In . SVG Version: 6.00 Build 0)  -->
<svg version="1.1" id="Capa_1" xmlns="http://www.w3.org/2000/svg" xmlns:xlink="http://www.w3.org/1999/xlink" x="0px" y="0px"
	 viewBox="0 0 900 900" style="enable-background:new 0 0 900 900;" xml:space="preserve">
<style type="text/css">
	.st0{fill:#FFFFFF;}
	.st1{fill:#FCD92D;}
</style>
<g>
	<path class="st0" d="M747.7,519.3c-0.8,0.5-1.2,1.3-1.3,2.2c-2.1,11.3-4.3,22.5-6.3,33.8c-0.8,4.6-0.7,4.6,4,4.7
		c31.3,0,62.5,0,93.8,0c9.8,0,9.3-1.3,7.2,9.1c-2.4,12.1-4.7,24.2-7,36.4c-1.1,5.8-1,5.9-7.1,5.9c-32.2,0-64.3,0-96.4,0
		c-5.9,0-5.8,0-7,5.8c-2.2,11.2-4.5,22.5-6.8,33.7c-0.9,4.6-0.9,4.8,3.8,4.8c38.4,0,76.8,0,115.2,0c1.3,0,2.6,0.1,3.8,0
		c2.8-0.2,3.6,0.9,2.9,3.7c-2.1,9.3-4,18.7-6,28c-1.3,6-2.7,11.9-3.7,18c-0.5,2.6-1.8,3.4-4.2,3.3c-1.5,0-3.1,0-4.6,0
		c-60.6,0-121.2,0-181.8,0c-4.5,0-4.8-0.3-3.9-4.9c5.8-29.2,11.7-58.4,17.5-87.7c6.8-34.2,13.6-68.4,20.5-102.6
		c3-15.2,6.1-30.5,9.2-45.7c0.2-0.7,0.5-1.4,0.8-2.1c1.2-0.6,2.5-0.3,3.8-0.3c60.5,0,121,0,181.6,0c1.2,0,2.6-0.4,3.7,0.4
		c0.5,7.1-2.2,13.7-3.4,20.5c-1.8,9.8-3.9,19.6-5.8,29.5c-0.2,1.3-0.6,2.5-1.5,3.4c-0.9,0.8-1.9,0.5-2.9,0.5c-38.4,0-76.7,0-115.1,0
		C749.7,519.8,748.6,520.1,747.7,519.3z"/>
	<path class="st0" d="M567.9,460.9c24.7,0.2,48.8,3.5,71.8,12.8c4.7,1.9,9.3,4.2,13.7,6.7c2.2,1.3,2.5,2.8,1.4,5
		c-7.4,15-14.8,30-22,45c-1.5,3.1-3,3.3-5.9,1.7c-21.6-12.4-45.1-17.3-69.8-16.5c-10.6,0.4-21.1,2.3-30.1,8.7
		c-4.9,3.4-8.2,7.8-8.4,14.2c-0.2,6.9,3,11.4,8.8,14.3c10.9,5.5,22.7,8.5,34.4,11.6c12.2,3.2,24.4,6.6,36.2,11.2
		c13.2,5,24.3,12.9,32.4,24.6c6.9,10,9,21.4,8.3,33.2c-1.9,34.3-20.3,57.2-50.6,71.6c-20.2,9.5-41.7,13.2-63.9,13.5
		c-18.8,0.3-37.5-1-55.8-5.4c-16.8-4-33.1-9.4-48.2-18.1c-4.7-2.7-4.7-2.9-2.2-7.6c7.7-14.4,15.3-28.8,22.9-43.3
		c2.4-4.5,2.4-4.5,7.1-1.8c28.1,16.4,58.4,23.8,90.9,20.8c8-0.7,15.6-2.8,22.1-7.7c10.2-7.5,9.1-20.8-2.1-26.5
		c-11.4-5.8-23.9-8.8-36.2-12.2c-13.4-3.7-26.9-7.3-39.4-13.4c-18-8.8-31.7-21.7-34.7-42.7c-3.3-22.8,1.9-43.7,16.7-61.6
		c16.7-20.2,39.4-29.7,64.3-34.7C542.4,461.8,555.1,460.8,567.9,460.9z"/>
	<path class="st0" d="M438.4,465.9c-1.5,0-3.1,0-4.6,0c-45.9,0-91.9,0-137.8,0c-13.9,0-27.8,0.1-41.7,0c-3,0-4.7,0.9-5.3,4.1
		c-1.5,8.5-3.3,17-4.9,25.5c8.8,4.5,11.8,12.9,14.4,21.5c5,16.5,9.8,33.2,15.3,49.6c4.8,14.4,1.2,27.1-7.8,38.2
		c-16.2,20-33.2,39.3-49.7,59c-8.7,10.5-19.4,17.4-32.9,19.8c-1.4,0.2-2.8,0.3-4.2,0.3c-23.6,0-47.2,0-70.8,0
		c-13.4,0-23.2-7.5-27.1-20.4c-5.5-18-10.9-36.1-16.8-54c-4.4-13.3-1.6-25.2,6.2-36.1c7.2-10.2,15.9-19.2,23.9-28.8
		c9.8-11.7,19.7-23.4,29.6-35c2.6-3,5.7-5.4,8.7-8c0.2-1.3,0.3-2.5,0.6-3.8c1.8-9.1,3.7-18.2,5.5-27.4c0.5-2.6,0.5-4.6-3-4.6
		c-21,0-42.1,0-63.2,0c-2.4,0-3.7,1-4.2,3.5c-1,5.3-2,10.5-3.1,15.8c-7.4,37-14.8,74-22.2,111c-7.4,36.9-14.8,73.8-22.2,110.6
		c-1.4,6.9-1.5,6.9,5.5,6.9c81.7,0,163.3,0,245,0c40.6,0,81.1,0,121.7,0c5.5,0,5.6-0.1,6.8-5.5c3.1-14.5,6.1-28.9,9.1-43.4
		c1-5,0.7-5.5-4.5-5.5c-18,0-36,0-54,0c-20.9,0-41.8,0-62.8,0c-6.5,0-7.8,0.9-6-7.1c2.3-10.6,4.1-21.3,6.1-31.9c1.1-6,1.1-6,7.1-6
		c33,0,66.1-0.1,99.1,0.1c4.2,0,5.9-1.4,6.6-5.4c2.5-13.7,5.2-27.3,7.8-40.9c1.2-5.9,1.2-6-5-6c-32.8,0-65.6,0-98.4,0
		c-4.9,0-5.4-0.5-4.5-5.3c1.9-10,3.9-20,5.8-30c1.3-6.5,1.3-6.5,7.8-6.5c36.9,0,73.8,0,110.6,0c1.5,0,3.1-0.1,4.6,0
		c2.3,0.1,3.5-1,3.9-3.3c0.7-3.8,1.4-7.5,2.2-11.3c2.3-11.4,4.7-22.7,7-34.1C444,466.3,443.6,466,438.4,465.9z"/>
	<path class="st1" d="M132,505c-6.9,5.4-11.7,12.7-17.4,19.3C102,539,89.6,553.9,77,568.6c-4.4,5.2-8.1,10.8-10.3,17.3
		c-2.4,6.8-2.8,13.7-0.7,20.7c5.5,18.9,11.7,37.5,17.5,56.3c3.8,12.2,12,18.8,24.8,19c23.7,0.4,47.5,0.6,71.2-0.1
		c13.2-0.4,24.5-6.5,33-16.5c16.6-19.3,32.9-38.9,49.4-58.4c6.3-7.4,10.8-15.7,12-25.6c0.5-4.2-0.2-8.2-1.4-12.1
		c-5.9-19.3-11.6-38.6-17.9-57.7c-1.7-5.1-4.4-9.5-8.8-12.7c-1.1-0.8-2.4-1.6-1.5-3.4c-5.3-2.8-11-3.7-17-3.6
		c-21.5,0.1-43.1,0-64.6,0c-3.6,0-7.1,0.2-10.6,1c-6.9,1.6-13,5.1-19,8.7C133.4,503,133.1,504.1,132,505z M163.3,538.4
		c14.1-4.8,28.2-5.8,41.8,1.6c12.2,6.6,18.4,17.3,19.2,31c1.1,18.4-6.6,33.5-18.6,46.6c-13.5,14.7-32.3,23.3-50.2,23.7
		c-24.7,0.5-42.9-17.5-41.5-41.7c0.9-15.4,7.5-28.7,17.9-40.1C140.6,550,151,542.6,163.3,538.4z"/>
	<g>
		<path class="st1" d="M646.3,384c0,0,69.7,54,81.6,55.8c11.9,1.9,108.4-1.2,125.7-2.2c17.3-0.9,14.3-1.5,13.4-10.9
			c-0.9-9.3-4.6-35-7.3-42.8c-2.7-7.8-4-11.8-25.3-14.6s-39.6-2.8-39.6-2.8s46.6,8.4,50.5,27.3c4,18.9,2.7,25.1-4,25.4
			s-98.9,3.1-112.3-0.9C715.7,414.4,646.3,384,646.3,384z"/>
		<path class="st1" d="M282.6,384c0,0-69.7,54-81.6,55.8c-11.9,1.9-108.4-1.2-125.7-2.2c-17.3-0.9-14.3-1.5-13.4-10.9
			c0.9-9.3,4.6-35,7.3-42.8s4-11.8,25.3-14.6s39.6-2.8,39.6-2.8s-46.6,8.4-50.5,27.3c-4,18.9-2.7,25.1,4,25.4s99,3.1,112.3-0.9
			C213.1,414.4,282.6,384,282.6,384z"/>
		<path class="st1" d="M563.8,155.8c42.5,3.8,128.9,17.5,138.6,21.8s40.3,51.2,45.6,66.5c6.7,19.4,18.9,57.1,22.8,64.5
			c4,7.4,6.4,11.5-16.4,7.1s-94.4-13.3-151.6-9.3c67.6,4,139.8,18,160.8,22.6c21,4.6,101.1,28.2,101.1,28.2s-15.5-21.7-37.8-35.7
			c-22.2-14-37.8-49-43.8-63.3c-6.1-14.3-35.6-89.3-67.6-103.3c-32-13.9-122.7-19.7-147.7-20.8c-125.4-5.3-155-2.3-206.7,0
			c-25,1.1-115.7,6.8-147.7,20.8c-32,13.9-61.5,89-67.6,103.3c-6.1,14.3-21.6,49.3-43.8,63.3c-22.2,14-37.8,35.7-37.8,35.7
			s80.1-23.6,101.1-28.2s93.2-18.6,160.7-22.6c-57.2-4-128.8,5-151.6,9.3s-20.4,0.3-16.4-7.1s17.3-49.3,22.8-64.5
			c5.5-15.2,35.5-63.8,45.3-68.1c9.7-4.3,96.4-16.4,138.9-20.3C414.5,151.4,479.5,148.4,563.8,155.8z"/>
	</g>
</g>
</svg>
