<?xml version="1.0" encoding="utf-8"?>
<!-- Generator: Adobe Illustrator 26.0.3, SVG Export Plug-In . SVG Version: 6.00 Build 0)  -->
<svg version="1.0" id="Capa_1" xmlns="http://www.w3.org/2000/svg" xmlns:xlink="http://www.w3.org/1999/xlink" x="0px" y="0px"
	 viewBox="0 0 150 84" style="enable-background:new 0 0 150 84;" xml:space="preserve">
<g>
	<path style="fill:#050505;" d="M109,47.98c-0.09,0.05-0.12,0.14-0.14,0.24c-0.23,1.22-0.46,2.44-0.69,3.66
		c-0.09,0.49-0.08,0.5,0.44,0.5c3.38,0,6.77,0,10.15,0c1.06,0,1.01-0.14,0.78,0.98c-0.26,1.31-0.51,2.62-0.76,3.94
		c-0.12,0.63-0.11,0.64-0.77,0.64c-3.48,0-6.96,0-10.44,0c-0.64,0-0.63,0-0.75,0.63c-0.24,1.22-0.49,2.43-0.73,3.65
		c-0.1,0.5-0.09,0.52,0.41,0.52c4.16,0,8.31,0,12.47,0c0.14,0,0.28,0.01,0.41,0c0.3-0.02,0.39,0.1,0.32,0.4
		c-0.23,1.01-0.44,2.02-0.65,3.03c-0.14,0.65-0.29,1.29-0.4,1.94c-0.05,0.28-0.19,0.37-0.45,0.36c-0.17-0.01-0.33,0-0.5,0
		c-6.56,0-13.12,0-19.68,0c-0.49,0-0.52-0.03-0.42-0.53c0.63-3.16,1.27-6.32,1.9-9.49c0.74-3.7,1.48-7.41,2.22-11.11
		c0.33-1.65,0.66-3.3,1-4.94c0.02-0.08,0.06-0.15,0.08-0.23c0.13-0.07,0.27-0.04,0.41-0.04c6.55,0,13.1,0,19.65,0
		c0.13,0,0.28-0.05,0.4,0.04c0.05,0.77-0.24,1.48-0.37,2.22c-0.19,1.07-0.42,2.13-0.63,3.19c-0.03,0.14-0.06,0.27-0.16,0.37
		c-0.09,0.09-0.21,0.05-0.32,0.05c-4.15,0-8.31,0-12.46,0C109.22,48.03,109.1,48.07,109,47.98z"/>
	<path style="fill:#050505;" d="M89.54,41.66c2.67,0.02,5.28,0.38,7.77,1.39c0.51,0.21,1.01,0.45,1.49,0.73
		c0.24,0.14,0.28,0.3,0.15,0.54c-0.8,1.62-1.6,3.24-2.38,4.87c-0.16,0.34-0.33,0.36-0.64,0.18c-2.34-1.34-4.88-1.88-7.55-1.78
		c-1.15,0.04-2.28,0.25-3.26,0.94c-0.53,0.37-0.88,0.85-0.91,1.54c-0.03,0.75,0.32,1.24,0.95,1.55c1.18,0.59,2.45,0.92,3.72,1.25
		c1.32,0.35,2.64,0.72,3.91,1.21c1.43,0.55,2.63,1.39,3.51,2.66c0.75,1.08,0.97,2.31,0.9,3.59c-0.21,3.72-2.19,6.2-5.48,7.75
		c-2.19,1.03-4.51,1.42-6.91,1.46c-2.04,0.03-4.05-0.11-6.04-0.58c-1.82-0.43-3.58-1.01-5.21-1.96c-0.51-0.29-0.51-0.31-0.23-0.83
		c0.83-1.56,1.65-3.12,2.48-4.68C76.07,61,76.07,61,76.58,61.3c3.05,1.78,6.32,2.57,9.84,2.26c0.86-0.08,1.68-0.31,2.39-0.83
		c1.1-0.82,0.99-2.25-0.23-2.87c-1.24-0.63-2.59-0.95-3.92-1.32c-1.45-0.4-2.91-0.79-4.27-1.45c-1.95-0.95-3.43-2.35-3.76-4.62
		c-0.36-2.47,0.21-4.73,1.81-6.66c1.81-2.19,4.26-3.21,6.96-3.76C86.78,41.75,88.15,41.64,89.54,41.66z"/>
	<path style="fill:#050505;" d="M75.53,42.2c-0.17,0-0.33,0-0.5,0c-4.97,0-9.94,0-14.91,0c-1.51,0-3.01,0.01-4.52,0
		c-0.33,0-0.51,0.1-0.57,0.44c-0.16,0.92-0.35,1.84-0.53,2.76c0.95,0.49,1.28,1.39,1.56,2.33c0.54,1.79,1.06,3.59,1.65,5.37
		c0.52,1.56,0.13,2.94-0.84,4.13c-1.75,2.16-3.6,4.25-5.38,6.39c-0.95,1.14-2.1,1.88-3.56,2.15c-0.15,0.03-0.3,0.03-0.45,0.03
		c-2.55,0-5.11,0-7.66,0c-1.45,0-2.51-0.81-2.93-2.21c-0.59-1.95-1.18-3.9-1.82-5.84c-0.47-1.44-0.17-2.73,0.67-3.91
		c0.78-1.1,1.72-2.08,2.59-3.12c1.06-1.27,2.13-2.53,3.2-3.79c0.28-0.33,0.62-0.59,0.94-0.87c0.02-0.14,0.04-0.27,0.06-0.41
		c0.2-0.99,0.4-1.98,0.6-2.96c0.06-0.28,0.06-0.5-0.32-0.5c-2.28,0-4.56,0-6.84,0c-0.26,0-0.4,0.11-0.45,0.38
		c-0.1,0.57-0.22,1.14-0.33,1.71c-0.8,4-1.6,8.01-2.41,12.01c-0.8,3.99-1.6,7.98-2.4,11.97c-0.15,0.75-0.16,0.75,0.59,0.75
		c8.84,0,17.68,0,26.52,0c4.39,0,8.78,0,13.17,0c0.6,0,0.61-0.01,0.73-0.6c0.33-1.57,0.66-3.13,0.99-4.7
		c0.11-0.54,0.08-0.59-0.49-0.59c-1.95,0-3.89,0-5.84,0c-2.26,0-4.53,0-6.79,0c-0.7,0-0.84,0.1-0.65-0.76
		c0.25-1.15,0.44-2.3,0.66-3.46c0.12-0.65,0.12-0.65,0.76-0.65c3.58,0,7.15-0.01,10.73,0.01c0.45,0,0.64-0.15,0.71-0.58
		c0.27-1.48,0.56-2.95,0.85-4.43c0.12-0.64,0.13-0.64-0.54-0.64c-3.55,0-7.1,0-10.65,0c-0.54,0-0.58-0.05-0.48-0.58
		c0.2-1.08,0.42-2.17,0.63-3.25c0.14-0.71,0.14-0.71,0.85-0.71c3.99,0,7.98,0,11.97,0c0.17,0,0.33-0.01,0.5,0
		c0.25,0.01,0.38-0.11,0.43-0.36c0.07-0.41,0.15-0.81,0.24-1.22c0.25-1.23,0.51-2.46,0.75-3.69C76.13,42.24,76.09,42.21,75.53,42.2z
		"/>
	<path style="fill:#FCD92D;" d="M42.35,46.43c-0.75,0.59-1.27,1.38-1.88,2.09c-1.37,1.59-2.71,3.2-4.07,4.8
		c-0.48,0.56-0.87,1.17-1.12,1.87c-0.26,0.74-0.3,1.48-0.08,2.24c0.59,2.04,1.26,4.06,1.89,6.09c0.41,1.32,1.3,2.04,2.68,2.06
		c2.57,0.05,5.14,0.07,7.71-0.01c1.43-0.04,2.65-0.71,3.58-1.78c1.8-2.09,3.57-4.21,5.35-6.32c0.68-0.8,1.17-1.7,1.29-2.77
		c0.05-0.45-0.03-0.88-0.15-1.31c-0.63-2.09-1.26-4.18-1.93-6.25c-0.18-0.55-0.47-1.03-0.95-1.37c-0.12-0.09-0.26-0.18-0.16-0.37
		c-0.58-0.31-1.19-0.4-1.84-0.39c-2.33,0.01-4.66,0-7,0c-0.39,0-0.77,0.02-1.15,0.11c-0.75,0.18-1.41,0.55-2.06,0.94
		C42.51,46.22,42.48,46.34,42.35,46.43z M45.75,50.05c1.53-0.52,3.06-0.62,4.53,0.18c1.32,0.72,1.99,1.87,2.07,3.36
		c0.11,1.99-0.71,3.62-2.02,5.04c-1.46,1.59-3.49,2.53-5.43,2.56c-2.67,0.05-4.64-1.89-4.49-4.51c0.1-1.67,0.81-3.11,1.93-4.34
		C43.29,51.3,44.41,50.5,45.75,50.05z"/>
	<g>
		<path d="M98.02,33.34c0,0,7.55,5.84,8.83,6.04c1.29,0.2,11.73-0.13,13.61-0.23c1.88-0.1,1.55-0.17,1.45-1.17
			c-0.1-1.01-0.49-3.79-0.79-4.63c-0.3-0.84-0.43-1.28-2.74-1.58c-2.31-0.3-4.28-0.3-4.28-0.3s5.04,0.91,5.47,2.95
			c0.43,2.05,0.3,2.72-0.43,2.75c-0.72,0.03-10.71,0.34-12.16-0.1C105.54,36.63,98.02,33.34,98.02,33.34z"/>
		<path style="fill:#FCD92D;" d="M58.65,33.34c0,0-7.55,5.84-8.83,6.04c-1.29,0.2-11.73-0.13-13.61-0.23
			c-1.88-0.1-1.55-0.17-1.45-1.17c0.1-1.01,0.49-3.79,0.79-4.63c0.3-0.84,0.43-1.28,2.74-1.58c2.31-0.3,4.28-0.3,4.28-0.3
			s-5.04,0.91-5.47,2.95c-0.43,2.05-0.3,2.72,0.43,2.75c0.72,0.03,10.71,0.34,12.16-0.1C51.14,36.63,58.65,33.34,58.65,33.34z"/>
		<path d="M89.09,8.63c4.6,0.41,13.95,1.89,15,2.36c1.05,0.47,4.37,5.55,4.93,7.2c0.72,2.1,2.04,6.18,2.47,6.98
			c0.43,0.81,0.69,1.24-1.78,0.77c-2.47-0.47-10.22-1.44-16.41-1.01c7.32,0.44,15.13,1.95,17.4,2.45c2.27,0.5,10.94,3.05,10.94,3.05
			s-1.68-2.35-4.09-3.86c-2.41-1.51-4.09-5.3-4.75-6.85c-0.66-1.54-3.86-9.67-7.32-11.18c-3.46-1.51-13.28-2.14-15.98-2.25
			c-13.58-0.57-16.78-0.25-22.37,0c-2.7,0.12-12.52,0.74-15.98,2.25c-3.46,1.51-6.66,9.63-7.32,11.18
			c-0.66,1.54-2.34,5.34-4.75,6.85c-2.41,1.51-4.09,3.86-4.09,3.86s8.67-2.55,10.94-3.05c2.27-0.5,10.08-2.01,17.4-2.45
			c-6.2-0.44-13.94,0.54-16.41,1.01c-2.47,0.47-2.21,0.03-1.78-0.77c0.43-0.81,1.88-5.34,2.47-6.98c0.59-1.64,3.85-6.9,4.9-7.37
			c1.05-0.47,10.43-1.78,15.04-2.19C72.94,8.15,79.97,7.83,89.09,8.63z"/>
	</g>
	<g>
		<path d="M30.88,73.35l-0.09,0.48h0.94l-0.09,0.47H30.7l-0.15,0.74h-0.6l0.42-2.16h1.66l-0.09,0.47H30.88z"/>
		<path d="M33.35,74.62h-0.9l-0.25,0.42h-0.63l1.36-2.16h0.59l0.51,2.16h-0.6L33.35,74.62z M33.25,74.17l-0.14-0.7l-0.41,0.7H33.25z
			"/>
		<path d="M36.27,74.1c0.05,0.07,0.07,0.16,0.07,0.26c0,0.22-0.09,0.4-0.27,0.51c-0.18,0.12-0.41,0.17-0.7,0.17H34.2l0.42-2.16h1.07
			c0.24,0,0.42,0.04,0.55,0.13c0.13,0.09,0.19,0.21,0.19,0.38c0,0.13-0.03,0.23-0.1,0.33c-0.07,0.09-0.16,0.16-0.28,0.21
			C36.15,73.97,36.22,74.02,36.27,74.1z M35.65,74.53c0.06-0.04,0.09-0.11,0.09-0.19c0-0.06-0.02-0.11-0.07-0.14
			c-0.04-0.03-0.11-0.04-0.18-0.04h-0.53l-0.08,0.44h0.52C35.51,74.6,35.59,74.58,35.65,74.53z M35.13,73.32l-0.08,0.42h0.43
			c0.11,0,0.19-0.02,0.24-0.06c0.06-0.04,0.08-0.1,0.08-0.18c0-0.11-0.08-0.17-0.25-0.17H35.13z"/>
		<path d="M38.57,74.08c-0.1,0.14-0.25,0.25-0.43,0.31l0.36,0.65h-0.63l-0.32-0.58h-0.3l-0.11,0.58h-0.6l0.42-2.16h0.91
			c0.27,0,0.48,0.06,0.63,0.18c0.15,0.12,0.22,0.29,0.22,0.51C38.72,73.76,38.67,73.93,38.57,74.08z M38.03,73.42
			c-0.06-0.04-0.14-0.07-0.25-0.07h-0.32l-0.13,0.63h0.36c0.13,0,0.24-0.03,0.31-0.1c0.07-0.06,0.11-0.15,0.11-0.27
			C38.12,73.54,38.09,73.47,38.03,73.42z"/>
		<path d="M39.21,72.88h0.6l-0.42,2.16h-0.6L39.21,72.88z"/>
		<path d="M40.4,74.96c-0.16-0.08-0.29-0.19-0.37-0.34c-0.09-0.14-0.13-0.31-0.13-0.5c0-0.25,0.06-0.47,0.17-0.67
			c0.11-0.2,0.27-0.35,0.47-0.46c0.2-0.11,0.43-0.17,0.69-0.17c0.2,0,0.37,0.04,0.52,0.11c0.15,0.07,0.27,0.17,0.34,0.3l-0.43,0.35
			c-0.1-0.17-0.26-0.25-0.47-0.25c-0.14,0-0.25,0.03-0.36,0.1c-0.1,0.06-0.18,0.15-0.24,0.27c-0.06,0.11-0.09,0.24-0.09,0.38
			c0,0.15,0.05,0.26,0.14,0.35c0.09,0.09,0.22,0.13,0.38,0.13c0.2,0,0.38-0.08,0.52-0.25l0.36,0.36c-0.12,0.14-0.25,0.24-0.4,0.31
			c-0.15,0.06-0.33,0.09-0.53,0.09C40.75,75.08,40.57,75.04,40.4,74.96z"/>
		<path d="M43.54,74.62h-0.9l-0.25,0.42h-0.63l1.36-2.16h0.59l0.51,2.16h-0.6L43.54,74.62z M43.45,74.17l-0.14-0.7l-0.41,0.7H43.45z
			"/>
		<path d="M44.96,74.96c-0.16-0.08-0.29-0.19-0.37-0.34c-0.09-0.14-0.13-0.31-0.13-0.5c0-0.25,0.06-0.47,0.17-0.67
			c0.11-0.2,0.27-0.35,0.47-0.46c0.2-0.11,0.43-0.17,0.69-0.17c0.2,0,0.37,0.04,0.52,0.11c0.15,0.07,0.27,0.17,0.34,0.3l-0.43,0.35
			c-0.1-0.17-0.26-0.25-0.47-0.25c-0.14,0-0.25,0.03-0.36,0.1c-0.1,0.06-0.18,0.15-0.24,0.27c-0.06,0.11-0.09,0.24-0.09,0.38
			c0,0.15,0.05,0.26,0.14,0.35c0.09,0.09,0.22,0.13,0.38,0.13c0.2,0,0.38-0.08,0.52-0.25l0.36,0.36c-0.12,0.14-0.25,0.24-0.4,0.31
			c-0.15,0.06-0.33,0.09-0.53,0.09C45.31,75.08,45.13,75.04,44.96,74.96z"/>
		<path d="M47.03,72.88h0.6l-0.42,2.16h-0.6L47.03,72.88z"/>
		<path d="M48.22,74.96c-0.16-0.08-0.28-0.19-0.37-0.34c-0.09-0.14-0.13-0.31-0.13-0.49c0-0.25,0.06-0.47,0.17-0.67
			c0.11-0.2,0.27-0.35,0.47-0.46c0.2-0.11,0.43-0.17,0.69-0.17c0.21,0,0.4,0.04,0.56,0.12c0.16,0.08,0.28,0.19,0.37,0.34
			c0.09,0.14,0.13,0.31,0.13,0.49c0,0.25-0.06,0.47-0.17,0.67c-0.11,0.2-0.27,0.35-0.47,0.46c-0.2,0.11-0.43,0.17-0.69,0.17
			C48.57,75.08,48.38,75.04,48.22,74.96z M49.19,74.47c0.1-0.07,0.18-0.16,0.23-0.27c0.05-0.11,0.08-0.24,0.08-0.38
			c0-0.15-0.04-0.26-0.13-0.35c-0.09-0.09-0.21-0.13-0.37-0.13c-0.13,0-0.25,0.03-0.35,0.1c-0.1,0.07-0.18,0.16-0.23,0.27
			c-0.05,0.11-0.08,0.24-0.08,0.38c0,0.15,0.04,0.26,0.13,0.35c0.09,0.09,0.21,0.13,0.37,0.13C48.97,74.58,49.09,74.54,49.19,74.47z
			 M49.32,72.23h0.59l-0.62,0.47h-0.43L49.32,72.23z"/>
		<path d="M52.65,72.88l-0.42,2.16h-0.49l-0.7-1.19l-0.23,1.19h-0.59l0.42-2.16h0.49l0.7,1.18l0.23-1.18H52.65z"/>
		<path d="M54.82,74.27l-0.15,0.77h-0.6l0.15-0.78l-0.54-1.38h0.6l0.33,0.86l0.68-0.86h0.61L54.82,74.27z"/>
		<path d="M56.95,72.88h0.92c0.22,0,0.41,0.04,0.57,0.11c0.16,0.07,0.28,0.18,0.37,0.32c0.09,0.14,0.13,0.3,0.13,0.48
			c0,0.25-0.06,0.47-0.17,0.66c-0.11,0.19-0.27,0.34-0.47,0.44c-0.2,0.1-0.43,0.15-0.69,0.15h-1.09L56.95,72.88z M57.63,74.55
			c0.15,0,0.27-0.03,0.38-0.09c0.11-0.06,0.19-0.15,0.24-0.26s0.08-0.24,0.08-0.38c0-0.15-0.04-0.26-0.13-0.34
			c-0.09-0.08-0.22-0.12-0.39-0.12h-0.35l-0.23,1.19H57.63z"/>
		<path d="M59.45,72.88h0.6l-0.42,2.16h-0.6L59.45,72.88z"/>
		<path d="M60.35,75.02c-0.16-0.04-0.29-0.1-0.39-0.17l0.24-0.46c0.11,0.07,0.22,0.12,0.34,0.16c0.12,0.04,0.24,0.05,0.36,0.05
			c0.12,0,0.2-0.02,0.27-0.05c0.06-0.03,0.1-0.08,0.1-0.14c0-0.05-0.03-0.09-0.09-0.12c-0.06-0.03-0.15-0.06-0.27-0.09
			c-0.14-0.04-0.25-0.07-0.34-0.11c-0.09-0.04-0.17-0.1-0.24-0.17c-0.07-0.08-0.1-0.18-0.1-0.31c0-0.15,0.04-0.29,0.12-0.41
			c0.08-0.12,0.2-0.21,0.36-0.27c0.15-0.06,0.33-0.1,0.54-0.1c0.15,0,0.29,0.02,0.42,0.05c0.13,0.03,0.24,0.08,0.34,0.14l-0.22,0.45
			c-0.08-0.05-0.17-0.09-0.27-0.12s-0.2-0.04-0.31-0.04c-0.12,0-0.21,0.02-0.28,0.06c-0.07,0.04-0.1,0.09-0.1,0.15
			c0,0.05,0.03,0.09,0.09,0.12c0.06,0.03,0.15,0.06,0.27,0.09c0.14,0.04,0.25,0.07,0.34,0.11c0.09,0.04,0.17,0.09,0.23,0.17
			c0.06,0.08,0.1,0.18,0.1,0.3c0,0.15-0.04,0.29-0.13,0.4c-0.08,0.12-0.2,0.21-0.36,0.27c-0.15,0.06-0.33,0.1-0.54,0.1
			C60.67,75.08,60.51,75.06,60.35,75.02z"/>
		<path d="M62.77,73.36h-0.65l0.1-0.49h1.9l-0.1,0.49h-0.65l-0.33,1.68h-0.6L62.77,73.36z"/>
		<path d="M65.95,74.08c-0.1,0.14-0.25,0.25-0.43,0.31l0.36,0.65h-0.63l-0.32-0.58h-0.3l-0.11,0.58h-0.6l0.42-2.16h0.91
			c0.27,0,0.48,0.06,0.63,0.18c0.15,0.12,0.22,0.29,0.22,0.51C66.11,73.76,66.06,73.93,65.95,74.08z M65.41,73.42
			c-0.06-0.04-0.14-0.07-0.25-0.07h-0.32l-0.13,0.63h0.36c0.13,0,0.24-0.03,0.31-0.1c0.07-0.06,0.11-0.15,0.11-0.27
			C65.5,73.54,65.47,73.47,65.41,73.42z"/>
		<path d="M66.59,72.88h0.6l-0.42,2.16h-0.6L66.59,72.88z"/>
		<path d="M69.26,74.1c0.05,0.07,0.07,0.16,0.07,0.26c0,0.22-0.09,0.4-0.27,0.51c-0.18,0.12-0.41,0.17-0.7,0.17h-1.17l0.42-2.16
			h1.07c0.24,0,0.42,0.04,0.55,0.13c0.13,0.09,0.19,0.21,0.19,0.38c0,0.13-0.03,0.23-0.1,0.33c-0.07,0.09-0.16,0.16-0.28,0.21
			C69.14,73.97,69.21,74.02,69.26,74.1z M68.65,74.53c0.06-0.04,0.09-0.11,0.09-0.19c0-0.06-0.02-0.11-0.07-0.14
			c-0.04-0.03-0.11-0.04-0.18-0.04h-0.53l-0.08,0.44h0.52C68.5,74.6,68.59,74.58,68.65,74.53z M68.12,73.32l-0.08,0.42h0.43
			c0.11,0,0.19-0.02,0.24-0.06s0.08-0.1,0.08-0.18c0-0.11-0.08-0.17-0.25-0.17H68.12z"/>
		<path d="M70.09,74.99c-0.13-0.06-0.24-0.15-0.31-0.27c-0.07-0.12-0.11-0.26-0.11-0.41c0-0.07,0.01-0.14,0.02-0.23l0.24-1.2h0.6
			l-0.23,1.19c-0.01,0.06-0.02,0.12-0.02,0.17c0,0.23,0.12,0.34,0.35,0.34c0.13,0,0.23-0.04,0.3-0.12c0.07-0.08,0.13-0.21,0.17-0.39
			l0.23-1.19h0.59l-0.24,1.23c-0.13,0.65-0.5,0.98-1.13,0.98C70.38,75.08,70.22,75.05,70.09,74.99z"/>
		<path d="M72.51,74.96c-0.16-0.08-0.29-0.19-0.37-0.34S72,74.32,72,74.13c0-0.25,0.06-0.47,0.17-0.67c0.11-0.2,0.27-0.35,0.47-0.46
			c0.2-0.11,0.43-0.17,0.69-0.17c0.2,0,0.37,0.04,0.52,0.11c0.15,0.07,0.27,0.17,0.34,0.3l-0.43,0.35c-0.1-0.17-0.26-0.25-0.47-0.25
			c-0.14,0-0.25,0.03-0.36,0.1c-0.1,0.06-0.18,0.15-0.24,0.27c-0.06,0.11-0.09,0.24-0.09,0.38c0,0.15,0.05,0.26,0.14,0.35
			c0.09,0.09,0.22,0.13,0.38,0.13c0.2,0,0.38-0.08,0.52-0.25L74,74.68c-0.12,0.14-0.25,0.24-0.4,0.31
			c-0.15,0.06-0.33,0.09-0.53,0.09C72.86,75.08,72.67,75.04,72.51,74.96z"/>
		<path d="M74.58,72.88h0.6l-0.42,2.16h-0.6L74.58,72.88z"/>
		<path d="M75.77,74.96c-0.16-0.08-0.28-0.19-0.37-0.34c-0.09-0.14-0.13-0.31-0.13-0.49c0-0.25,0.06-0.47,0.17-0.67
			c0.11-0.2,0.27-0.35,0.47-0.46c0.2-0.11,0.43-0.17,0.69-0.17c0.21,0,0.4,0.04,0.56,0.12c0.16,0.08,0.28,0.19,0.37,0.34
			c0.09,0.14,0.13,0.31,0.13,0.49c0,0.25-0.06,0.47-0.17,0.67c-0.11,0.2-0.27,0.35-0.47,0.46c-0.2,0.11-0.43,0.17-0.69,0.17
			C76.11,75.08,75.93,75.04,75.77,74.96z M76.73,74.47c0.1-0.07,0.18-0.16,0.23-0.27c0.05-0.11,0.08-0.24,0.08-0.38
			c0-0.15-0.04-0.26-0.13-0.35c-0.09-0.09-0.21-0.13-0.37-0.13c-0.13,0-0.25,0.03-0.35,0.1c-0.1,0.07-0.18,0.16-0.23,0.27
			c-0.05,0.11-0.08,0.24-0.08,0.38c0,0.15,0.04,0.26,0.13,0.35c0.09,0.09,0.21,0.13,0.37,0.13C76.51,74.58,76.63,74.54,76.73,74.47z
			 M76.86,72.23h0.59l-0.62,0.47H76.4L76.86,72.23z"/>
		<path d="M80.19,72.88l-0.43,2.16h-0.49l-0.7-1.19l-0.23,1.19h-0.59l0.42-2.16h0.49l0.7,1.18l0.23-1.18H80.19z"/>
		<path d="M81.5,72.88h0.92c0.22,0,0.41,0.04,0.57,0.11c0.16,0.07,0.28,0.18,0.37,0.32c0.09,0.14,0.13,0.3,0.13,0.48
			c0,0.25-0.06,0.47-0.17,0.66c-0.11,0.19-0.27,0.34-0.47,0.44c-0.2,0.1-0.43,0.15-0.69,0.15h-1.09L81.5,72.88z M82.18,74.55
			c0.15,0,0.27-0.03,0.38-0.09c0.11-0.06,0.19-0.15,0.24-0.26s0.08-0.24,0.08-0.38c0-0.15-0.04-0.26-0.13-0.34
			c-0.09-0.08-0.22-0.12-0.39-0.12h-0.35l-0.23,1.19H82.18z"/>
		<path d="M84.51,73.35l-0.07,0.36h0.94l-0.09,0.46h-0.95l-0.08,0.4h1.11l-0.1,0.47h-1.7l0.42-2.16h1.66l-0.09,0.47H84.51z"/>
		<path d="M88.47,73.06c0.15,0.12,0.22,0.29,0.22,0.51c0,0.18-0.04,0.34-0.13,0.48c-0.09,0.14-0.21,0.24-0.37,0.32
			c-0.16,0.07-0.34,0.11-0.55,0.11h-0.43l-0.11,0.57h-0.6l0.42-2.16h0.9C88.11,72.88,88.32,72.94,88.47,73.06z M87.98,73.9
			c0.07-0.06,0.11-0.15,0.11-0.27c0-0.09-0.03-0.16-0.09-0.2c-0.06-0.04-0.14-0.07-0.25-0.07h-0.32l-0.12,0.63h0.36
			C87.8,73.99,87.91,73.96,87.98,73.9z"/>
		<path d="M89.64,73.35l-0.07,0.36h0.94l-0.09,0.46h-0.95l-0.08,0.4h1.11l-0.1,0.47h-1.7l0.42-2.16h1.66l-0.09,0.47H89.64z"/>
		<path d="M92.79,74.08c-0.1,0.14-0.25,0.25-0.43,0.31l0.36,0.65h-0.63l-0.32-0.58h-0.3l-0.11,0.58h-0.6l0.42-2.16h0.91
			c0.27,0,0.48,0.06,0.63,0.18c0.15,0.12,0.22,0.29,0.22,0.51C92.94,73.76,92.89,73.93,92.79,74.08z M92.25,73.42
			c-0.06-0.04-0.14-0.07-0.25-0.07h-0.32l-0.13,0.63h0.36c0.13,0,0.24-0.03,0.31-0.1c0.07-0.06,0.11-0.15,0.11-0.27
			C92.34,73.54,92.31,73.47,92.25,73.42z"/>
		<path d="M95.44,72.88l-0.42,2.16h-0.49l-0.7-1.19l-0.23,1.19H93l0.42-2.16h0.49l0.7,1.18l0.23-1.18H95.44z"/>
		<path d="M96.03,74.96c-0.16-0.08-0.28-0.19-0.37-0.34c-0.09-0.14-0.13-0.31-0.13-0.49c0-0.25,0.06-0.47,0.17-0.67
			c0.11-0.2,0.27-0.35,0.47-0.46c0.2-0.11,0.43-0.17,0.69-0.17c0.21,0,0.4,0.04,0.56,0.12c0.16,0.08,0.28,0.19,0.37,0.34
			c0.09,0.14,0.13,0.31,0.13,0.49c0,0.25-0.06,0.47-0.17,0.67c-0.11,0.2-0.27,0.35-0.47,0.46c-0.2,0.11-0.43,0.17-0.69,0.17
			C96.38,75.08,96.19,75.04,96.03,74.96z M97,74.47c0.1-0.07,0.18-0.16,0.23-0.27c0.05-0.11,0.08-0.24,0.08-0.38
			c0-0.15-0.04-0.26-0.13-0.35c-0.09-0.09-0.21-0.13-0.37-0.13c-0.13,0-0.25,0.03-0.35,0.1c-0.1,0.07-0.18,0.16-0.23,0.27
			c-0.05,0.11-0.08,0.24-0.08,0.38c0,0.15,0.04,0.26,0.13,0.35c0.09,0.09,0.21,0.13,0.37,0.13C96.78,74.58,96.9,74.54,97,74.47z"/>
		<path d="M98.31,75.02c-0.16-0.04-0.29-0.1-0.39-0.17l0.24-0.46c0.11,0.07,0.22,0.12,0.34,0.16c0.12,0.04,0.24,0.05,0.36,0.05
			c0.12,0,0.2-0.02,0.27-0.05c0.06-0.03,0.1-0.08,0.1-0.14c0-0.05-0.03-0.09-0.09-0.12c-0.06-0.03-0.15-0.06-0.27-0.09
			c-0.14-0.04-0.25-0.07-0.34-0.11c-0.09-0.04-0.17-0.1-0.24-0.17c-0.07-0.08-0.1-0.18-0.1-0.31c0-0.15,0.04-0.29,0.12-0.41
			s0.2-0.21,0.36-0.27s0.33-0.1,0.54-0.1c0.15,0,0.29,0.02,0.42,0.05c0.13,0.03,0.24,0.08,0.34,0.14l-0.22,0.45
			c-0.08-0.05-0.17-0.09-0.27-0.12s-0.2-0.04-0.31-0.04c-0.12,0-0.21,0.02-0.28,0.06c-0.07,0.04-0.1,0.09-0.1,0.15
			c0,0.05,0.03,0.09,0.09,0.12c0.06,0.03,0.15,0.06,0.27,0.09c0.14,0.04,0.25,0.07,0.34,0.11c0.09,0.04,0.17,0.09,0.23,0.17
			c0.06,0.08,0.1,0.18,0.1,0.3c0,0.15-0.04,0.29-0.13,0.4c-0.08,0.12-0.2,0.21-0.36,0.27c-0.15,0.06-0.33,0.1-0.54,0.1
			C98.63,75.08,98.46,75.06,98.31,75.02z"/>
		<path d="M102.15,74.27L102,75.04h-0.6l0.15-0.78l-0.54-1.38h0.6l0.33,0.86l0.68-0.86h0.61L102.15,74.27z"/>
		<path d="M104.63,73.36h-0.65l0.1-0.49h1.9l-0.1,0.49h-0.65l-0.33,1.68h-0.6L104.63,73.36z"/>
		<path d="M106.3,74.99c-0.13-0.06-0.24-0.15-0.31-0.27c-0.07-0.12-0.11-0.26-0.11-0.41c0-0.07,0.01-0.14,0.02-0.23l0.24-1.2h0.6
			l-0.23,1.19c-0.01,0.06-0.02,0.12-0.02,0.17c0,0.23,0.12,0.34,0.35,0.34c0.13,0,0.23-0.04,0.3-0.12c0.07-0.08,0.13-0.21,0.17-0.39
			l0.23-1.19h0.59l-0.24,1.23c-0.13,0.65-0.5,0.98-1.13,0.98C106.59,75.08,106.43,75.05,106.3,74.99z"/>
		<path d="M109.05,73.35l-0.07,0.36h0.94l-0.09,0.46h-0.95l-0.08,0.4h1.11l-0.1,0.47h-1.7l0.42-2.16h1.66l-0.09,0.47H109.05z"/>
		<path d="M112.2,74.08c-0.1,0.14-0.25,0.25-0.43,0.31l0.36,0.65h-0.63l-0.32-0.58h-0.3l-0.11,0.58h-0.6l0.42-2.16h0.91
			c0.27,0,0.48,0.06,0.63,0.18c0.15,0.12,0.22,0.29,0.22,0.51C112.36,73.76,112.3,73.93,112.2,74.08z M111.66,73.42
			c-0.06-0.04-0.14-0.07-0.25-0.07h-0.32l-0.13,0.63h0.36c0.13,0,0.24-0.03,0.31-0.1c0.07-0.06,0.11-0.15,0.11-0.27
			C111.75,73.54,111.72,73.47,111.66,73.42z"/>
		<path d="M113.01,74.96c-0.16-0.08-0.29-0.19-0.37-0.34c-0.09-0.14-0.13-0.31-0.13-0.5c0-0.25,0.06-0.47,0.17-0.67
			c0.11-0.2,0.27-0.35,0.47-0.46c0.2-0.11,0.43-0.17,0.69-0.17c0.2,0,0.37,0.04,0.52,0.11c0.15,0.07,0.27,0.17,0.34,0.3l-0.43,0.35
			c-0.1-0.17-0.26-0.25-0.47-0.25c-0.14,0-0.25,0.03-0.36,0.1c-0.1,0.06-0.18,0.15-0.24,0.27c-0.06,0.11-0.09,0.24-0.09,0.38
			c0,0.15,0.05,0.26,0.14,0.35c0.09,0.09,0.22,0.13,0.38,0.13c0.2,0,0.38-0.08,0.52-0.25l0.36,0.36c-0.12,0.14-0.25,0.24-0.4,0.31
			c-0.15,0.06-0.33,0.09-0.53,0.09C113.36,75.08,113.17,75.04,113.01,74.96z"/>
		<path d="M116.15,74.62h-0.9L115,75.04h-0.63l1.36-2.16h0.59l0.51,2.16h-0.6L116.15,74.62z M116.06,74.17l-0.14-0.7l-0.41,0.7
			H116.06z"/>
		<path d="M117.29,75.02c-0.16-0.04-0.29-0.1-0.39-0.17l0.24-0.46c0.11,0.07,0.22,0.12,0.34,0.16c0.12,0.04,0.24,0.05,0.36,0.05
			c0.12,0,0.2-0.02,0.27-0.05c0.06-0.03,0.1-0.08,0.1-0.14c0-0.05-0.03-0.09-0.09-0.12c-0.06-0.03-0.15-0.06-0.27-0.09
			c-0.14-0.04-0.25-0.07-0.34-0.11c-0.09-0.04-0.17-0.1-0.24-0.17c-0.07-0.08-0.1-0.18-0.1-0.31c0-0.15,0.04-0.29,0.12-0.41
			c0.08-0.12,0.2-0.21,0.36-0.27c0.15-0.06,0.33-0.1,0.54-0.1c0.15,0,0.29,0.02,0.43,0.05c0.13,0.03,0.24,0.08,0.34,0.14l-0.22,0.45
			c-0.08-0.05-0.17-0.09-0.27-0.12s-0.2-0.04-0.31-0.04c-0.12,0-0.21,0.02-0.28,0.06c-0.07,0.04-0.1,0.09-0.1,0.15
			c0,0.05,0.03,0.09,0.09,0.12s0.15,0.06,0.27,0.09c0.14,0.04,0.25,0.07,0.34,0.11c0.09,0.04,0.17,0.09,0.23,0.17
			c0.06,0.08,0.1,0.18,0.1,0.3c0,0.15-0.04,0.29-0.13,0.4c-0.08,0.12-0.2,0.21-0.36,0.27c-0.15,0.06-0.33,0.1-0.54,0.1
			C117.62,75.08,117.45,75.06,117.29,75.02z"/>
	</g>
</g>
<g>
</g>
<g>
</g>
<g>
</g>
<g>
</g>
<g>
</g>
<g>
</g>
<g>
</g>
<g>
</g>
<g>
</g>
<g>
</g>
<g>
</g>
<g>
</g>
<g>
</g>
<g>
</g>
<g>
</g>
</svg>
