<?xml version="1.0" encoding="utf-8"?>
<!-- Generator: Adobe Illustrator 26.0.3, SVG Export Plug-In . SVG Version: 6.00 Build 0)  -->
<svg version="1.0" id="Capa_1" xmlns="http://www.w3.org/2000/svg" xmlns:xlink="http://www.w3.org/1999/xlink" x="0px" y="0px"
	 viewBox="0 0 418.32 309.68" style="enable-background:new 0 0 418.32 309.68;" xml:space="preserve">
<path style="opacity:0.03;fill:#001BD4;" d="M354.39,188.2c-0.41,0.24-0.56,0.62-0.64,1.07c-1.02,5.47-2.08,10.93-3.08,16.4
	c-0.41,2.22-0.36,2.25,1.96,2.25c15.17,0.01,30.33-0.01,45.5,0.01c4.75,0.01,4.52-0.63,3.51,4.39c-1.17,5.88-2.3,11.77-3.4,17.66
	c-0.53,2.82-0.49,2.85-3.44,2.85c-15.6,0-31.2,0-46.8,0c-2.86,0-2.82,0.02-3.38,2.83c-1.07,5.46-2.18,10.91-3.29,16.35
	c-0.46,2.24-0.42,2.34,1.85,2.34c18.63,0,37.26,0,55.9,0c0.62,0,1.24,0.04,1.86,0c1.35-0.08,1.73,0.44,1.42,1.79
	c-1.02,4.52-1.95,9.06-2.91,13.59c-0.62,2.9-1.29,5.79-1.81,8.71c-0.22,1.26-0.86,1.66-2.02,1.62c-0.74-0.02-1.49,0.01-2.23,0.01
	c-29.4,0-58.81,0.01-88.21,0.01c-2.2,0-2.34-0.13-1.89-2.37c2.83-14.18,5.68-28.35,8.51-42.53c3.32-16.6,6.62-33.2,9.94-49.8
	c1.48-7.39,2.97-14.77,4.47-22.16c0.07-0.35,0.25-0.68,0.38-1.02c0.58-0.31,1.21-0.16,1.82-0.16c29.36-0.01,58.73-0.01,88.09,0
	c0.6,0,1.24-0.2,1.8,0.2c0.22,3.45-1.06,6.66-1.66,9.97c-0.86,4.78-1.9,9.53-2.84,14.3c-0.12,0.62-0.27,1.2-0.72,1.66
	c-0.42,0.41-0.94,0.23-1.41,0.23c-18.61,0.01-37.23,0.01-55.84,0C355.34,188.41,354.82,188.57,354.39,188.2z"/>
<path style="opacity:0.03;fill:#001BD4;" d="M267.12,159.86c11.97,0.07,23.66,1.71,34.84,6.23c2.3,0.93,4.51,2.02,6.67,3.26
	c1.09,0.63,1.23,1.33,0.69,2.44c-3.59,7.26-7.17,14.54-10.69,21.84c-0.72,1.5-1.47,1.61-2.87,0.81
	c-10.49-6.02-21.87-8.42-33.86-7.98c-5.16,0.19-10.23,1.13-14.6,4.21c-2.37,1.67-3.96,3.8-4.08,6.9c-0.12,3.35,1.45,5.54,4.28,6.96
	c5.29,2.66,10.99,4.13,16.68,5.62c5.93,1.55,11.82,3.21,17.55,5.41c6.4,2.45,11.8,6.25,15.73,11.92c3.35,4.83,4.36,10.37,4.05,16.09
	c-0.92,16.66-9.84,27.78-24.55,34.72c-9.81,4.63-20.23,6.38-30.99,6.54c-9.13,0.14-18.17-0.51-27.09-2.6
	c-8.17-1.92-16.07-4.54-23.36-8.79c-2.27-1.32-2.27-1.39-1.05-3.7c3.72-6.99,7.41-14,11.13-20.99c1.17-2.2,1.18-2.18,3.44-0.86
	c13.65,7.97,28.33,11.53,44.13,10.11c3.87-0.35,7.55-1.37,10.74-3.73c4.92-3.65,4.43-10.09-1.02-12.87
	c-5.56-2.83-11.59-4.28-17.55-5.93c-6.51-1.8-13.05-3.55-19.12-6.52c-8.75-4.28-15.36-10.55-16.84-20.7
	c-1.61-11.07,0.93-21.19,8.11-29.88c8.1-9.8,19.1-14.38,31.21-16.85C254.75,160.28,260.9,159.77,267.12,159.86z"/>
<path style="opacity:0.03;fill:#001BD4;" d="M204.31,162.28c-0.74-0.01-1.49,0-2.23,0c-22.29,0-44.57,0-66.86,0
	c-6.75,0-13.5,0.03-20.24-0.01c-1.46-0.01-2.29,0.43-2.56,1.99c-0.73,4.14-1.58,8.26-2.39,12.38c4.26,2.19,5.72,6.25,6.99,10.44
	c2.44,8.03,4.77,16.09,7.4,24.05c2.31,6.99,0.57,13.16-3.78,18.53c-7.85,9.7-16.12,19.06-24.11,28.65
	c-4.24,5.1-9.43,8.44-15.97,9.62c-0.66,0.12-1.35,0.15-2.02,0.15c-11.45,0.01-22.9,0.02-34.35,0c-6.51-0.01-11.23-3.64-13.14-9.91
	c-2.66-8.74-5.29-17.5-8.14-26.18c-2.12-6.45-0.78-12.23,2.99-17.53c3.51-4.93,7.7-9.33,11.6-13.97c4.77-5.68,9.56-11.34,14.34-17
	c1.24-1.47,2.77-2.64,4.22-3.89c0.1-0.61,0.17-1.22,0.29-1.83c0.89-4.43,1.78-8.85,2.68-13.28c0.25-1.24,0.27-2.23-1.45-2.22
	c-10.21,0.02-20.43,0.02-30.64,0.01c-1.18,0-1.81,0.51-2.02,1.7c-0.46,2.56-0.99,5.1-1.5,7.65c-3.59,17.95-7.19,35.9-10.78,53.85
	c-3.58,17.89-7.16,35.78-10.75,53.67c-0.67,3.34-0.71,3.34,2.64,3.34c39.62,0,79.24,0,118.86,0c19.69,0,39.37,0,59.06,0
	c2.68,0,2.73-0.03,3.29-2.67c1.49-7.02,2.95-14.04,4.44-21.06c0.51-2.42,0.36-2.65-2.19-2.65c-8.73-0.01-17.46-0.01-26.19-0.01
	c-10.15,0-20.31,0.01-30.46-0.01c-3.14-0.01-3.76,0.46-2.92-3.42c1.12-5.14,1.99-10.32,2.96-15.49c0.54-2.9,0.54-2.91,3.43-2.91
	c16.03,0,32.07-0.04,48.1,0.04c2.04,0.01,2.85-0.69,3.2-2.61c1.21-6.63,2.53-13.24,3.81-19.86c0.56-2.88,0.56-2.88-2.4-2.89
	c-15.91,0-31.82,0-47.73-0.01c-2.4,0-2.61-0.23-2.17-2.59c0.91-4.86,1.87-9.72,2.84-14.57c0.63-3.17,0.64-3.17,3.81-3.17
	c17.89,0,35.78,0,53.67,0c0.74,0,1.49-0.03,2.23-0.01c1.12,0.03,1.71-0.51,1.91-1.59c0.33-1.83,0.69-3.65,1.07-5.46
	c1.12-5.52,2.29-11.02,3.38-16.54C207,162.46,206.82,162.3,204.31,162.28z"/>
<path style="opacity:0.03;fill:#FFC300;" d="M55.6,181.24c-3.35,2.63-5.69,6.18-8.42,9.36c-6.13,7.13-12.14,14.37-18.26,21.51
	c-2.15,2.51-3.91,5.24-5.02,8.39c-1.17,3.32-1.34,6.63-0.36,10.02c2.65,9.15,5.66,18.2,8.46,27.3c1.83,5.94,5.83,9.13,12.02,9.24
	c11.51,0.21,23.03,0.29,34.54-0.03c6.4-0.18,11.89-3.16,16.03-7.98c8.06-9.38,15.98-18.89,23.99-28.33c3.05-3.6,5.23-7.63,5.8-12.44
	c0.24-2.04-0.11-3.96-0.69-5.85c-2.84-9.35-5.63-18.72-8.67-28.01c-0.81-2.47-2.13-4.6-4.26-6.16c-0.55-0.41-1.16-0.79-0.74-1.64
	c-2.58-1.38-5.35-1.77-8.24-1.76c-10.45,0.03-20.91,0-31.36,0.01c-1.73,0-3.44,0.1-5.15,0.51c-3.37,0.8-6.31,2.46-9.22,4.22
	C56.33,180.27,56.15,180.81,55.6,181.24z M70.82,197.46c6.85-2.33,13.71-2.8,20.29,0.8c5.9,3.22,8.91,8.4,9.29,15.05
	c0.51,8.92-3.2,16.23-9.04,22.59c-6.54,7.12-15.66,11.32-24.33,11.49c-11.98,0.23-20.81-8.49-20.12-20.24
	c0.44-7.48,3.65-13.93,8.66-19.44C59.81,203.07,64.83,199.49,70.82,197.46z"/>
<g style="opacity:0.03;">
	<path style="fill:#001BD4;" d="M344.76,149.63c5.76,0.9,52.59-0.6,61.01-1.05c8.42-0.45,6.94-0.75,6.5-5.27
		c-0.44-4.51-2.22-17-3.55-20.76c-1.33-3.76-1.92-5.72-12.26-7.07c-10.34-1.35-19.2-1.35-19.2-1.35s22.6,4.06,24.52,13.24
		c1.92,9.18,1.33,12.19-1.92,12.34c-3.25,0.15-48.01,1.5-54.51-0.45C338.85,137.3,339,148.73,344.76,149.63z"/>
	<path style="fill:#FFC300;" d="M128.68,122.55c0,0-33.83,26.18-39.59,27.08c-5.76,0.9-52.59-0.6-61.01-1.05
		c-8.42-0.45-6.94-0.75-6.5-5.27c0.44-4.51,2.22-17,3.55-20.76c1.33-3.76,1.92-5.72,12.26-7.07c10.34-1.35,19.2-1.35,19.2-1.35
		s-22.6,4.06-24.52,13.24s-1.33,12.19,1.92,12.34c3.25,0.15,48.01,1.5,54.51-0.45C94.99,137.3,128.68,122.55,128.68,122.55z"/>
	<path style="fill:#001BD4;" d="M265.13,11.81c20.63,1.82,62.53,8.49,67.26,10.6c4.73,2.11,19.57,24.87,22.11,32.28
		c3.23,9.42,9.16,27.68,11.08,31.3c1.92,3.61,3.1,5.57-7.98,3.46c-11.08-2.11-45.8-6.47-73.57-4.51c32.8,1.96,67.81,8.73,78,10.98
		c10.19,2.26,49.05,13.69,49.05,13.69s-7.53-10.53-18.32-17.3c-10.78-6.77-18.32-23.77-21.27-30.69
		c-2.95-6.92-17.28-43.33-32.8-50.1c-15.51-6.77-59.54-9.57-71.65-10.08c-60.86-2.56-75.22-1.12-100.27,0
		c-12.11,0.54-56.14,3.31-71.65,10.08c-15.51,6.77-29.84,43.18-32.8,50.1c-2.95,6.92-10.49,23.92-21.27,30.69
		c-10.78,6.77-18.32,17.3-18.32,17.3S61.61,98.18,71.8,95.92c10.19-2.26,45.2-9.03,78-10.98c-27.77-1.96-62.49,2.41-73.57,4.51
		s-9.9,0.15-7.98-3.46c1.92-3.61,8.42-23.92,11.08-31.3c2.66-7.37,17.24-30.95,21.97-33.05c4.73-2.11,46.78-7.97,67.4-9.83
		C192.72,9.64,224.21,8.2,265.13,11.81z"/>
</g>
<g>
</g>
<g>
</g>
<g>
</g>
<g>
</g>
<g>
</g>
<g>
</g>
<g>
</g>
<g>
</g>
<g>
</g>
<g>
</g>
<g>
</g>
<g>
</g>
<g>
</g>
<g>
</g>
<g>
</g>
</svg>
