<?xml version="1.0" encoding="utf-8"?>
<!-- Generator: Adobe Illustrator 26.0.3, SVG Export Plug-In . SVG Version: 6.00 Build 0)  -->
<svg version="1.0" id="Capa_1" xmlns="http://www.w3.org/2000/svg" xmlns:xlink="http://www.w3.org/1999/xlink" x="0px" y="0px"
	 viewBox="0 0 953 729" style="enable-background:new 0 0 953 729;" xml:space="preserve">
<g>
	<path style="fill:#050505;" d="M779.53,450.87c-0.84,0.5-1.15,1.28-1.33,2.2c-2.11,11.27-4.28,22.52-6.35,33.8
		c-0.84,4.57-0.73,4.64,4.03,4.65c31.26,0.02,62.51-0.02,93.77,0.03c9.78,0.01,9.31-1.31,7.24,9.06
		c-2.41,12.12-4.74,24.25-7.01,36.39c-1.09,5.82-1.01,5.87-7.1,5.87c-32.15,0.01-64.3,0-96.45,0.01c-5.9,0-5.82,0.03-6.96,5.83
		c-2.21,11.25-4.49,22.48-6.78,33.71c-0.95,4.63-0.86,4.81,3.81,4.81c38.4,0,76.8,0,115.2,0c1.28,0,2.56,0.07,3.83,0
		c2.77-0.16,3.56,0.91,2.94,3.69c-2.11,9.31-4.02,18.67-6,28.01c-1.27,5.98-2.66,11.94-3.73,17.95c-0.46,2.6-1.78,3.42-4.16,3.34
		c-1.53-0.05-3.06,0.01-4.59,0.01c-60.6,0.01-121.2,0.02-181.8,0.02c-4.53,0-4.82-0.28-3.9-4.88c5.83-29.22,11.7-58.43,17.54-87.65
		c6.84-34.21,13.64-68.43,20.48-102.63c3.04-15.23,6.13-30.45,9.22-45.67c0.15-0.73,0.52-1.41,0.78-2.11
		c1.2-0.64,2.5-0.32,3.75-0.32c60.52-0.02,121.04-0.02,181.56,0.01c1.23,0,2.55-0.42,3.71,0.41c0.46,7.11-2.19,13.72-3.43,20.55
		c-1.78,9.85-3.91,19.64-5.84,29.47c-0.25,1.28-0.56,2.46-1.49,3.42c-0.86,0.84-1.94,0.47-2.91,0.47
		c-38.36,0.02-76.73,0.02-115.09,0C781.49,451.3,780.42,451.63,779.53,450.87z"/>
	<path style="fill:#050505;" d="M599.67,392.47c24.67,0.15,48.77,3.52,71.81,12.84c4.74,1.91,9.3,4.17,13.74,6.71
		c2.25,1.29,2.54,2.75,1.41,5.03c-7.41,14.97-14.78,29.96-22.03,45.01c-1.49,3.1-3.03,3.32-5.91,1.67
		c-21.61-12.4-45.08-17.35-69.79-16.45c-10.64,0.39-21.09,2.32-30.09,8.68c-4.88,3.44-8.17,7.83-8.4,14.23
		c-0.25,6.9,2.99,11.42,8.82,14.35c10.9,5.48,22.65,8.51,34.37,11.57c12.22,3.19,24.36,6.62,36.16,11.15
		c13.18,5.05,24.32,12.88,32.41,24.57c6.9,9.95,8.99,21.37,8.34,33.16c-1.89,34.33-20.27,57.25-50.6,71.56
		c-20.21,9.54-41.69,13.15-63.87,13.48c-18.82,0.28-37.45-1.05-55.82-5.36c-16.84-3.95-33.12-9.36-48.15-18.12
		c-4.67-2.72-4.69-2.86-2.15-7.62c7.66-14.41,15.27-28.85,22.93-43.26c2.41-4.53,2.43-4.5,7.08-1.78
		c28.14,16.42,58.38,23.77,90.94,20.84c7.97-0.72,15.56-2.82,22.12-7.69c10.15-7.53,9.13-20.8-2.1-26.51
		c-11.45-5.83-23.89-8.82-36.18-12.21c-13.41-3.7-26.89-7.32-39.41-13.44c-18.03-8.81-31.65-21.74-34.7-42.66
		c-3.32-22.81,1.91-43.67,16.71-61.57c16.69-20.19,39.37-29.65,64.32-34.72C574.18,393.33,586.86,392.28,599.67,392.47z"/>
	<path style="fill:#050505;" d="M470.24,397.45c-1.53-0.01-3.06-0.01-4.59-0.01c-45.93,0-91.86,0-137.79,0
		c-13.91,0-27.81,0.06-41.72-0.03c-3.02-0.02-4.72,0.89-5.28,4.09c-1.51,8.53-3.26,17.02-4.92,25.52
		c8.78,4.51,11.78,12.87,14.41,21.52c5.03,16.54,9.83,33.16,15.26,49.57c4.77,14.41,1.17,27.12-7.79,38.19
		c-16.19,19.99-33.23,39.28-49.69,59.05c-8.74,10.5-19.44,17.4-32.92,19.83c-1.37,0.25-2.78,0.32-4.17,0.32
		c-23.6,0.02-47.19,0.04-70.79,0.01c-13.42-0.02-23.15-7.49-27.09-20.42c-5.49-18.02-10.9-36.06-16.78-53.95
		c-4.38-13.3-1.6-25.2,6.16-36.12c7.23-10.17,15.88-19.24,23.91-28.79c9.83-11.7,19.7-23.37,29.56-35.04
		c2.56-3.04,5.72-5.44,8.7-8.02c0.2-1.26,0.35-2.52,0.6-3.77c1.83-9.12,3.66-18.25,5.52-27.36c0.52-2.56,0.55-4.59-3-4.58
		c-21.05,0.04-42.1,0.03-63.15,0.01c-2.44,0-3.73,1.05-4.16,3.5c-0.95,5.27-2.04,10.51-3.09,15.76c-7.4,37-14.81,73.99-22.22,110.99
		c-7.38,36.87-14.75,73.75-22.16,110.62c-1.39,6.89-1.46,6.89,5.45,6.89c81.66,0,163.31,0,244.97,0c40.57,0,81.15,0,121.72-0.01
		c5.53,0,5.63-0.07,6.79-5.5c3.07-14.46,6.08-28.94,9.14-43.41c1.05-4.99,0.73-5.46-4.52-5.47c-17.99-0.03-35.98-0.01-53.97-0.01
		c-20.92,0-41.85,0.03-62.77-0.02c-6.48-0.01-7.75,0.94-6.01-7.06c2.3-10.58,4.1-21.28,6.1-31.93c1.12-5.97,1.1-5.99,7.06-6
		c33.04-0.01,66.09-0.08,99.13,0.09c4.2,0.02,5.88-1.42,6.6-5.38c2.49-13.67,5.21-27.3,7.85-40.94c1.15-5.93,1.16-5.95-4.95-5.95
		c-32.79-0.01-65.58,0-98.37-0.02c-4.94,0-5.38-0.47-4.47-5.34c1.88-10.02,3.86-20.03,5.85-30.03c1.29-6.53,1.33-6.54,7.85-6.54
		c36.87,0,73.75,0,110.62,0c1.53,0,3.06-0.07,4.59-0.03c2.31,0.07,3.52-1.05,3.93-3.28c0.69-3.76,1.43-7.51,2.2-11.26
		c2.32-11.37,4.72-22.72,6.96-34.1C475.77,397.83,475.4,397.5,470.24,397.45z"/>
	<path style="fill:#FCD92D;" d="M163.75,436.54c-6.9,5.43-11.72,12.74-17.36,19.3c-12.64,14.69-25.02,29.61-37.63,44.33
		c-4.43,5.17-8.07,10.8-10.35,17.3c-2.41,6.85-2.76,13.66-0.74,20.65c5.46,18.87,11.66,37.5,17.45,56.27
		c3.77,12.24,12.02,18.81,24.77,19.05c23.73,0.44,47.47,0.6,71.19-0.06c13.2-0.37,24.5-6.52,33.04-16.46
		c16.62-19.34,32.94-38.94,49.43-58.38c6.29-7.42,10.77-15.73,11.96-25.63c0.5-4.2-0.23-8.17-1.42-12.06
		c-5.86-19.28-11.61-38.59-17.87-57.74c-1.67-5.09-4.39-9.47-8.77-12.69c-1.14-0.84-2.39-1.63-1.52-3.38
		c-5.32-2.84-11.03-3.66-16.99-3.64c-21.54,0.07-43.09,0.01-64.63,0.03c-3.56,0-7.09,0.22-10.61,1.05c-6.94,1.64-13,5.07-19.01,8.7
		C165.24,434.54,164.88,435.65,163.75,436.54z M195.1,469.95c14.11-4.8,28.25-5.77,41.83,1.64c12.16,6.64,18.37,17.3,19.16,31.02
		c1.06,18.38-6.59,33.46-18.63,46.56c-13.48,14.67-32.28,23.33-50.15,23.68c-24.7,0.48-42.88-17.5-41.46-41.71
		c0.91-15.41,7.52-28.71,17.86-40.07C172.42,481.51,182.77,474.15,195.1,469.95z"/>
	<g>
		<path d="M678.09,315.57c0,0,69.72,53.96,81.59,55.82c11.87,1.86,108.39-1.24,125.74-2.17c17.35-0.93,14.31-1.55,13.4-10.85
			c-0.91-9.3-4.57-35.04-7.31-42.79c-2.74-7.75-3.96-11.78-25.27-14.57c-21.31-2.79-39.58-2.79-39.58-2.79s46.58,8.37,50.54,27.29
			c3.96,18.92,2.74,25.12-3.96,25.43c-6.7,0.31-98.95,3.1-112.34-0.93C747.51,345.96,678.09,315.57,678.09,315.57z"/>
		<path style="fill:#FCD92D;" d="M314.35,315.57c0,0-69.72,53.96-81.59,55.82s-108.39-1.24-125.74-2.17
			c-17.35-0.93-14.31-1.55-13.4-10.85c0.91-9.3,4.57-35.04,7.31-42.79c2.74-7.75,3.96-11.78,25.27-14.57
			c21.31-2.79,39.58-2.79,39.58-2.79s-46.58,8.37-50.54,27.29c-3.96,18.92-2.74,25.12,3.96,25.43c6.7,0.31,98.95,3.1,112.34-0.93
			C244.93,345.96,314.35,315.57,314.35,315.57z"/>
		<path d="M595.59,87.34c42.52,3.75,128.88,17.5,138.62,21.84c9.74,4.34,40.33,51.25,45.57,66.53c6.67,19.42,18.88,57.06,22.83,64.5
			c3.96,7.44,6.39,11.47-16.44,7.13c-22.83-4.34-94.38-13.33-151.62-9.3c67.59,4.03,139.75,17.99,160.75,22.64
			c21.01,4.65,101.08,28.22,101.08,28.22s-15.53-21.71-37.75-35.66c-22.23-13.95-37.75-49-43.84-63.26
			c-6.09-14.26-35.62-89.31-67.59-103.26C715.24,72.77,624.5,66.99,599.54,65.95c-125.44-5.27-155.03-2.32-206.65,0
			c-24.95,1.12-115.69,6.82-147.66,20.78c-31.97,13.95-61.5,89-67.59,103.26c-6.09,14.26-21.62,49.31-43.84,63.26
			c-22.23,13.95-37.75,35.66-37.75,35.66s80.07-23.57,101.08-28.22s93.16-18.61,160.75-22.64c-57.24-4.03-128.79,4.96-151.62,9.3
			s-20.4,0.31-16.44-7.13c3.96-7.44,17.35-49.31,22.83-64.5c5.48-15.19,35.54-63.78,45.28-68.12c9.74-4.34,96.4-16.42,138.91-20.26
			C446.34,82.88,511.25,79.9,595.59,87.34z"/>
	</g>
	<g>
		<path d="M57.76,685.22l-0.87,4.4h8.66l-0.87,4.37h-8.64l-1.35,6.86h-5.55l3.93-19.99h15.37l-0.87,4.37H57.76z"/>
		<path d="M80.53,696.96h-8.36l-2.27,3.88h-5.86l12.59-19.99h5.47l4.74,19.99h-5.52L80.53,696.96z M79.69,692.79l-1.32-6.48
			l-3.76,6.48H79.69z"/>
		<path d="M107.55,692.12c0.46,0.68,0.69,1.47,0.69,2.38c0,2.08-0.83,3.65-2.5,4.73c-1.66,1.08-3.83,1.61-6.51,1.61h-10.8
			l3.93-19.99h9.93c2.21,0,3.89,0.41,5.06,1.21c1.17,0.81,1.75,1.97,1.75,3.47c0,1.16-0.31,2.17-0.93,3.01
			c-0.62,0.85-1.48,1.51-2.58,1.98C106.44,690.92,107.09,691.45,107.55,692.12z M101.87,696.16c0.56-0.4,0.84-0.99,0.84-1.77
			c0-0.57-0.21-1-0.62-1.27c-0.41-0.28-0.97-0.41-1.68-0.41h-4.91l-0.78,4.06h4.82C100.54,696.76,101.31,696.56,101.87,696.16z
			 M97.05,684.94l-0.76,3.86h3.98c0.99,0,1.74-0.2,2.26-0.59c0.51-0.39,0.77-0.96,0.77-1.7c0-1.05-0.78-1.57-2.33-1.57H97.05z"/>
		<path d="M128.79,691.95c-0.95,1.32-2.29,2.29-4.01,2.9l3.34,6h-5.8l-2.92-5.31h-2.8l-1.04,5.31H110l3.93-19.99h8.38
			c2.5,0,4.45,0.56,5.83,1.69c1.38,1.12,2.07,2.68,2.07,4.68C130.22,689.05,129.74,690.63,128.79,691.95z M123.8,685.92
			c-0.54-0.41-1.3-0.61-2.27-0.61h-2.92l-1.18,5.85h3.31c1.23,0,2.19-0.3,2.86-0.89c0.67-0.59,1.01-1.43,1.01-2.51
			C124.61,686.95,124.34,686.33,123.8,685.92z"/>
		<path d="M134.68,680.85h5.55l-3.93,19.99h-5.55L134.68,680.85z"/>
		<path d="M145.76,700.15c-1.5-0.73-2.65-1.77-3.45-3.1c-0.8-1.33-1.21-2.87-1.21-4.6c0-2.29,0.52-4.34,1.56-6.17
			c1.04-1.83,2.49-3.26,4.36-4.29c1.87-1.03,4-1.54,6.39-1.54c1.81,0,3.42,0.33,4.82,0.98c1.4,0.66,2.45,1.59,3.14,2.78l-4.01,3.26
			c-0.95-1.56-2.39-2.34-4.32-2.34c-1.25,0-2.36,0.3-3.31,0.9c-0.95,0.6-1.7,1.43-2.23,2.49c-0.53,1.06-0.8,2.24-0.8,3.55
			c0,1.35,0.43,2.44,1.29,3.26c0.86,0.82,2.03,1.23,3.5,1.23c1.87,0,3.47-0.77,4.79-2.31l3.28,3.29c-1.07,1.31-2.31,2.26-3.73,2.84
			c-1.42,0.58-3.05,0.87-4.88,0.87C148.99,701.25,147.25,700.88,145.76,700.15z"/>
		<path d="M174.75,696.96h-8.36l-2.27,3.88h-5.86l12.59-19.99h5.47l4.74,19.99h-5.52L174.75,696.96z M173.91,692.79l-1.32-6.48
			l-3.76,6.48H173.91z"/>
		<path d="M187.87,700.15c-1.5-0.73-2.65-1.77-3.45-3.1c-0.8-1.33-1.21-2.87-1.21-4.6c0-2.29,0.52-4.34,1.56-6.17
			c1.04-1.83,2.49-3.26,4.36-4.29c1.87-1.03,4-1.54,6.39-1.54c1.81,0,3.42,0.33,4.82,0.98c1.4,0.66,2.45,1.59,3.14,2.78l-4.01,3.26
			c-0.95-1.56-2.39-2.34-4.32-2.34c-1.25,0-2.36,0.3-3.31,0.9c-0.95,0.6-1.7,1.43-2.23,2.49c-0.53,1.06-0.8,2.24-0.8,3.55
			c0,1.35,0.43,2.44,1.29,3.26c0.86,0.82,2.03,1.23,3.5,1.23c1.87,0,3.47-0.77,4.79-2.31l3.28,3.29c-1.07,1.31-2.31,2.26-3.73,2.84
			c-1.42,0.58-3.05,0.87-4.88,0.87C191.11,701.25,189.37,700.88,187.87,700.15z"/>
		<path d="M207,680.85h5.55l-3.93,19.99h-5.55L207,680.85z"/>
		<path d="M218,700.13c-1.47-0.74-2.6-1.78-3.39-3.11s-1.19-2.86-1.19-4.57c0-2.29,0.52-4.34,1.56-6.17
			c1.04-1.83,2.49-3.26,4.35-4.29c1.86-1.03,3.98-1.54,6.35-1.54c1.98,0,3.71,0.37,5.17,1.11c1.47,0.74,2.6,1.78,3.39,3.11
			c0.79,1.33,1.19,2.86,1.19,4.57c0,2.29-0.52,4.34-1.56,6.17c-1.04,1.83-2.49,3.26-4.35,4.28c-1.86,1.03-3.98,1.54-6.35,1.54
			C221.2,701.25,219.47,700.88,218,700.13z M226.91,695.62c0.93-0.63,1.65-1.47,2.16-2.53c0.5-1.06,0.76-2.22,0.76-3.5
			c0-1.35-0.41-2.43-1.22-3.24c-0.81-0.81-1.95-1.21-3.41-1.21c-1.23,0-2.32,0.31-3.25,0.94c-0.93,0.63-1.65,1.47-2.16,2.53
			c-0.5,1.06-0.76,2.22-0.76,3.5c0,1.35,0.41,2.43,1.22,3.24c0.81,0.81,1.95,1.21,3.41,1.21
			C224.89,696.56,225.97,696.25,226.91,695.62z M228.09,674.88h5.5l-5.75,4.34h-3.95L228.09,674.88z"/>
		<path d="M258.87,680.85l-3.93,19.99h-4.57l-6.48-10.97l-2.16,10.97h-5.44l3.93-19.99h4.57l6.51,10.94l2.13-10.94H258.87z"/>
		<path d="M278.95,693.76l-1.37,7.08h-5.55l1.4-7.23l-4.99-12.77h5.58l3.08,7.97l6.28-7.97h5.64L278.95,693.76z"/>
		<path d="M298.58,680.85h8.52c2.02,0,3.77,0.34,5.24,1.01c1.48,0.68,2.61,1.65,3.41,2.91c0.79,1.27,1.19,2.76,1.19,4.47
			c0,2.32-0.52,4.36-1.56,6.11c-1.04,1.75-2.48,3.1-4.33,4.06c-1.85,0.95-3.97,1.43-6.37,1.43h-10.04L298.58,680.85z M304.86,696.33
			c1.35,0,2.51-0.29,3.49-0.87c0.98-0.58,1.72-1.38,2.23-2.4c0.5-1.02,0.76-2.18,0.76-3.47c0-1.35-0.41-2.39-1.23-3.13
			c-0.82-0.73-2.03-1.1-3.62-1.1h-3.25l-2.13,10.97H304.86z"/>
		<path d="M321.74,680.85h5.55l-3.93,19.99h-5.55L321.74,680.85z"/>
		<path d="M330.01,700.65c-1.46-0.4-2.65-0.91-3.56-1.54l2.19-4.23c0.99,0.65,2.05,1.14,3.17,1.47c1.12,0.33,2.24,0.5,3.37,0.5
			c1.07,0,1.89-0.16,2.48-0.47c0.59-0.31,0.88-0.75,0.88-1.3c0-0.48-0.27-0.85-0.8-1.11c-0.53-0.27-1.36-0.55-2.48-0.86
			c-1.27-0.34-2.33-0.69-3.17-1.04c-0.84-0.35-1.57-0.89-2.17-1.61c-0.61-0.72-0.91-1.67-0.91-2.86c0-1.43,0.38-2.68,1.15-3.76
			s1.86-1.91,3.28-2.5c1.42-0.59,3.08-0.89,4.99-0.89c1.4,0,2.71,0.15,3.93,0.44c1.21,0.3,2.26,0.72,3.14,1.27l-2.02,4.2
			c-0.77-0.49-1.61-0.87-2.54-1.13c-0.93-0.26-1.87-0.39-2.85-0.39c-1.1,0-1.97,0.18-2.59,0.54s-0.94,0.83-0.94,1.4
			c0,0.5,0.27,0.88,0.81,1.14s1.38,0.55,2.52,0.86c1.27,0.32,2.32,0.66,3.16,1c0.83,0.34,1.55,0.87,2.14,1.57
			c0.6,0.7,0.9,1.63,0.9,2.77c0,1.41-0.39,2.65-1.16,3.73c-0.78,1.08-1.88,1.91-3.31,2.5c-1.43,0.59-3.09,0.89-4.98,0.89
			C333.01,701.25,331.47,701.05,330.01,700.65z"/>
		<path d="M352.39,685.34h-6.03l0.9-4.48h17.58l-0.9,4.48h-6l-3.06,15.51h-5.55L352.39,685.34z"/>
		<path d="M381.78,691.95c-0.95,1.32-2.29,2.29-4.01,2.9l3.34,6h-5.8l-2.92-5.31h-2.8l-1.04,5.31h-5.55l3.93-19.99h8.38
			c2.51,0,4.45,0.56,5.83,1.69c1.38,1.12,2.08,2.68,2.08,4.68C383.21,689.05,382.73,690.63,381.78,691.95z M376.79,685.92
			c-0.54-0.41-1.3-0.61-2.27-0.61h-2.92l-1.18,5.85h3.31c1.23,0,2.19-0.3,2.86-0.89c0.67-0.59,1.01-1.43,1.01-2.51
			C377.6,686.95,377.33,686.33,376.79,685.92z"/>
		<path d="M387.67,680.85h5.55l-3.93,19.99h-5.55L387.67,680.85z"/>
		<path d="M412.36,692.12c0.46,0.68,0.69,1.47,0.69,2.38c0,2.08-0.83,3.65-2.5,4.73c-1.66,1.08-3.83,1.61-6.51,1.61h-10.8
			l3.93-19.99h9.93c2.21,0,3.89,0.41,5.06,1.21c1.17,0.81,1.75,1.97,1.75,3.47c0,1.16-0.31,2.17-0.93,3.01
			c-0.62,0.85-1.48,1.51-2.58,1.98C411.25,690.92,411.9,691.45,412.36,692.12z M406.68,696.16c0.56-0.4,0.84-0.99,0.84-1.77
			c0-0.57-0.21-1-0.62-1.27c-0.41-0.28-0.97-0.41-1.68-0.41h-4.91l-0.78,4.06h4.82C405.34,696.76,406.12,696.56,406.68,696.16z
			 M401.86,684.94l-0.76,3.86h3.98c0.99,0,1.74-0.2,2.26-0.59c0.51-0.39,0.77-0.96,0.77-1.7c0-1.05-0.78-1.57-2.33-1.57H401.86z"/>
		<path d="M419.97,700.37c-1.23-0.58-2.18-1.41-2.83-2.5c-0.65-1.08-0.98-2.36-0.98-3.83c0-0.61,0.07-1.31,0.22-2.11l2.19-11.08
			h5.55l-2.16,11c-0.11,0.57-0.17,1.1-0.17,1.57c0,2.09,1.08,3.14,3.25,3.14c1.18,0,2.11-0.37,2.79-1.1
			c0.68-0.73,1.19-1.94,1.53-3.61l2.16-11h5.47l-2.21,11.34c-1.2,6.04-4.66,9.05-10.4,9.05
			C422.67,701.25,421.2,700.96,419.97,700.37z"/>
		<path d="M442.35,700.15c-1.5-0.73-2.65-1.77-3.45-3.1c-0.8-1.33-1.2-2.87-1.2-4.6c0-2.29,0.52-4.34,1.56-6.17
			c1.04-1.83,2.49-3.26,4.36-4.29c1.87-1.03,4-1.54,6.39-1.54c1.81,0,3.42,0.33,4.82,0.98c1.4,0.66,2.45,1.59,3.14,2.78l-4.01,3.26
			c-0.95-1.56-2.39-2.34-4.32-2.34c-1.25,0-2.36,0.3-3.31,0.9c-0.95,0.6-1.7,1.43-2.23,2.49c-0.53,1.06-0.8,2.24-0.8,3.55
			c0,1.35,0.43,2.44,1.29,3.26c0.86,0.82,2.03,1.23,3.51,1.23c1.87,0,3.47-0.77,4.79-2.31l3.28,3.29c-1.07,1.31-2.31,2.26-3.73,2.84
			c-1.42,0.58-3.05,0.87-4.88,0.87C445.58,701.25,443.84,700.88,442.35,700.15z"/>
		<path d="M461.47,680.85h5.55l-3.93,19.99h-5.55L461.47,680.85z"/>
		<path d="M472.48,700.13c-1.47-0.74-2.6-1.78-3.39-3.11c-0.79-1.33-1.19-2.86-1.19-4.57c0-2.29,0.52-4.34,1.56-6.17
			c1.04-1.83,2.49-3.26,4.35-4.29c1.86-1.03,3.98-1.54,6.35-1.54c1.98,0,3.71,0.37,5.17,1.11c1.47,0.74,2.6,1.78,3.39,3.11
			c0.79,1.33,1.19,2.86,1.19,4.57c0,2.29-0.52,4.34-1.56,6.17c-1.04,1.83-2.49,3.26-4.35,4.28c-1.86,1.03-3.98,1.54-6.35,1.54
			C475.67,701.25,473.94,700.88,472.48,700.13z M481.38,695.62c0.94-0.63,1.65-1.47,2.16-2.53c0.5-1.06,0.76-2.22,0.76-3.5
			c0-1.35-0.41-2.43-1.22-3.24c-0.81-0.81-1.95-1.21-3.41-1.21c-1.23,0-2.32,0.31-3.25,0.94c-0.93,0.63-1.65,1.47-2.16,2.53
			c-0.5,1.06-0.76,2.22-0.76,3.5c0,1.35,0.41,2.43,1.22,3.24c0.81,0.81,1.95,1.21,3.41,1.21
			C479.36,696.56,480.44,696.25,481.38,695.62z M482.56,674.88h5.5l-5.75,4.34h-3.95L482.56,674.88z"/>
		<path d="M513.35,680.85l-3.93,19.99h-4.57l-6.48-10.97l-2.16,10.97h-5.44l3.93-19.99h4.57l6.51,10.94l2.13-10.94H513.35z"/>
		<path d="M525.46,680.85h8.52c2.02,0,3.77,0.34,5.24,1.01c1.48,0.68,2.61,1.65,3.41,2.91c0.79,1.27,1.19,2.76,1.19,4.47
			c0,2.32-0.52,4.36-1.56,6.11c-1.04,1.75-2.48,3.1-4.33,4.06c-1.85,0.95-3.97,1.43-6.37,1.43h-10.04L525.46,680.85z M531.74,696.33
			c1.35,0,2.51-0.29,3.49-0.87c0.98-0.58,1.72-1.38,2.23-2.4s0.76-2.18,0.76-3.47c0-1.35-0.41-2.39-1.23-3.13
			c-0.82-0.73-2.03-1.1-3.62-1.1h-3.25l-2.13,10.97H531.74z"/>
		<path d="M553.22,685.22l-0.64,3.37h8.72l-0.81,4.23h-8.75l-0.7,3.66h10.29l-0.9,4.37H544.7l3.93-19.99h15.37l-0.87,4.37H553.22z"
			/>
		<path d="M589.81,682.54c1.38,1.12,2.08,2.7,2.08,4.74c0,1.68-0.4,3.14-1.19,4.4c-0.79,1.26-1.92,2.23-3.39,2.91
			c-1.47,0.69-3.17,1.03-5.12,1.03h-3.93l-1.01,5.23h-5.55l3.93-19.99h8.3C586.47,680.85,588.43,681.42,589.81,682.54z
			 M585.29,690.28c0.66-0.59,1-1.43,1-2.51c0-0.82-0.27-1.43-0.8-1.84c-0.53-0.41-1.29-0.61-2.29-0.61h-2.92l-1.15,5.85h3.31
			C583.67,691.16,584.62,690.87,585.29,690.28z"/>
		<path d="M600.61,685.22l-0.64,3.37h8.72l-0.81,4.23h-8.75l-0.7,3.66h10.29l-0.9,4.37h-15.73l3.93-19.99h15.37l-0.87,4.37H600.61z"
			/>
		<path d="M629.72,691.95c-0.95,1.32-2.29,2.29-4.01,2.9l3.34,6h-5.8l-2.92-5.31h-2.8l-1.04,5.31h-5.55l3.93-19.99h8.38
			c2.51,0,4.45,0.56,5.83,1.69c1.38,1.12,2.08,2.68,2.08,4.68C631.15,689.05,630.67,690.63,629.72,691.95z M624.73,685.92
			c-0.54-0.41-1.3-0.61-2.27-0.61h-2.92l-1.18,5.85h3.31c1.23,0,2.19-0.3,2.86-0.89c0.67-0.59,1.01-1.43,1.01-2.51
			C625.54,686.95,625.27,686.33,624.73,685.92z"/>
		<path d="M654.25,680.85l-3.93,19.99h-4.57l-6.48-10.97l-2.16,10.97h-5.44l3.93-19.99h4.57l6.51,10.94l2.13-10.94H654.25z"/>
		<path d="M659.71,700.13c-1.47-0.74-2.6-1.78-3.39-3.11c-0.79-1.33-1.19-2.86-1.19-4.57c0-2.29,0.52-4.34,1.56-6.17
			c1.04-1.83,2.49-3.26,4.35-4.29c1.86-1.03,3.98-1.54,6.35-1.54c1.98,0,3.71,0.37,5.17,1.11s2.6,1.78,3.39,3.11
			s1.19,2.86,1.19,4.57c0,2.29-0.52,4.34-1.56,6.17c-1.04,1.83-2.49,3.26-4.35,4.28c-1.86,1.03-3.98,1.54-6.35,1.54
			C662.9,701.25,661.18,700.88,659.71,700.13z M668.61,695.62c0.94-0.63,1.65-1.47,2.16-2.53c0.5-1.06,0.76-2.22,0.76-3.5
			c0-1.35-0.41-2.43-1.22-3.24c-0.81-0.81-1.95-1.21-3.41-1.21c-1.23,0-2.32,0.31-3.25,0.94c-0.93,0.63-1.65,1.47-2.16,2.53
			c-0.5,1.06-0.76,2.22-0.76,3.5c0,1.35,0.41,2.43,1.22,3.24c0.81,0.81,1.95,1.21,3.41,1.21
			C666.59,696.56,667.68,696.25,668.61,695.62z"/>
		<path d="M680.7,700.65c-1.46-0.4-2.65-0.91-3.56-1.54l2.19-4.23c0.99,0.65,2.05,1.14,3.17,1.47c1.12,0.33,2.24,0.5,3.37,0.5
			c1.07,0,1.89-0.16,2.48-0.47c0.59-0.31,0.88-0.75,0.88-1.3c0-0.48-0.27-0.85-0.8-1.11c-0.53-0.27-1.36-0.55-2.48-0.86
			c-1.27-0.34-2.33-0.69-3.17-1.04c-0.84-0.35-1.57-0.89-2.17-1.61c-0.61-0.72-0.91-1.67-0.91-2.86c0-1.43,0.38-2.68,1.15-3.76
			s1.86-1.91,3.28-2.5c1.42-0.59,3.08-0.89,4.99-0.89c1.4,0,2.71,0.15,3.93,0.44c1.21,0.3,2.26,0.72,3.14,1.27l-2.02,4.2
			c-0.77-0.49-1.61-0.87-2.54-1.13s-1.87-0.39-2.85-0.39c-1.1,0-1.97,0.18-2.59,0.54c-0.63,0.36-0.94,0.83-0.94,1.4
			c0,0.5,0.27,0.88,0.81,1.14c0.54,0.27,1.38,0.55,2.52,0.86c1.27,0.32,2.32,0.66,3.16,1c0.83,0.34,1.55,0.87,2.14,1.57
			c0.6,0.7,0.9,1.63,0.9,2.77c0,1.41-0.39,2.65-1.16,3.73c-0.78,1.08-1.88,1.91-3.31,2.5c-1.43,0.59-3.09,0.89-4.98,0.89
			C683.7,701.25,682.15,701.05,680.7,700.65z"/>
		<path d="M716.2,693.76l-1.37,7.08h-5.55l1.4-7.23l-4.99-12.77h5.58l3.08,7.97l6.28-7.97h5.64L716.2,693.76z"/>
		<path d="M739.11,685.34h-6.03l0.9-4.48h17.58l-0.9,4.48h-6l-3.06,15.51h-5.55L739.11,685.34z"/>
		<path d="M754.56,700.37c-1.23-0.58-2.18-1.41-2.83-2.5c-0.65-1.08-0.98-2.36-0.98-3.83c0-0.61,0.07-1.31,0.22-2.11l2.19-11.08
			h5.55l-2.16,11c-0.11,0.57-0.17,1.1-0.17,1.57c0,2.09,1.08,3.14,3.25,3.14c1.18,0,2.11-0.37,2.79-1.1
			c0.68-0.73,1.19-1.94,1.53-3.61l2.16-11h5.47l-2.21,11.34c-1.2,6.04-4.66,9.05-10.4,9.05
			C757.26,701.25,755.79,700.96,754.56,700.37z"/>
		<path d="M779.96,685.22l-0.64,3.37h8.72l-0.81,4.23h-8.75l-0.7,3.66h10.29l-0.9,4.37h-15.73l3.93-19.99h15.37l-0.87,4.37H779.96z"
			/>
		<path d="M809.07,691.95c-0.95,1.32-2.29,2.29-4.01,2.9l3.34,6h-5.8l-2.92-5.31h-2.8l-1.04,5.31h-5.55l3.93-19.99h8.38
			c2.51,0,4.45,0.56,5.83,1.69c1.38,1.12,2.08,2.68,2.08,4.68C810.5,689.05,810.02,690.63,809.07,691.95z M804.08,685.92
			c-0.54-0.41-1.3-0.61-2.27-0.61h-2.92l-1.18,5.85h3.31c1.23,0,2.19-0.3,2.86-0.89c0.67-0.59,1.01-1.43,1.01-2.51
			C804.89,686.95,804.62,686.33,804.08,685.92z"/>
		<path d="M816.53,700.15c-1.5-0.73-2.65-1.77-3.45-3.1c-0.8-1.33-1.2-2.87-1.2-4.6c0-2.29,0.52-4.34,1.56-6.17
			c1.04-1.83,2.49-3.26,4.36-4.29c1.87-1.03,4-1.54,6.39-1.54c1.81,0,3.42,0.33,4.82,0.98c1.4,0.66,2.45,1.59,3.14,2.78l-4.01,3.26
			c-0.95-1.56-2.39-2.34-4.32-2.34c-1.25,0-2.36,0.3-3.31,0.9c-0.95,0.6-1.7,1.43-2.23,2.49c-0.53,1.06-0.8,2.24-0.8,3.55
			c0,1.35,0.43,2.44,1.29,3.26c0.86,0.82,2.03,1.23,3.51,1.23c1.87,0,3.47-0.77,4.79-2.31l3.28,3.29c-1.07,1.31-2.31,2.26-3.73,2.84
			c-1.42,0.58-3.05,0.87-4.88,0.87C819.76,701.25,818.02,700.88,816.53,700.15z"/>
		<path d="M845.52,696.96h-8.36l-2.27,3.88h-5.86l12.59-19.99h5.47l4.74,19.99h-5.52L845.52,696.96z M844.68,692.79l-1.32-6.48
			l-3.76,6.48H844.68z"/>
		<path d="M856.12,700.65c-1.46-0.4-2.65-0.91-3.56-1.54l2.19-4.23c0.99,0.65,2.05,1.14,3.17,1.47c1.12,0.33,2.24,0.5,3.37,0.5
			c1.07,0,1.89-0.16,2.48-0.47c0.59-0.31,0.88-0.75,0.88-1.3c0-0.48-0.27-0.85-0.8-1.11c-0.53-0.27-1.36-0.55-2.48-0.86
			c-1.27-0.34-2.33-0.69-3.17-1.04c-0.84-0.35-1.57-0.89-2.17-1.61c-0.61-0.72-0.91-1.67-0.91-2.86c0-1.43,0.38-2.68,1.15-3.76
			s1.86-1.91,3.28-2.5c1.42-0.59,3.08-0.89,4.99-0.89c1.4,0,2.71,0.15,3.93,0.44c1.21,0.3,2.26,0.72,3.14,1.27l-2.02,4.2
			c-0.77-0.49-1.61-0.87-2.54-1.13c-0.93-0.26-1.87-0.39-2.85-0.39c-1.1,0-1.97,0.18-2.59,0.54c-0.63,0.36-0.94,0.83-0.94,1.4
			c0,0.5,0.27,0.88,0.81,1.14c0.54,0.27,1.38,0.55,2.52,0.86c1.27,0.32,2.32,0.66,3.16,1c0.83,0.34,1.55,0.87,2.14,1.57
			c0.6,0.7,0.9,1.63,0.9,2.77c0,1.41-0.39,2.65-1.16,3.73c-0.78,1.08-1.88,1.91-3.31,2.5c-1.43,0.59-3.09,0.89-4.98,0.89
			C859.12,701.25,857.58,701.05,856.12,700.65z"/>
	</g>
</g>
<g>
</g>
<g>
</g>
<g>
</g>
<g>
</g>
<g>
</g>
<g>
</g>
<g>
</g>
<g>
</g>
<g>
</g>
<g>
</g>
<g>
</g>
<g>
</g>
<g>
</g>
<g>
</g>
<g>
</g>
</svg>
