<?xml version="1.0" encoding="utf-8"?>
<!-- Generator: Adobe Illustrator 26.0.3, SVG Export Plug-In . SVG Version: 6.00 Build 0)  -->
<svg version="1.0" id="Capa_1" xmlns="http://www.w3.org/2000/svg" xmlns:xlink="http://www.w3.org/1999/xlink" x="0px" y="0px"
	 viewBox="0 0 418.32 309.68" style="enable-background:new 0 0 418.32 309.68;" xml:space="preserve">
<g style="opacity:0.1;">
	<path style="fill:#050505;" d="M354.39,188.2c-0.41,0.24-0.56,0.62-0.64,1.07c-1.02,5.47-2.08,10.93-3.08,16.4
		c-0.41,2.22-0.36,2.25,1.96,2.25c15.17,0.01,30.33-0.01,45.5,0.01c4.75,0.01,4.52-0.63,3.51,4.39c-1.17,5.88-2.3,11.77-3.4,17.66
		c-0.53,2.82-0.49,2.85-3.44,2.85c-15.6,0-31.2,0-46.8,0c-2.86,0-2.82,0.02-3.38,2.83c-1.07,5.46-2.18,10.91-3.29,16.35
		c-0.46,2.24-0.42,2.34,1.85,2.34c18.63,0,37.26,0,55.9,0c0.62,0,1.24,0.04,1.86,0c1.35-0.08,1.73,0.44,1.42,1.79
		c-1.02,4.52-1.95,9.06-2.91,13.59c-0.62,2.9-1.29,5.79-1.81,8.71c-0.22,1.26-0.86,1.66-2.02,1.62c-0.74-0.02-1.49,0.01-2.23,0.01
		c-29.4,0-58.81,0.01-88.21,0.01c-2.2,0-2.34-0.13-1.89-2.37c2.83-14.18,5.68-28.35,8.51-42.53c3.32-16.6,6.62-33.2,9.94-49.8
		c1.48-7.39,2.97-14.77,4.47-22.16c0.07-0.35,0.25-0.68,0.38-1.02c0.58-0.31,1.21-0.16,1.82-0.16c29.36-0.01,58.73-0.01,88.09,0
		c0.6,0,1.24-0.2,1.8,0.2c0.22,3.45-1.06,6.66-1.66,9.97c-0.86,4.78-1.9,9.53-2.84,14.3c-0.12,0.62-0.27,1.2-0.72,1.66
		c-0.42,0.41-0.94,0.23-1.41,0.23c-18.61,0.01-37.23,0.01-55.84,0C355.34,188.41,354.82,188.57,354.39,188.2z"/>
	<path style="fill:#050505;" d="M267.12,159.86c11.97,0.07,23.66,1.71,34.84,6.23c2.3,0.93,4.51,2.02,6.67,3.26
		c1.09,0.63,1.23,1.33,0.69,2.44c-3.59,7.26-7.17,14.54-10.69,21.84c-0.72,1.5-1.47,1.61-2.87,0.81
		c-10.49-6.02-21.87-8.42-33.86-7.98c-5.16,0.19-10.23,1.13-14.6,4.21c-2.37,1.67-3.96,3.8-4.08,6.9c-0.12,3.35,1.45,5.54,4.28,6.96
		c5.29,2.66,10.99,4.13,16.68,5.62c5.93,1.55,11.82,3.21,17.55,5.41c6.4,2.45,11.8,6.25,15.73,11.92
		c3.35,4.83,4.36,10.37,4.05,16.09c-0.92,16.66-9.84,27.78-24.55,34.72c-9.81,4.63-20.23,6.38-30.99,6.54
		c-9.13,0.14-18.17-0.51-27.09-2.6c-8.17-1.92-16.07-4.54-23.36-8.79c-2.27-1.32-2.27-1.39-1.05-3.7c3.72-6.99,7.41-14,11.13-20.99
		c1.17-2.2,1.18-2.18,3.44-0.86c13.65,7.97,28.33,11.53,44.13,10.11c3.87-0.35,7.55-1.37,10.74-3.73
		c4.92-3.65,4.43-10.09-1.02-12.87c-5.56-2.83-11.59-4.28-17.55-5.93c-6.51-1.8-13.05-3.55-19.12-6.52
		c-8.75-4.28-15.36-10.55-16.84-20.7c-1.61-11.07,0.93-21.19,8.11-29.88c8.1-9.8,19.1-14.38,31.21-16.85
		C254.75,160.28,260.9,159.77,267.12,159.86z"/>
	<path style="fill:#050505;" d="M204.31,162.28c-0.74-0.01-1.49,0-2.23,0c-22.29,0-44.57,0-66.86,0c-6.75,0-13.5,0.03-20.24-0.01
		c-1.46-0.01-2.29,0.43-2.56,1.99c-0.73,4.14-1.58,8.26-2.39,12.38c4.26,2.19,5.72,6.25,6.99,10.44c2.44,8.03,4.77,16.09,7.4,24.05
		c2.31,6.99,0.57,13.16-3.78,18.53c-7.85,9.7-16.12,19.06-24.11,28.65c-4.24,5.1-9.43,8.44-15.97,9.62
		c-0.66,0.12-1.35,0.15-2.02,0.15c-11.45,0.01-22.9,0.02-34.35,0c-6.51-0.01-11.23-3.64-13.14-9.91c-2.66-8.74-5.29-17.5-8.14-26.18
		c-2.12-6.45-0.78-12.23,2.99-17.53c3.51-4.93,7.7-9.33,11.6-13.97c4.77-5.68,9.56-11.34,14.34-17c1.24-1.47,2.77-2.64,4.22-3.89
		c0.1-0.61,0.17-1.22,0.29-1.83c0.89-4.43,1.78-8.85,2.68-13.28c0.25-1.24,0.27-2.23-1.45-2.22c-10.21,0.02-20.43,0.02-30.64,0.01
		c-1.18,0-1.81,0.51-2.02,1.7c-0.46,2.56-0.99,5.1-1.5,7.65c-3.59,17.95-7.19,35.9-10.78,53.85c-3.58,17.89-7.16,35.78-10.75,53.67
		c-0.67,3.34-0.71,3.34,2.64,3.34c39.62,0,79.24,0,118.86,0c19.69,0,39.37,0,59.06,0c2.68,0,2.73-0.03,3.29-2.67
		c1.49-7.02,2.95-14.04,4.44-21.06c0.51-2.42,0.36-2.65-2.19-2.65c-8.73-0.01-17.46-0.01-26.19-0.01c-10.15,0-20.31,0.01-30.46-0.01
		c-3.14-0.01-3.76,0.46-2.92-3.42c1.12-5.14,1.99-10.32,2.96-15.49c0.54-2.9,0.54-2.91,3.43-2.91c16.03,0,32.07-0.04,48.1,0.04
		c2.04,0.01,2.85-0.69,3.2-2.61c1.21-6.63,2.53-13.24,3.81-19.86c0.56-2.88,0.56-2.88-2.4-2.89c-15.91,0-31.82,0-47.73-0.01
		c-2.4,0-2.61-0.23-2.17-2.59c0.91-4.86,1.87-9.72,2.84-14.57c0.63-3.17,0.64-3.17,3.81-3.17c17.89,0,35.78,0,53.67,0
		c0.74,0,1.49-0.03,2.23-0.01c1.12,0.03,1.71-0.51,1.91-1.59c0.33-1.83,0.69-3.65,1.07-5.46c1.12-5.52,2.29-11.02,3.38-16.54
		C207,162.46,206.82,162.3,204.31,162.28z"/>
	<path style="fill:#FCD92D;" d="M55.6,181.24c-3.35,2.63-5.69,6.18-8.42,9.36c-6.13,7.13-12.14,14.37-18.26,21.51
		c-2.15,2.51-3.91,5.24-5.02,8.39c-1.17,3.32-1.34,6.63-0.36,10.02c2.65,9.15,5.66,18.2,8.46,27.3c1.83,5.94,5.83,9.13,12.02,9.24
		c11.51,0.21,23.03,0.29,34.54-0.03c6.4-0.18,11.89-3.16,16.03-7.98c8.06-9.38,15.98-18.89,23.99-28.33
		c3.05-3.6,5.23-7.63,5.8-12.44c0.24-2.04-0.11-3.96-0.69-5.85c-2.84-9.35-5.63-18.72-8.67-28.01c-0.81-2.47-2.13-4.6-4.26-6.16
		c-0.55-0.41-1.16-0.79-0.74-1.64c-2.58-1.38-5.35-1.77-8.24-1.76c-10.45,0.03-20.91,0-31.36,0.01c-1.73,0-3.44,0.1-5.15,0.51
		c-3.37,0.8-6.31,2.46-9.22,4.22C56.33,180.27,56.15,180.81,55.6,181.24z M70.82,197.46c6.85-2.33,13.71-2.8,20.29,0.8
		c5.9,3.22,8.91,8.4,9.29,15.05c0.51,8.92-3.2,16.23-9.04,22.59c-6.54,7.12-15.66,11.32-24.33,11.49
		c-11.98,0.23-20.81-8.49-20.12-20.24c0.44-7.48,3.65-13.93,8.66-19.44C59.81,203.07,64.83,199.49,70.82,197.46z"/>
	<g>
		<path d="M344.76,149.63c5.76,0.9,52.59-0.6,61.01-1.05c8.42-0.45,6.94-0.75,6.5-5.27c-0.44-4.51-2.22-17-3.55-20.76
			c-1.33-3.76-1.92-5.72-12.26-7.07c-10.34-1.35-19.2-1.35-19.2-1.35s22.6,4.06,24.52,13.24c1.92,9.18,1.33,12.19-1.92,12.34
			c-3.25,0.15-48.01,1.5-54.51-0.45C338.85,137.3,339,148.73,344.76,149.63z"/>
		<path style="fill:#FCD92D;" d="M128.68,122.55c0,0-33.83,26.18-39.59,27.08c-5.76,0.9-52.59-0.6-61.01-1.05
			c-8.42-0.45-6.94-0.75-6.5-5.27c0.44-4.51,2.22-17,3.55-20.76c1.33-3.76,1.92-5.72,12.26-7.07c10.34-1.35,19.2-1.35,19.2-1.35
			s-22.6,4.06-24.52,13.24s-1.33,12.19,1.92,12.34c3.25,0.15,48.01,1.5,54.51-0.45C94.99,137.3,128.68,122.55,128.68,122.55z"/>
		<path d="M265.13,11.81c20.63,1.82,62.53,8.49,67.26,10.6c4.73,2.11,19.57,24.87,22.11,32.28c3.23,9.42,9.16,27.68,11.08,31.3
			c1.92,3.61,3.1,5.57-7.98,3.46c-11.08-2.11-45.8-6.47-73.57-4.51c32.8,1.96,67.81,8.73,78,10.98
			c10.19,2.26,49.05,13.69,49.05,13.69s-7.53-10.53-18.32-17.3c-10.78-6.77-18.32-23.77-21.27-30.69
			c-2.95-6.92-17.28-43.33-32.8-50.1c-15.51-6.77-59.54-9.57-71.65-10.08c-60.86-2.56-75.22-1.12-100.27,0
			c-12.11,0.54-56.14,3.31-71.65,10.08c-15.51,6.77-29.84,43.18-32.8,50.1c-2.95,6.92-10.49,23.92-21.27,30.69
			c-10.78,6.77-18.32,17.3-18.32,17.3S61.61,98.18,71.8,95.92c10.19-2.26,45.2-9.03,78-10.98c-27.77-1.96-62.49,2.41-73.57,4.51
			s-9.9,0.15-7.98-3.46c1.92-3.61,8.42-23.92,11.08-31.3c2.66-7.37,17.24-30.95,21.97-33.05c4.73-2.11,46.78-7.97,67.4-9.83
			C192.72,9.64,224.21,8.2,265.13,11.81z"/>
	</g>
	<g>
		<path d="M4.18,301.91l-0.42,2.13h4.2l-0.42,2.12H3.35l-0.65,3.33H0l1.9-9.7h7.46l-0.42,2.12H4.18z"/>
		<path d="M15.23,307.61h-4.05l-1.1,1.88H7.22l6.11-9.7h2.65l2.3,9.7h-2.68L15.23,307.61z M14.82,305.58l-0.64-3.15l-1.82,3.15
			H14.82z"/>
		<path d="M28.33,305.26c0.22,0.33,0.33,0.71,0.33,1.16c0,1.01-0.4,1.77-1.21,2.29c-0.81,0.52-1.86,0.78-3.16,0.78h-5.24l1.9-9.7
			h4.82c1.07,0,1.89,0.2,2.46,0.59c0.57,0.39,0.85,0.95,0.85,1.68c0,0.56-0.15,1.05-0.45,1.46c-0.3,0.41-0.72,0.73-1.25,0.96
			C27.8,304.67,28.11,304.93,28.33,305.26z M25.58,307.22c0.27-0.19,0.41-0.48,0.41-0.86c0-0.28-0.1-0.48-0.3-0.62
			c-0.2-0.13-0.47-0.2-0.82-0.2h-2.38l-0.38,1.97h2.34C24.93,307.51,25.31,307.41,25.58,307.22z M23.24,301.77l-0.37,1.87h1.93
			c0.48,0,0.85-0.09,1.1-0.28c0.25-0.19,0.37-0.46,0.37-0.82c0-0.51-0.38-0.76-1.13-0.76H23.24z"/>
		<path d="M38.64,305.17c-0.46,0.64-1.11,1.11-1.95,1.41l1.62,2.91H35.5l-1.41-2.58h-1.36l-0.5,2.58h-2.69l1.9-9.7h4.07
			c1.22,0,2.16,0.27,2.83,0.82c0.67,0.55,1.01,1.3,1.01,2.27C39.33,303.77,39.1,304.53,38.64,305.17z M36.22,302.25
			c-0.26-0.2-0.63-0.3-1.1-0.3H33.7l-0.57,2.84h1.61c0.6,0,1.06-0.14,1.39-0.43c0.33-0.29,0.49-0.69,0.49-1.22
			C36.61,302.75,36.48,302.45,36.22,302.25z"/>
		<path d="M41.5,299.79h2.69l-1.9,9.7h-2.69L41.5,299.79z"/>
		<path d="M46.87,309.15c-0.73-0.36-1.28-0.86-1.67-1.5c-0.39-0.65-0.59-1.39-0.59-2.23c0-1.11,0.25-2.11,0.76-2.99
			c0.5-0.89,1.21-1.58,2.12-2.08c0.91-0.5,1.94-0.75,3.1-0.75c0.88,0,1.66,0.16,2.34,0.48c0.68,0.32,1.19,0.77,1.52,1.35L52.51,303
			c-0.46-0.76-1.16-1.14-2.1-1.14c-0.61,0-1.14,0.15-1.61,0.44c-0.46,0.29-0.82,0.69-1.08,1.21c-0.26,0.51-0.39,1.09-0.39,1.72
			c0,0.66,0.21,1.18,0.63,1.58c0.42,0.4,0.98,0.6,1.7,0.6c0.91,0,1.68-0.37,2.33-1.12l1.59,1.59c-0.52,0.64-1.12,1.1-1.81,1.38
			c-0.69,0.28-1.48,0.42-2.37,0.42C48.44,309.68,47.6,309.51,46.87,309.15z"/>
		<path d="M60.94,307.61h-4.05l-1.1,1.88h-2.84l6.11-9.7h2.65l2.3,9.7h-2.68L60.94,307.61z M60.53,305.58l-0.64-3.15l-1.82,3.15
			H60.53z"/>
		<path d="M67.31,309.15c-0.73-0.36-1.28-0.86-1.67-1.5c-0.39-0.65-0.59-1.39-0.59-2.23c0-1.11,0.25-2.11,0.76-2.99
			c0.5-0.89,1.21-1.58,2.12-2.08c0.91-0.5,1.94-0.75,3.1-0.75c0.88,0,1.66,0.16,2.34,0.48c0.68,0.32,1.19,0.77,1.52,1.35L72.94,303
			c-0.46-0.76-1.16-1.14-2.1-1.14c-0.61,0-1.14,0.15-1.61,0.44c-0.46,0.29-0.82,0.69-1.08,1.21c-0.26,0.51-0.39,1.09-0.39,1.72
			c0,0.66,0.21,1.18,0.63,1.58c0.42,0.4,0.98,0.6,1.7,0.6c0.91,0,1.68-0.37,2.33-1.12l1.59,1.59c-0.52,0.64-1.12,1.1-1.81,1.38
			c-0.69,0.28-1.48,0.42-2.37,0.42C68.88,309.68,68.03,309.51,67.31,309.15z"/>
		<path d="M76.59,299.79h2.69l-1.9,9.7h-2.69L76.59,299.79z"/>
		<path d="M81.93,309.14c-0.71-0.36-1.26-0.86-1.65-1.51c-0.39-0.65-0.58-1.39-0.58-2.22c0-1.11,0.25-2.11,0.76-2.99
			c0.5-0.89,1.21-1.58,2.11-2.08c0.9-0.5,1.93-0.75,3.08-0.75c0.96,0,1.8,0.18,2.51,0.54c0.71,0.36,1.26,0.86,1.65,1.51
			c0.39,0.65,0.58,1.39,0.58,2.22c0,1.11-0.25,2.11-0.76,2.99c-0.5,0.89-1.21,1.58-2.11,2.08c-0.9,0.5-1.93,0.75-3.08,0.75
			C83.48,309.68,82.64,309.5,81.93,309.14z M86.25,306.95c0.45-0.31,0.8-0.71,1.05-1.23c0.24-0.51,0.37-1.08,0.37-1.7
			c0-0.66-0.2-1.18-0.59-1.57c-0.39-0.39-0.95-0.59-1.65-0.59c-0.6,0-1.12,0.15-1.58,0.46c-0.45,0.31-0.8,0.71-1.05,1.23
			c-0.24,0.51-0.37,1.08-0.37,1.7c0,0.66,0.2,1.18,0.59,1.57c0.39,0.39,0.95,0.59,1.65,0.59C85.27,307.41,85.79,307.26,86.25,306.95
			z M86.82,296.89h2.67L86.7,299h-1.92L86.82,296.89z"/>
		<path d="M101.76,299.79l-1.91,9.7h-2.22l-3.14-5.32l-1.05,5.32h-2.64l1.9-9.7h2.22l3.16,5.31l1.03-5.31H101.76z"/>
		<path d="M111.5,306.05l-0.67,3.44h-2.69l0.68-3.51l-2.42-6.19h2.71l1.5,3.87l3.05-3.87h2.73L111.5,306.05z"/>
		<path d="M121.02,299.79h4.14c0.98,0,1.83,0.16,2.54,0.49c0.72,0.33,1.27,0.8,1.65,1.41c0.39,0.61,0.58,1.34,0.58,2.17
			c0,1.13-0.25,2.12-0.76,2.97c-0.5,0.85-1.2,1.51-2.1,1.97c-0.9,0.46-1.93,0.69-3.09,0.69h-4.87L121.02,299.79z M124.07,307.3
			c0.65,0,1.22-0.14,1.69-0.42c0.48-0.28,0.84-0.67,1.08-1.16c0.24-0.49,0.37-1.06,0.37-1.68c0-0.66-0.2-1.16-0.6-1.52
			c-0.4-0.36-0.98-0.53-1.76-0.53h-1.58l-1.03,5.32H124.07z"/>
		<path d="M132.26,299.79h2.69l-1.9,9.7h-2.69L132.26,299.79z"/>
		<path d="M136.28,309.39c-0.71-0.19-1.28-0.44-1.73-0.75l1.06-2.05c0.48,0.31,0.99,0.55,1.54,0.71c0.54,0.16,1.09,0.24,1.63,0.24
			c0.52,0,0.92-0.08,1.2-0.23c0.29-0.15,0.43-0.36,0.43-0.63c0-0.23-0.13-0.41-0.39-0.54c-0.26-0.13-0.66-0.27-1.2-0.42
			c-0.62-0.17-1.13-0.33-1.54-0.51c-0.41-0.17-0.76-0.43-1.05-0.78c-0.3-0.35-0.44-0.81-0.44-1.39c0-0.69,0.19-1.3,0.56-1.82
			c0.37-0.52,0.9-0.93,1.59-1.21c0.69-0.29,1.5-0.43,2.42-0.43c0.68,0,1.32,0.07,1.91,0.21c0.59,0.14,1.1,0.35,1.52,0.62l-0.98,2.04
			c-0.37-0.24-0.78-0.42-1.23-0.55c-0.45-0.12-0.91-0.19-1.38-0.19c-0.54,0-0.95,0.09-1.26,0.26c-0.3,0.18-0.46,0.4-0.46,0.68
			c0,0.24,0.13,0.43,0.39,0.55c0.26,0.13,0.67,0.27,1.22,0.42c0.62,0.16,1.13,0.32,1.53,0.49c0.4,0.17,0.75,0.42,1.04,0.76
			c0.29,0.34,0.44,0.79,0.44,1.34c0,0.68-0.19,1.29-0.56,1.81c-0.38,0.52-0.91,0.93-1.61,1.21s-1.5,0.43-2.42,0.43
			C137.73,309.68,136.98,309.59,136.28,309.39z"/>
		<path d="M147.13,301.96h-2.93l0.44-2.18h8.53l-0.44,2.18h-2.91l-1.48,7.53h-2.69L147.13,301.96z"/>
		<path d="M161.39,305.17c-0.46,0.64-1.11,1.11-1.95,1.41l1.62,2.91h-2.82l-1.42-2.58h-1.36l-0.5,2.58h-2.69l1.9-9.7h4.07
			c1.22,0,2.16,0.27,2.83,0.82c0.67,0.55,1.01,1.3,1.01,2.27C162.09,303.77,161.86,304.53,161.39,305.17z M158.97,302.25
			c-0.26-0.2-0.63-0.3-1.1-0.3h-1.41l-0.57,2.84h1.61c0.6,0,1.06-0.14,1.39-0.43c0.33-0.29,0.49-0.69,0.49-1.22
			C159.37,302.75,159.23,302.45,158.97,302.25z"/>
		<path d="M164.25,299.79h2.69l-1.9,9.7h-2.69L164.25,299.79z"/>
		<path d="M176.23,305.26c0.22,0.33,0.33,0.71,0.33,1.16c0,1.01-0.4,1.77-1.21,2.29c-0.81,0.52-1.86,0.78-3.16,0.78h-5.24l1.9-9.7
			h4.82c1.07,0,1.89,0.2,2.46,0.59c0.57,0.39,0.85,0.95,0.85,1.68c0,0.56-0.15,1.05-0.45,1.46c-0.3,0.41-0.72,0.73-1.25,0.96
			C175.69,304.67,176.01,304.93,176.23,305.26z M173.47,307.22c0.27-0.19,0.41-0.48,0.41-0.86c0-0.28-0.1-0.48-0.3-0.62
			c-0.2-0.13-0.47-0.2-0.82-0.2h-2.38l-0.38,1.97h2.34C172.83,307.51,173.2,307.41,173.47,307.22z M171.13,301.77l-0.37,1.87h1.93
			c0.48,0,0.85-0.09,1.1-0.28c0.25-0.19,0.37-0.46,0.37-0.82c0-0.51-0.38-0.76-1.13-0.76H171.13z"/>
		<path d="M179.92,309.26c-0.6-0.28-1.06-0.69-1.37-1.21c-0.32-0.53-0.48-1.15-0.48-1.86c0-0.3,0.04-0.64,0.11-1.03l1.06-5.38h2.69
			l-1.05,5.34c-0.05,0.28-0.08,0.53-0.08,0.76c0,1.02,0.53,1.52,1.58,1.52c0.57,0,1.02-0.18,1.35-0.53
			c0.33-0.36,0.58-0.94,0.74-1.75l1.05-5.34h2.65l-1.07,5.5c-0.58,2.93-2.26,4.39-5.05,4.39
			C181.23,309.68,180.52,309.54,179.92,309.26z"/>
		<path d="M190.78,309.15c-0.73-0.36-1.28-0.86-1.67-1.5s-0.58-1.39-0.58-2.23c0-1.11,0.25-2.11,0.75-2.99
			c0.5-0.89,1.21-1.58,2.12-2.08c0.91-0.5,1.94-0.75,3.1-0.75c0.88,0,1.66,0.16,2.34,0.48c0.68,0.32,1.19,0.77,1.52,1.35l-1.95,1.58
			c-0.46-0.76-1.16-1.14-2.1-1.14c-0.61,0-1.14,0.15-1.61,0.44c-0.46,0.29-0.82,0.69-1.08,1.21c-0.26,0.51-0.39,1.09-0.39,1.72
			c0,0.66,0.21,1.18,0.63,1.58c0.42,0.4,0.98,0.6,1.7,0.6c0.91,0,1.68-0.37,2.33-1.12l1.59,1.59c-0.52,0.64-1.12,1.1-1.81,1.38
			c-0.69,0.28-1.48,0.42-2.37,0.42C192.35,309.68,191.51,309.51,190.78,309.15z"/>
		<path d="M200.06,299.79h2.69l-1.9,9.7h-2.69L200.06,299.79z"/>
		<path d="M205.4,309.14c-0.71-0.36-1.26-0.86-1.65-1.51c-0.39-0.65-0.58-1.39-0.58-2.22c0-1.11,0.25-2.11,0.75-2.99
			c0.5-0.89,1.21-1.58,2.11-2.08c0.9-0.5,1.93-0.75,3.08-0.75c0.96,0,1.8,0.18,2.51,0.54c0.71,0.36,1.26,0.86,1.65,1.51
			c0.39,0.65,0.58,1.39,0.58,2.22c0,1.11-0.25,2.11-0.75,2.99c-0.5,0.89-1.21,1.58-2.11,2.08c-0.9,0.5-1.93,0.75-3.08,0.75
			C206.95,309.68,206.11,309.5,205.4,309.14z M209.72,306.95c0.45-0.31,0.8-0.71,1.05-1.23c0.24-0.51,0.37-1.08,0.37-1.7
			c0-0.66-0.2-1.18-0.59-1.57c-0.39-0.39-0.95-0.59-1.65-0.59c-0.6,0-1.12,0.15-1.58,0.46c-0.45,0.31-0.8,0.71-1.05,1.23
			c-0.24,0.51-0.37,1.08-0.37,1.7c0,0.66,0.2,1.18,0.59,1.57c0.39,0.39,0.95,0.59,1.65,0.59
			C208.74,307.41,209.27,307.26,209.72,306.95z M210.29,296.89h2.67l-2.79,2.11h-1.92L210.29,296.89z"/>
		<path d="M225.23,299.79l-1.91,9.7h-2.22l-3.14-5.32l-1.05,5.32h-2.64l1.9-9.7h2.22l3.16,5.31l1.03-5.31H225.23z"/>
		<path d="M231.11,299.79h4.14c0.98,0,1.83,0.16,2.54,0.49c0.72,0.33,1.27,0.8,1.65,1.41c0.39,0.61,0.58,1.34,0.58,2.17
			c0,1.13-0.25,2.12-0.76,2.97c-0.5,0.85-1.2,1.51-2.1,1.97c-0.9,0.46-1.93,0.69-3.09,0.69h-4.87L231.11,299.79z M234.16,307.3
			c0.65,0,1.22-0.14,1.69-0.42c0.48-0.28,0.84-0.67,1.08-1.16c0.24-0.49,0.37-1.06,0.37-1.68c0-0.66-0.2-1.16-0.6-1.52
			c-0.4-0.36-0.98-0.53-1.76-0.53h-1.58l-1.03,5.32H234.16z"/>
		<path d="M244.58,301.91l-0.31,1.64h4.23l-0.39,2.05h-4.25l-0.34,1.77h4.99l-0.44,2.12h-7.63l1.9-9.7h7.46l-0.42,2.12H244.58z"/>
		<path d="M262.33,300.61c0.67,0.55,1.01,1.31,1.01,2.3c0,0.81-0.19,1.52-0.58,2.13c-0.39,0.61-0.93,1.08-1.65,1.41
			c-0.71,0.33-1.54,0.5-2.48,0.5h-1.91l-0.49,2.54h-2.69l1.9-9.7h4.03C260.71,299.79,261.66,300.06,262.33,300.61z M260.14,304.36
			c0.32-0.29,0.48-0.69,0.48-1.22c0-0.4-0.13-0.7-0.39-0.89c-0.26-0.2-0.63-0.3-1.11-0.3h-1.41l-0.56,2.84h1.61
			C259.35,304.79,259.81,304.65,260.14,304.36z"/>
		<path d="M267.57,301.91l-0.31,1.64h4.23l-0.39,2.05h-4.25l-0.34,1.77h4.99l-0.44,2.12h-7.63l1.9-9.7h7.46l-0.42,2.12H267.57z"/>
		<path d="M281.7,305.17c-0.46,0.64-1.11,1.11-1.95,1.41l1.62,2.91h-2.82l-1.42-2.58h-1.36l-0.5,2.58h-2.69l1.9-9.7h4.07
			c1.22,0,2.16,0.27,2.83,0.82c0.67,0.55,1.01,1.3,1.01,2.27C282.39,303.77,282.16,304.53,281.7,305.17z M279.27,302.25
			c-0.26-0.2-0.63-0.3-1.1-0.3h-1.41l-0.57,2.84h1.61c0.6,0,1.06-0.14,1.39-0.43c0.33-0.29,0.49-0.69,0.49-1.22
			C279.67,302.75,279.54,302.45,279.27,302.25z"/>
		<path d="M293.6,299.79l-1.91,9.7h-2.22l-3.14-5.32l-1.05,5.32h-2.64l1.9-9.7h2.22l3.16,5.31l1.03-5.31H293.6z"/>
		<path d="M296.25,309.14c-0.71-0.36-1.26-0.86-1.65-1.51c-0.39-0.65-0.58-1.39-0.58-2.22c0-1.11,0.25-2.11,0.75-2.99
			c0.5-0.89,1.21-1.58,2.11-2.08c0.9-0.5,1.93-0.75,3.08-0.75c0.96,0,1.8,0.18,2.51,0.54s1.26,0.86,1.65,1.51
			c0.39,0.65,0.58,1.39,0.58,2.22c0,1.11-0.25,2.11-0.75,2.99c-0.5,0.89-1.21,1.58-2.11,2.08c-0.9,0.5-1.93,0.75-3.08,0.75
			C297.8,309.68,296.96,309.5,296.25,309.14z M300.57,306.95c0.45-0.31,0.8-0.71,1.05-1.23c0.24-0.51,0.37-1.08,0.37-1.7
			c0-0.66-0.2-1.18-0.59-1.57c-0.39-0.39-0.95-0.59-1.65-0.59c-0.6,0-1.12,0.15-1.58,0.46c-0.45,0.31-0.8,0.71-1.05,1.23
			c-0.24,0.51-0.37,1.08-0.37,1.7c0,0.66,0.2,1.18,0.59,1.57c0.39,0.39,0.95,0.59,1.65,0.59
			C299.59,307.41,300.11,307.26,300.57,306.95z"/>
		<path d="M306.43,309.39c-0.71-0.19-1.28-0.44-1.73-0.75l1.06-2.05c0.48,0.31,0.99,0.55,1.54,0.71c0.54,0.16,1.09,0.24,1.63,0.24
			c0.52,0,0.92-0.08,1.2-0.23c0.29-0.15,0.43-0.36,0.43-0.63c0-0.23-0.13-0.41-0.39-0.54c-0.26-0.13-0.66-0.27-1.2-0.42
			c-0.62-0.17-1.13-0.33-1.54-0.51c-0.41-0.17-0.76-0.43-1.05-0.78c-0.3-0.35-0.44-0.81-0.44-1.39c0-0.69,0.19-1.3,0.56-1.82
			c0.37-0.52,0.9-0.93,1.59-1.21c0.69-0.29,1.5-0.43,2.42-0.43c0.68,0,1.32,0.07,1.91,0.21c0.59,0.14,1.1,0.35,1.52,0.62l-0.98,2.04
			c-0.37-0.24-0.78-0.42-1.23-0.55s-0.91-0.19-1.38-0.19c-0.54,0-0.95,0.09-1.26,0.26c-0.3,0.18-0.46,0.4-0.46,0.68
			c0,0.24,0.13,0.43,0.39,0.55c0.26,0.13,0.67,0.27,1.22,0.42c0.62,0.16,1.13,0.32,1.53,0.49c0.4,0.17,0.75,0.42,1.04,0.76
			c0.29,0.34,0.44,0.79,0.44,1.34c0,0.68-0.19,1.29-0.56,1.81c-0.38,0.52-0.91,0.93-1.61,1.21s-1.5,0.43-2.42,0.43
			C307.89,309.68,307.14,309.59,306.43,309.39z"/>
		<path d="M323.66,306.05l-0.67,3.44h-2.69l0.68-3.51l-2.42-6.19h2.71l1.5,3.87l3.05-3.87h2.73L323.66,306.05z"/>
		<path d="M334.77,301.96h-2.93l0.44-2.18h8.53l-0.44,2.18h-2.91l-1.48,7.53h-2.69L334.77,301.96z"/>
		<path d="M342.27,309.26c-0.6-0.28-1.06-0.69-1.37-1.21c-0.32-0.53-0.48-1.15-0.48-1.86c0-0.3,0.04-0.64,0.11-1.03l1.06-5.38h2.69
			l-1.05,5.34c-0.05,0.28-0.08,0.53-0.08,0.76c0,1.02,0.53,1.52,1.58,1.52c0.57,0,1.02-0.18,1.35-0.53
			c0.33-0.36,0.58-0.94,0.74-1.75l1.05-5.34h2.65l-1.07,5.5c-0.58,2.93-2.26,4.39-5.05,4.39
			C343.58,309.68,342.87,309.54,342.27,309.26z"/>
		<path d="M354.6,301.91l-0.31,1.64h4.23l-0.39,2.05h-4.25l-0.34,1.77h4.99l-0.44,2.12h-7.63l1.9-9.7h7.46l-0.42,2.12H354.6z"/>
		<path d="M368.72,305.17c-0.46,0.64-1.11,1.11-1.95,1.41l1.62,2.91h-2.82l-1.42-2.58h-1.36l-0.5,2.58h-2.69l1.9-9.7h4.07
			c1.22,0,2.16,0.27,2.83,0.82c0.67,0.55,1.01,1.3,1.01,2.27C369.41,303.77,369.18,304.53,368.72,305.17z M366.3,302.25
			c-0.26-0.2-0.63-0.3-1.1-0.3h-1.41l-0.57,2.84h1.61c0.6,0,1.06-0.14,1.39-0.43c0.33-0.29,0.49-0.69,0.49-1.22
			C366.69,302.75,366.56,302.45,366.3,302.25z"/>
		<path d="M372.34,309.15c-0.73-0.36-1.28-0.86-1.67-1.5s-0.58-1.39-0.58-2.23c0-1.11,0.25-2.11,0.75-2.99
			c0.5-0.89,1.21-1.58,2.12-2.08c0.91-0.5,1.94-0.75,3.1-0.75c0.88,0,1.66,0.16,2.34,0.48c0.68,0.32,1.19,0.77,1.52,1.35l-1.95,1.58
			c-0.46-0.76-1.16-1.14-2.1-1.14c-0.61,0-1.14,0.15-1.61,0.44c-0.46,0.29-0.82,0.69-1.08,1.21c-0.26,0.51-0.39,1.09-0.39,1.72
			c0,0.66,0.21,1.18,0.63,1.58c0.42,0.4,0.98,0.6,1.7,0.6c0.91,0,1.68-0.37,2.33-1.12l1.59,1.59c-0.52,0.64-1.12,1.1-1.81,1.38
			c-0.69,0.28-1.48,0.42-2.37,0.42C373.91,309.68,373.06,309.51,372.34,309.15z"/>
		<path d="M386.41,307.61h-4.05l-1.1,1.88h-2.84l6.11-9.7h2.65l2.3,9.7h-2.68L386.41,307.61z M386,305.58l-0.64-3.15l-1.82,3.15H386
			z"/>
		<path d="M391.55,309.39c-0.71-0.19-1.28-0.44-1.73-0.75l1.06-2.05c0.48,0.31,0.99,0.55,1.54,0.71c0.54,0.16,1.09,0.24,1.63,0.24
			c0.52,0,0.92-0.08,1.2-0.23c0.29-0.15,0.43-0.36,0.43-0.63c0-0.23-0.13-0.41-0.39-0.54c-0.26-0.13-0.66-0.27-1.2-0.42
			c-0.62-0.17-1.13-0.33-1.54-0.51c-0.41-0.17-0.76-0.43-1.05-0.78c-0.3-0.35-0.44-0.81-0.44-1.39c0-0.69,0.19-1.3,0.56-1.82
			c0.37-0.52,0.9-0.93,1.59-1.21c0.69-0.29,1.5-0.43,2.42-0.43c0.68,0,1.32,0.07,1.91,0.21c0.59,0.14,1.1,0.35,1.52,0.62l-0.98,2.04
			c-0.37-0.24-0.78-0.42-1.23-0.55c-0.45-0.12-0.91-0.19-1.38-0.19c-0.54,0-0.95,0.09-1.26,0.26c-0.3,0.18-0.46,0.4-0.46,0.68
			c0,0.24,0.13,0.43,0.39,0.55c0.26,0.13,0.67,0.27,1.22,0.42c0.62,0.16,1.13,0.32,1.53,0.49c0.4,0.17,0.75,0.42,1.04,0.76
			c0.29,0.34,0.44,0.79,0.44,1.34c0,0.68-0.19,1.29-0.56,1.81c-0.38,0.52-0.91,0.93-1.61,1.21c-0.69,0.29-1.5,0.43-2.42,0.43
			C393.01,309.68,392.26,309.59,391.55,309.39z"/>
	</g>
</g>
<g>
</g>
<g>
</g>
<g>
</g>
<g>
</g>
<g>
</g>
<g>
</g>
<g>
</g>
<g>
</g>
<g>
</g>
<g>
</g>
<g>
</g>
<g>
</g>
<g>
</g>
<g>
</g>
<g>
</g>
</svg>
