<?xml version="1.0" encoding="utf-8"?>
<!-- Generator: Adobe Illustrator 26.0.3, SVG Export Plug-In . SVG Version: 6.00 Build 0)  -->
<svg version="1.0" id="Capa_1" xmlns="http://www.w3.org/2000/svg" xmlns:xlink="http://www.w3.org/1999/xlink" x="0px" y="0px"
	 viewBox="0 0 150 150" style="enable-background:new 0 0 150 150;" xml:space="preserve">
<g>
	<path style="fill:#FFFFFF;" d="M129.02,147H20.98C11.05,147,3,138.95,3,129.02V20.98C3,11.05,11.05,3,20.98,3h108.04
		C138.95,3,147,11.05,147,20.98v108.04C147,138.95,138.95,147,129.02,147z"/>
</g>
<g>
	<path style="fill:#050505;" d="M116.16,88.04c-0.12,0.07-0.16,0.18-0.18,0.3c-0.29,1.56-0.59,3.11-0.88,4.67
		c-0.12,0.63-0.1,0.64,0.56,0.64c4.32,0,8.64,0,12.96,0c1.35,0,1.29-0.18,1,1.25c-0.33,1.67-0.66,3.35-0.97,5.03
		c-0.15,0.8-0.14,0.81-0.98,0.81c-4.44,0-8.89,0-13.33,0c-0.82,0-0.8,0-0.96,0.81c-0.31,1.55-0.62,3.11-0.94,4.66
		c-0.13,0.64-0.12,0.67,0.53,0.67c5.31,0,10.62,0,15.93,0c0.18,0,0.35,0.01,0.53,0c0.38-0.02,0.49,0.13,0.41,0.51
		c-0.29,1.29-0.56,2.58-0.83,3.87c-0.18,0.83-0.37,1.65-0.52,2.48c-0.06,0.36-0.25,0.47-0.57,0.46c-0.21-0.01-0.42,0-0.63,0
		c-8.38,0-16.75,0-25.13,0c-0.63,0-0.67-0.04-0.54-0.67c0.81-4.04,1.62-8.08,2.42-12.12c0.94-4.73,1.89-9.46,2.83-14.19
		c0.42-2.11,0.85-4.21,1.27-6.31c0.02-0.1,0.07-0.19,0.11-0.29c0.17-0.09,0.35-0.04,0.52-0.04c8.37,0,16.73,0,25.1,0
		c0.17,0,0.35-0.06,0.51,0.06c0.06,0.98-0.3,1.9-0.47,2.84c-0.25,1.36-0.54,2.72-0.81,4.07c-0.03,0.18-0.08,0.34-0.21,0.47
		c-0.12,0.12-0.27,0.06-0.4,0.06c-5.3,0-10.61,0-15.91,0C116.43,88.1,116.28,88.15,116.16,88.04z"/>
	<path style="fill:#050505;" d="M91.3,79.97c3.41,0.02,6.74,0.49,9.93,1.77c0.65,0.26,1.29,0.58,1.9,0.93
		c0.31,0.18,0.35,0.38,0.2,0.7c-1.02,2.07-2.04,4.14-3.05,6.22c-0.21,0.43-0.42,0.46-0.82,0.23c-2.99-1.71-6.23-2.4-9.65-2.27
		c-1.47,0.05-2.92,0.32-4.16,1.2c-0.67,0.48-1.13,1.08-1.16,1.97c-0.04,0.95,0.41,1.58,1.22,1.98c1.51,0.76,3.13,1.18,4.75,1.6
		c1.69,0.44,3.37,0.92,5,1.54c1.82,0.7,3.36,1.78,4.48,3.4c0.95,1.38,1.24,2.95,1.15,4.58c-0.26,4.75-2.8,7.91-6.99,9.89
		c-2.79,1.32-5.76,1.82-8.83,1.86c-2.6,0.04-5.18-0.14-7.72-0.74c-2.33-0.55-4.58-1.29-6.66-2.5c-0.65-0.38-0.65-0.4-0.3-1.05
		c1.06-1.99,2.11-3.99,3.17-5.98c0.33-0.63,0.34-0.62,0.98-0.25c3.89,2.27,8.07,3.29,12.57,2.88c1.1-0.1,2.15-0.39,3.06-1.06
		c1.4-1.04,1.26-2.87-0.29-3.67c-1.58-0.81-3.3-1.22-5-1.69c-1.85-0.51-3.72-1.01-5.45-1.86c-2.49-1.22-4.38-3.01-4.8-5.9
		c-0.46-3.15,0.26-6.04,2.31-8.51c2.31-2.79,5.44-4.1,8.89-4.8C87.77,80.09,89.53,79.94,91.3,79.97z"/>
	<path style="fill:#050505;" d="M73.4,80.66c-0.21,0-0.42,0-0.63,0c-6.35,0-12.7,0-19.05,0c-1.92,0-3.85,0.01-5.77,0
		c-0.42,0-0.65,0.12-0.73,0.57c-0.21,1.18-0.45,2.35-0.68,3.53c1.21,0.62,1.63,1.78,1.99,2.97c0.69,2.29,1.36,4.58,2.11,6.85
		c0.66,1.99,0.16,3.75-1.08,5.28c-2.24,2.76-4.59,5.43-6.87,8.16c-1.21,1.45-2.69,2.41-4.55,2.74c-0.19,0.03-0.38,0.04-0.58,0.04
		c-3.26,0-6.52,0.01-9.79,0c-1.85,0-3.2-1.04-3.74-2.82c-0.76-2.49-1.51-4.99-2.32-7.46c-0.6-1.84-0.22-3.48,0.85-4.99
		c1-1.41,2.2-2.66,3.3-3.98c1.36-1.62,2.72-3.23,4.09-4.84c0.35-0.42,0.79-0.75,1.2-1.11c0.03-0.17,0.05-0.35,0.08-0.52
		c0.25-1.26,0.51-2.52,0.76-3.78c0.07-0.35,0.08-0.63-0.41-0.63c-2.91,0.01-5.82,0-8.73,0c-0.34,0-0.52,0.15-0.58,0.48
		c-0.13,0.73-0.28,1.45-0.43,2.18c-1.02,5.11-2.05,10.23-3.07,15.34c-1.02,5.1-2.04,10.2-3.06,15.29c-0.19,0.95-0.2,0.95,0.75,0.95
		c11.29,0,22.58,0,33.86,0c5.61,0,11.22,0,16.83,0c0.76,0,0.78-0.01,0.94-0.76c0.42-2,0.84-4,1.26-6c0.15-0.69,0.1-0.75-0.63-0.76
		c-2.49,0-4.97,0-7.46,0c-2.89,0-5.79,0-8.68,0c-0.9,0-1.07,0.13-0.83-0.98c0.32-1.46,0.57-2.94,0.84-4.41
		c0.15-0.83,0.15-0.83,0.98-0.83c4.57,0,9.14-0.01,13.7,0.01c0.58,0,0.81-0.2,0.91-0.74c0.34-1.89,0.72-3.77,1.08-5.66
		c0.16-0.82,0.16-0.82-0.68-0.82c-4.53,0-9.07,0-13.6,0c-0.68,0-0.74-0.07-0.62-0.74c0.26-1.39,0.53-2.77,0.81-4.15
		c0.18-0.9,0.18-0.9,1.08-0.9c5.1,0,10.19,0,15.29,0c0.21,0,0.42-0.01,0.63,0c0.32,0.01,0.49-0.14,0.54-0.45
		c0.1-0.52,0.2-1.04,0.3-1.56c0.32-1.57,0.65-3.14,0.96-4.71C74.17,80.71,74.12,80.66,73.4,80.66z"/>
	<path style="fill:#FCD92D;" d="M31.03,86.06c-0.95,0.75-1.62,1.76-2.4,2.67c-1.75,2.03-3.46,4.09-5.2,6.13
		c-0.61,0.71-1.11,1.49-1.43,2.39c-0.33,0.95-0.38,1.89-0.1,2.86c0.75,2.61,1.61,5.18,2.41,7.78c0.52,1.69,1.66,2.6,3.42,2.63
		c3.28,0.06,6.56,0.08,9.84-0.01c1.82-0.05,3.39-0.9,4.57-2.27c2.3-2.67,4.55-5.38,6.83-8.07c0.87-1.03,1.49-2.18,1.65-3.54
		c0.07-0.58-0.03-1.13-0.2-1.67c-0.81-2.66-1.6-5.33-2.47-7.98c-0.23-0.7-0.61-1.31-1.21-1.75c-0.16-0.12-0.33-0.23-0.21-0.47
		c-0.74-0.39-1.52-0.51-2.35-0.5c-2.98,0.01-5.96,0-8.93,0c-0.49,0-0.98,0.03-1.47,0.15c-0.96,0.23-1.8,0.7-2.63,1.2
		C31.24,85.78,31.19,85.94,31.03,86.06z M35.37,90.68c1.95-0.66,3.91-0.8,5.78,0.23c1.68,0.92,2.54,2.39,2.65,4.29
		c0.15,2.54-0.91,4.63-2.58,6.44c-1.86,2.03-4.46,3.23-6.93,3.27c-3.41,0.07-5.93-2.42-5.73-5.77c0.13-2.13,1.04-3.97,2.47-5.54
		C32.23,92.28,33.66,91.26,35.37,90.68z"/>
	<g>
		<path d="M102.14,69.34c0,0,9.64,7.46,11.28,7.72c1.64,0.26,14.98-0.17,17.38-0.3c2.4-0.13,1.98-0.21,1.85-1.5
			c-0.13-1.29-0.63-4.84-1.01-5.92c-0.38-1.07-0.55-1.63-3.49-2.01c-2.95-0.39-5.47-0.39-5.47-0.39s6.44,1.16,6.99,3.77
			s0.38,3.47-0.55,3.52c-0.93,0.04-13.68,0.43-15.53-0.13C111.73,73.54,102.14,69.34,102.14,69.34z"/>
		<path style="fill:#FCD92D;" d="M51.85,69.34c0,0-9.64,7.46-11.28,7.72c-1.64,0.26-14.98-0.17-17.38-0.3
			c-2.4-0.13-1.98-0.21-1.85-1.5c0.13-1.29,0.63-4.84,1.01-5.92c0.38-1.07,0.55-1.63,3.49-2.01c2.95-0.39,5.47-0.39,5.47-0.39
			s-6.44,1.16-6.99,3.77s-0.38,3.47,0.55,3.52c0.93,0.04,13.68,0.43,15.53-0.13C42.26,73.54,51.85,69.34,51.85,69.34z"/>
		<path d="M90.73,37.79c5.88,0.52,17.82,2.42,19.16,3.02c1.35,0.6,5.58,7.09,6.3,9.2c0.92,2.68,2.61,7.89,3.16,8.92
			c0.55,1.03,0.88,1.59-2.27,0.99c-3.16-0.6-13.05-1.84-20.96-1.29c9.34,0.56,19.32,2.49,22.22,3.13c2.9,0.64,13.97,3.9,13.97,3.9
			s-2.15-3-5.22-4.93c-3.07-1.93-5.22-6.77-6.06-8.75c-0.84-1.97-4.92-12.35-9.34-14.28c-4.42-1.93-16.96-2.73-20.41-2.87
			c-17.34-0.73-21.43-0.32-28.57,0c-3.45,0.15-15.99,0.94-20.41,2.87c-4.42,1.93-8.5,12.3-9.34,14.28
			c-0.84,1.97-2.99,6.82-6.06,8.75c-3.07,1.93-5.22,4.93-5.22,4.93s11.07-3.26,13.97-3.9s12.88-2.57,22.22-3.13
			c-7.91-0.56-17.8,0.69-20.96,1.29c-3.16,0.6-2.82,0.04-2.27-0.99c0.55-1.03,2.4-6.82,3.16-8.92c0.76-2.1,4.91-8.82,6.26-9.42
			c1.35-0.6,13.33-2.27,19.2-2.8C70.1,37.17,79.07,36.76,90.73,37.79z"/>
	</g>
</g>
<g>
</g>
<g>
</g>
<g>
</g>
<g>
</g>
<g>
</g>
<g>
</g>
<g>
</g>
<g>
</g>
<g>
</g>
<g>
</g>
<g>
</g>
<g>
</g>
<g>
</g>
<g>
</g>
<g>
</g>
</svg>
